<svg width="364" height="164" viewBox="0 0 364 164" fill="none" xmlns="http://www.w3.org/2000/svg">
<g clip-path="url(#clip0_61_84)">
<path d="M264 81.9981C264.03 97.7981 259.471 113.267 250.878 126.525C250.458 127.18 250.022 127.832 249.575 128.472C249.128 129.111 248.65 129.797 248.172 130.449C247.695 131.1 247.29 131.639 246.835 132.225C238.075 143.513 226.522 152.319 213.318 157.776C200.113 163.232 185.713 165.149 171.541 163.337C171.025 163.272 170.516 163.202 170 163.125C160.757 161.77 151.817 158.834 143.571 154.446C142.15 153.691 140.755 152.897 139.386 152.065C131.928 147.514 125.241 141.806 119.577 135.154C119.02 134.501 118.473 133.84 117.936 133.169C114.094 128.37 110.807 123.152 108.136 117.615C107.615 116.548 107.122 115.461 106.652 114.37C106.123 113.145 105.626 111.905 105.161 110.651C104.906 109.977 104.663 109.295 104.432 108.613V108.593C103.572 106.088 102.834 103.532 102.22 100.924C102.004 100.011 101.804 99.0976 101.619 98.1765C100.63 93.258 100.092 88.2593 100.012 83.2429C100.012 82.8267 100.012 82.4066 100.012 81.9866C99.995 69.8465 102.685 57.8554 107.885 46.8858C108.887 44.7662 109.986 42.6967 111.161 40.6773C112.749 37.955 114.493 35.3262 116.383 32.8039C116.888 32.1333 117.4 31.4666 117.924 30.8153C125.6 21.1909 135.348 13.4218 146.441 8.08655C157.535 2.75126 169.69 -0.0128402 182 4.48419e-05H182.956C183.233 4.48419e-05 183.511 4.48419e-05 183.788 4.48419e-05H184.447L185.133 0.0270217C185.765 0.0270217 186.397 0.0771216 187.025 0.11566L188.474 0.21586L189.218 0.312206L189.746 0.362305C190 0.381575 190.251 0.408551 190.517 0.435528L191.087 0.493336L191.688 0.566559C192.482 0.656482 193.271 0.760535 194.055 0.878719L194.825 0.994335H194.864L195.635 1.12151L196.405 1.25254C197.209 1.39642 198.014 1.55057 198.818 1.715L200.259 2.03102L201.03 2.20829C201.284 2.2661 201.539 2.32776 201.801 2.39328C203.573 2.82491 205.323 3.32205 207.049 3.87315C208.259 4.2611 209.46 4.67732 210.653 5.12179L211.096 5.28751C214.299 6.50408 217.423 7.91992 220.449 9.52673L220.595 9.60766C223.016 10.9076 225.369 12.3315 227.644 13.8739C228.384 14.3697 229.116 14.8836 229.84 15.4154L230.457 15.8663C230.669 16.0166 230.877 16.1746 231.085 16.3249L231.875 16.9299C232.091 17.0918 232.303 17.2575 232.515 17.4232C233.411 18.1298 234.296 18.8543 235.17 19.5968L235.821 20.1556C236.685 20.9084 237.531 21.6792 238.361 22.4679C238.875 22.9561 239.389 23.4571 239.902 23.9709L239.987 24.0595C240.475 24.5503 240.958 25.0448 241.436 25.5433C241.671 25.7938 241.91 26.0443 242.141 26.314C242.6 26.8112 243.055 27.3122 243.498 27.817L243.529 27.8517C243.76 28.1099 243.987 28.372 244.211 28.6225C244.662 29.1428 245.105 29.6746 245.544 30.2103C247.758 32.9113 249.797 35.7509 251.649 38.7118C251.849 39.0317 252.034 39.3554 252.242 39.6753C252.627 40.3112 253.013 40.9509 253.367 41.6022C254.866 44.2311 256.222 46.9392 257.429 49.7145C257.966 50.976 258.472 52.2504 258.947 53.5375C259.491 55.002 259.992 56.4934 260.45 57.9964C261.747 62.2384 262.695 66.5795 263.283 70.9761C263.768 74.6299 264.008 78.3122 264 81.9981Z" fill="#121318"/>
<path d="M211.042 5.29138C209.523 5.60354 208.017 5.95809 206.518 6.33962L205.539 6.65949C186.736 12.8642 169.857 23.7667 150.931 29.6515C141.902 32.4532 132.36 34.1528 122.88 33.5053C120.953 33.3743 118.683 33.1854 116.394 32.8001C116.899 32.1295 117.412 31.4628 117.936 30.8115C122.136 31.4761 126.397 31.6751 130.642 31.405C148.754 30.3452 165.125 22.1558 181.545 14.4096C178.64 15.1803 175.707 15.8368 172.747 16.3789C163.238 18.1007 153.54 18.5414 143.914 17.6892C140.346 17.4107 136.807 16.8501 133.328 16.0127C147.414 5.59265 164.478 -0.0212328 182 6.03492e-05H182.956C183.233 6.03492e-05 183.511 6.03492e-05 183.788 6.03492e-05H184.447L185.133 0.0270372C185.765 0.0270372 186.397 0.0771371 187.025 0.115675L188.474 0.215875L189.218 0.312221L189.746 0.362321C190 0.38159 190.251 0.408567 190.517 0.435544L191.087 0.493351L191.688 0.566574C192.482 0.655213 193.272 0.76312 194.055 0.878735L194.825 0.99435H194.864L195.635 1.12153L196.405 1.25256C197.21 1.39643 198.014 1.55059 198.818 1.71502L200.259 2.03103L201.03 2.20831C201.284 2.26612 201.539 2.32778 201.801 2.39329C203.573 2.82749 205.32 3.32207 207.042 3.87702C208.252 4.26497 209.453 4.68119 210.645 5.12566L211.042 5.29138Z" fill="#FCFCFC"/>
<path d="M245.556 30.1797C240.796 30.831 236.103 31.8176 231.609 33.6057C225.177 36.1608 219.258 39.9723 213.566 43.8647C211.254 45.4524 208.942 47.0942 206.687 48.759C193.083 63.4421 181.765 80.4376 165.148 91.9721C153.587 99.9996 139.744 104.277 126.202 107.619C119.346 109.314 112.232 110.575 105.164 110.652L104.436 108.613V108.594C114.155 108.594 124.04 106.17 133.216 103.53C140.152 101.533 147.062 99.3137 153.59 96.2075C159.383 93.4337 164.806 89.9472 169.734 85.8291C179.01 78.1214 186.713 68.745 194.455 59.5498C195.673 58.111 196.893 56.6735 198.116 55.2373L196.448 56.5207C185.125 65.265 173.753 73.8128 161.379 81.0657C149.34 88.1298 136.595 95.1091 122.919 98.3772C116.136 99.9958 109.157 100.57 102.209 100.925C101.993 100.011 101.792 99.0978 101.607 98.1768C100.622 93.2579 100.088 88.2592 100.012 83.2432C100.012 82.8269 100.012 82.4069 100.012 81.9868C99.995 69.8468 102.685 57.8557 107.885 46.8861C110.131 47.0171 112.379 47.0775 114.629 47.0672C121.687 47.0512 128.727 46.3543 135.651 44.9861C147.444 42.6468 158.492 38.2111 169.179 32.7887C179.484 27.5591 189.457 21.6858 199.966 16.8762C206.579 13.8001 213.471 11.3662 220.549 9.60791C222.986 10.9064 225.354 12.3304 227.644 13.8741C228.384 14.37 229.116 14.8838 229.84 15.4156L230.457 15.8665C230.669 16.0168 230.877 16.1748 231.085 16.3251L231.875 16.9302C232.091 17.0921 232.303 17.2578 232.515 17.4235C233.411 18.13 234.296 18.8545 235.17 19.5971L235.821 20.1559C236.685 20.9086 237.531 21.6794 238.361 22.4682C238.875 22.9563 239.389 23.4573 239.902 23.9712L239.987 24.0598C240.475 24.5505 240.958 25.0451 241.436 25.5435C241.671 25.794 241.91 26.0445 242.141 26.3143C242.6 26.8114 243.055 27.3124 243.498 27.8173L243.529 27.852C243.76 28.1102 243.987 28.3722 244.211 28.6227C244.673 29.1122 245.116 29.644 245.556 30.1797Z" fill="#FCFCFC"/>
<path d="M248.157 130.449C247.722 131.05 247.274 131.64 246.82 132.225C238.06 143.513 226.507 152.32 213.302 157.776C200.098 163.232 185.698 165.149 171.526 163.337C172.158 162.952 172.782 162.586 173.406 162.201C182.913 156.339 191.823 149.606 201.026 143.297C209.928 137.193 219.358 132.295 230.168 130.776C236.133 129.987 242.168 129.878 248.157 130.449Z" fill="#FCFCFC"/>
<path d="M264 81.9984C264.015 93.7526 261.494 105.372 256.608 116.062C244.843 118.556 232.715 118.687 220.769 119.469C214.098 119.901 207.439 120.56 200.895 121.967C194.586 123.323 188.447 125.3 182.281 127.269C176.115 129.239 169.95 131.231 163.656 132.665C157.267 134.122 150.779 135.103 144.245 135.601C136.02 136.228 127.755 136.077 119.558 135.15L108.116 117.612C121.308 118.263 134.572 115.958 147.128 111.858C164.042 106.339 179.437 97.6295 194.22 87.8871C197.56 84.7346 200.784 81.4576 203.893 78.0559C209.728 71.647 215.1 64.8257 221.131 58.594C227.162 52.3624 233.829 46.8283 241.71 43.2404C245.096 41.711 248.627 40.5233 252.25 39.6948C252.635 40.3307 253.02 40.9704 253.375 41.6217C248.001 42.78 242.842 44.7762 238.087 47.5374C223.921 55.8116 214.487 69.8164 203.481 81.6515C210.865 76.5375 218.125 71.2809 225.42 66.1514C231.474 61.8891 237.552 57.5535 244.226 54.3047C248.436 52.273 252.867 50.7329 257.429 49.7148C257.966 50.9763 258.472 52.2506 258.948 53.5378C259.491 55.0023 259.992 56.4937 260.45 57.9967C261.747 62.2387 262.695 66.5798 263.283 70.9764C263.768 74.6302 264.008 78.3125 264 81.9984Z" fill="#FCFCFC"/>
<path d="M250.878 126.525C250.458 127.181 250.022 127.832 249.575 128.472C247.88 128.217 246.176 127.998 244.461 127.836C238.603 127.289 232.706 127.281 226.846 127.813C214.772 128.911 203.319 132.503 192.386 137.659C181.792 142.669 171.529 148.55 160.234 151.891C154.839 153.487 149.213 154.493 143.575 154.447C142.154 153.691 140.759 152.897 139.389 152.065C141.661 152.303 143.948 152.371 146.23 152.269C152.673 151.949 158.982 150.284 165.013 148.057C175.973 144.003 186.039 137.944 196.771 133.362C207.196 128.871 218.313 126.203 229.64 125.473C235.326 125.122 241.031 125.281 246.689 125.947C248.076 126.109 249.471 126.306 250.878 126.525Z" fill="#FCFCFC"/>
<path d="M363.549 10.9487C358.112 -4.46664 304.63 -0.385427 234.157 18.7257C234.499 19.0071 234.835 19.2923 235.17 19.5774L235.821 20.1363C236.659 20.8659 237.478 21.6097 238.28 22.3676C300.383 5.27201 346.369 0.273579 350.477 11.9006C354.428 23.0767 318.576 46.6083 263.295 71.2497C241.691 80.8843 217.119 90.6692 190.794 99.9608C162.701 109.884 135.794 118.101 111.751 124.332C55.6249 138.861 15.0682 142.55 11.2261 131.659C7.22591 120.321 44.1177 96.3073 100.694 71.2959C100.928 69.4975 101.223 67.7054 101.581 65.9198C37.2426 94.681 -4.86709 124.059 0.451059 139.123C5.60349 153.726 53.8483 150.831 118.807 134.252C142.314 128.252 168.054 120.452 194.725 111.041C219.624 102.246 243.009 92.8774 263.981 83.4394C327.44 54.9171 368.825 25.8939 363.549 10.9487Z" fill="#E22D2D"/>
</g>
<defs>
<clipPath id="clip0_61_84">
<rect width="364" height="164" fill="white"/>
</clipPath>
</defs>
</svg>
