<svg width="150" height="96" viewBox="0 0 150 96" fill="none" xmlns="http://www.w3.org/2000/svg">
<g clip-path="url(#clip0_103_808)">
<path d="M91.4833 47.9989C91.501 57.2477 88.8335 66.3026 83.8048 74.0636C83.559 74.4471 83.3042 74.8284 83.0426 75.2028C82.781 75.5773 82.5014 75.9789 82.2218 76.3601C81.9421 76.7414 81.7054 77.0572 81.4393 77.4001C76.3133 84.0074 69.5529 89.1626 61.826 92.3565C54.0991 95.5505 45.6729 96.6726 37.3798 95.612C37.0776 95.5737 36.7799 95.5331 36.4777 95.4879C31.0695 94.6948 25.838 92.9762 21.0125 90.4076C20.1811 89.9655 19.3648 89.5008 18.5635 89.0135C14.1994 86.3498 10.2868 83.0084 6.97246 79.1146C6.64623 78.7326 6.326 78.3453 6.0118 77.9528C3.76393 75.1433 1.84021 72.0891 0.277168 68.848C-0.027266 68.2231 -0.315916 67.5869 -0.591034 66.9485C-0.90073 66.2311 -1.19163 65.5055 -1.46374 64.7715C-1.61258 64.3768 -1.75465 63.9775 -1.88995 63.5782V63.5669C-2.39359 62.1006 -2.82505 60.6041 -3.18436 59.0776C-3.31064 58.543 -3.42791 58.0083 -3.53615 57.4692C-4.11503 54.59 -4.42979 51.664 -4.47652 48.7276C-4.47652 48.4839 -4.47652 48.238 -4.47652 47.9921C-4.48651 40.8858 -2.91263 33.8666 0.13059 27.4454C0.716907 26.2046 1.3596 24.9932 2.0474 23.8111C2.97687 22.2176 3.99709 20.6787 5.10301 19.2023C5.39842 18.8098 5.69835 18.4195 6.00503 18.0382C10.4966 12.4044 16.2006 7.85669 22.6924 4.73359C29.1842 1.61049 36.2965 -0.0075162 43.5 2.62489e-05H44.0593C44.2216 2.62489e-05 44.384 2.62489e-05 44.5464 2.62489e-05H44.932L45.3334 0.0158176C45.7032 0.0158176 46.073 0.0451443 46.4406 0.0677034L47.2885 0.126357L47.7238 0.182754L48.0327 0.212081C48.1815 0.223361 48.3281 0.239152 48.4837 0.254943L48.8175 0.288782L49.1693 0.331644C49.6338 0.384282 50.0953 0.445191 50.5539 0.514372L51.0049 0.582049H51.0274L51.4784 0.656494L51.9295 0.733195C52.4 0.817415 52.8706 0.907652 53.3411 1.0039L54.1845 1.18889L54.6355 1.29266C54.7844 1.3265 54.9332 1.36259 55.0866 1.40094C56.1239 1.6536 57.1477 1.94462 58.158 2.26721C58.866 2.4943 59.5689 2.73794 60.2664 2.99812L60.5258 3.09513C62.4001 3.80727 64.228 4.63605 65.9988 5.57662L66.0845 5.624C67.5014 6.38492 68.878 7.21846 70.209 8.12128C70.642 8.41154 71.0704 8.71233 71.4944 9.02364L71.8552 9.28758C71.9792 9.37556 72.101 9.46806 72.2228 9.55604L72.6851 9.91021C72.8114 10.005 72.9354 10.102 73.0594 10.199C73.5841 10.6126 74.102 11.0367 74.6132 11.4713L74.9943 11.7984C75.4994 12.2391 75.9948 12.6902 76.4804 13.1519C76.781 13.4377 77.0817 13.731 77.3824 14.0318L77.432 14.0836C77.7176 14.3709 78.0003 14.6604 78.2799 14.9522C78.4175 15.0988 78.5573 15.2454 78.6926 15.4033C78.9609 15.6944 79.227 15.9876 79.4864 16.2831L79.5044 16.3034C79.6397 16.4546 79.7728 16.608 79.9035 16.7546C80.1674 17.0592 80.4267 17.3705 80.6838 17.6841C81.9792 19.2651 83.1723 20.9274 84.2558 22.6606C84.3731 22.8478 84.4813 23.0373 84.6031 23.2246C84.8286 23.5968 85.0541 23.9713 85.2616 24.3525C86.1388 25.8914 86.9323 27.4766 87.6384 29.1012C87.9526 29.8396 88.2488 30.5856 88.5269 31.339C88.8449 32.1963 89.1381 33.0693 89.4064 33.9491C90.1653 36.4323 90.7196 38.9734 91.0639 41.547C91.3479 43.6858 91.488 45.8413 91.4833 47.9989Z" fill="#121318"/>
<path d="M60.4942 3.09739C59.6057 3.28012 58.7239 3.48766 57.8467 3.711L57.2739 3.89824C46.2715 7.53024 36.3943 13.9122 25.3196 17.357C20.036 18.997 14.4525 19.9919 8.90501 19.6129C7.77748 19.5362 6.44925 19.4256 5.10974 19.2C5.40515 18.8075 5.70508 18.4172 6.01177 18.036C8.46977 18.425 10.9632 18.5415 13.4467 18.3834C24.0455 17.763 33.6251 12.9692 43.2339 8.43486C41.5336 8.88604 39.8175 9.2703 38.0856 9.58763C32.5209 10.5956 26.8463 10.8535 21.2132 10.3546C19.1256 10.1916 17.0543 9.86347 15.0185 9.37332C23.2616 3.27375 33.2469 -0.0124289 43.5 3.53264e-05H44.0592C44.2216 3.53264e-05 44.384 3.53264e-05 44.5463 3.53264e-05H44.932L45.3334 0.0158267C45.7032 0.0158267 46.073 0.0451534 46.4406 0.0677125L47.2885 0.126366L47.7237 0.182764L48.0327 0.21209C48.1815 0.22337 48.3281 0.239161 48.4837 0.254953L48.8174 0.288791L49.1692 0.331653C49.6338 0.383539 50.0961 0.446704 50.5538 0.514381L51.0048 0.582059H51.0274L51.4784 0.656503L51.9294 0.733204C52.4 0.817425 52.8705 0.907661 53.3411 1.00391L54.1845 1.1889L54.6355 1.29267C54.7843 1.32651 54.9332 1.3626 55.0865 1.40095C56.1239 1.65512 57.1461 1.94462 58.1534 2.26947C58.8615 2.49657 59.5643 2.74021 60.2619 3.00039L60.4942 3.09739Z" fill="#FCFCFC"/>
<path d="M80.6906 17.666C77.9056 18.0473 75.1589 18.6248 72.5295 19.6715C68.7658 21.1672 65.302 23.3983 61.9713 25.6768C60.6182 26.6062 59.2652 27.5672 57.946 28.5418C49.9856 37.1367 43.3625 47.0853 33.6386 53.8372C26.8734 58.5363 18.7732 61.0403 10.8489 62.9962C6.83716 63.9888 2.6743 64.7265 -1.46149 64.7716L-1.8877 63.5782V63.5669C3.79958 63.5669 9.58382 62.148 14.9531 60.6027C19.0123 59.4341 23.0556 58.1347 26.8757 56.3164C30.2651 54.6928 33.4385 52.6519 36.3221 50.2413C41.7501 45.7295 46.258 40.2409 50.7884 34.8583C51.501 34.0161 52.2151 33.1746 52.9307 32.3339L51.9543 33.0851C45.3289 38.2038 38.6742 43.2074 31.4332 47.453C24.3883 51.5881 16.9308 55.6735 8.9276 57.5865C4.95868 58.534 0.874759 58.8701 -3.19112 59.0777C-3.31741 58.543 -3.43467 58.0084 -3.54291 57.4692C-4.11952 54.5899 -4.43202 51.6638 -4.47652 48.7276C-4.47652 48.4839 -4.47652 48.2381 -4.47652 47.9922C-4.48651 40.8858 -2.91263 33.8666 0.13059 27.4454C1.44454 27.5221 2.76 27.5574 4.07696 27.5514C8.20704 27.542 12.3266 27.1341 16.3783 26.3332C23.2788 24.9639 29.7441 22.3673 35.9974 19.1933C42.0275 16.132 47.8636 12.694 54.0131 9.87866C57.8825 8.078 61.9158 6.65325 66.0574 5.62402C67.4835 6.38413 68.8692 7.21768 70.209 8.12131C70.642 8.41157 71.0704 8.71236 71.4944 9.02367L71.8552 9.28761C71.9792 9.37559 72.101 9.46808 72.2228 9.55606L72.6851 9.91024C72.8114 10.005 72.9354 10.102 73.0594 10.199C73.5841 10.6126 74.102 11.0367 74.6132 11.4713L74.9943 11.7984C75.4994 12.2391 75.9948 12.6903 76.4804 13.152C76.781 13.4377 77.0817 13.731 77.3824 14.0318L77.432 14.0837C77.7176 14.3709 78.0003 14.6604 78.2799 14.9522C78.4175 15.0988 78.5573 15.2455 78.6926 15.4034C78.9609 15.6944 79.227 15.9876 79.4864 16.2832L79.5044 16.3035C79.6397 16.4546 79.7728 16.608 79.9035 16.7547C80.1742 17.0412 80.4335 17.3525 80.6906 17.666Z" fill="#FCFCFC"/>
<path d="M82.2127 76.3603C81.9579 76.7122 81.6963 77.0574 81.4302 77.4003C76.3043 84.0076 69.5439 89.1628 61.817 92.3567C54.09 95.5506 45.6638 96.6727 37.3707 95.6122C37.7406 95.3866 38.1059 95.1723 38.4712 94.9467C44.0344 91.5155 49.2482 87.5744 54.6333 83.8815C59.8425 80.3081 65.3606 77.4409 71.6861 76.5521C75.1764 76.0903 78.7079 76.0259 82.2127 76.3603Z" fill="#FCFCFC"/>
<path d="M91.4833 47.9989C91.4922 54.8794 90.0169 61.6808 87.1581 67.9388C80.2734 69.3984 73.1767 69.4751 66.186 69.9331C62.2824 70.1857 58.3857 70.5715 54.5566 71.3949C50.865 72.189 47.2727 73.3462 43.6646 74.499C40.0565 75.6518 36.4484 76.8181 32.7659 77.6573C29.0273 78.5102 25.2306 79.0848 21.4071 79.3763C16.5942 79.7431 11.7575 79.6547 6.96116 79.1123L0.265869 68.8457C7.98496 69.227 15.7469 67.8779 23.0939 65.4776C32.9914 62.2472 42.0004 57.1488 50.6508 51.4459C52.6052 49.6006 54.4919 47.6823 56.311 45.6911C59.7252 41.9395 62.8688 37.9466 66.3979 34.2988C69.9271 30.651 73.8284 27.4115 78.44 25.3113C80.4218 24.416 82.4879 23.7208 84.6076 23.2358C84.8331 23.6081 85.0586 23.9825 85.2661 24.3638C82.1211 25.0418 79.1023 26.2103 76.3202 27.8266C68.0306 32.67 62.5102 40.868 56.0697 47.7959C60.3904 44.8023 64.639 41.7252 68.9078 38.7226C72.4505 36.2276 76.0068 33.6897 79.9125 31.788C82.3762 30.5987 84.9686 29.6971 87.6384 29.1012C87.9526 29.8396 88.2488 30.5856 88.5269 31.339C88.8449 32.1963 89.138 33.0693 89.4064 33.9491C90.1653 36.4323 90.7196 38.9734 91.0638 41.547C91.3479 43.6858 91.488 45.8413 91.4833 47.9989Z" fill="#FCFCFC"/>
<path d="M83.8049 74.0638C83.5591 74.4473 83.3042 74.8286 83.0426 75.2031C82.0504 75.0542 81.0537 74.9256 80.0502 74.8308C76.6219 74.5105 73.1714 74.506 69.7423 74.8173C62.6771 75.4602 55.9751 77.5627 49.5775 80.5811C43.3783 83.5138 37.373 86.9563 30.7634 88.9122C27.6064 89.8461 24.314 90.4349 21.0148 90.4079C20.1834 89.9657 19.3671 89.501 18.5658 89.0137C19.8952 89.153 21.2332 89.193 22.5685 89.1333C26.339 88.946 30.0305 87.9715 33.5597 86.6676C39.9731 84.2944 45.8634 80.7481 52.1437 78.0658C58.2436 75.437 64.7491 73.8751 71.3772 73.448C74.7043 73.2425 78.0431 73.3354 81.3536 73.7254C82.1654 73.8202 82.9818 73.9352 83.8049 74.0638Z" fill="#FCFCFC"/>
<path d="M149.736 6.40894C146.554 -2.61468 115.258 -0.225675 74.0201 10.9614C74.2208 11.126 74.417 11.293 74.6132 11.4599L74.9943 11.787C75.4844 12.2141 75.964 12.6495 76.433 13.0932C112.773 3.08599 139.683 0.160084 142.087 6.96615C144.398 13.5083 123.42 27.2828 91.0706 41.7071C78.4287 47.3468 64.0505 53.0746 48.6461 58.5136C32.2067 64.3225 16.4618 69.1321 2.39245 72.7799C-30.4503 81.2846 -54.1827 83.4436 -56.431 77.0684C-58.7717 70.4315 -37.184 56.375 -4.07734 41.7341C-3.94053 40.6814 -3.76765 39.6324 -3.55868 38.5872C-41.207 55.423 -65.8481 72.6197 -62.7361 81.438C-59.7211 89.9857 -31.4899 88.2915 6.52147 78.5866C20.2774 75.0741 35.339 70.5082 50.9463 64.9993C65.5163 59.8513 79.2 54.3672 91.472 48.8425C128.606 32.1465 152.823 15.1573 149.736 6.40894Z" fill="#E22D2D"/>
</g>
<defs>
<clipPath id="clip0_103_808">
<rect width="213" height="96" fill="white" transform="translate(-63)"/>
</clipPath>
</defs>
</svg>
