<svg width="408" height="296" viewBox="0 0 408 296" fill="none" xmlns="http://www.w3.org/2000/svg">
<g clip-path="url(#clip0_61_94)">
<path d="M189.765 228.227L202.256 193.815L183.417 181.949L164.563 170.082L139.055 196.293C137.996 197.381 137.193 198.692 136.706 200.131C136.218 201.57 136.058 203.1 136.237 204.61C136.416 206.119 136.93 207.569 137.741 208.853C138.552 210.137 139.639 211.223 140.923 212.031L157.865 222.702L174.807 233.373C176.091 234.182 177.539 234.692 179.046 234.867C180.552 235.042 182.079 234.877 183.513 234.383C184.948 233.89 186.254 233.081 187.335 232.016C188.417 230.95 189.248 229.656 189.765 228.227Z" fill="#E22D2D"/>
<path d="M180.9 226.116C180.73 226.116 180.563 226.073 180.414 225.993C180.265 225.912 180.138 225.796 180.044 225.655C179.95 225.513 179.892 225.351 179.876 225.182C179.859 225.013 179.884 224.842 179.949 224.685L194.805 189.317C194.911 189.065 195.112 188.865 195.365 188.762C195.618 188.659 195.901 188.66 196.152 188.766C196.404 188.872 196.603 189.074 196.706 189.327C196.809 189.581 196.808 189.865 196.702 190.117L181.842 225.485C181.763 225.671 181.632 225.83 181.465 225.942C181.297 226.054 181.101 226.115 180.9 226.116Z" fill="white"/>
<path d="M175.259 213.425C175.085 213.423 174.913 213.377 174.761 213.291C174.61 213.205 174.482 213.081 174.392 212.931C174.301 212.782 174.25 212.611 174.243 212.437C174.237 212.262 174.275 212.088 174.354 211.932L187.91 184.896C188.033 184.654 188.247 184.471 188.505 184.386C188.763 184.301 189.044 184.322 189.287 184.444C189.529 184.566 189.714 184.779 189.801 185.036C189.887 185.294 189.869 185.576 189.749 185.82L176.173 212.86C176.087 213.029 175.956 213.171 175.795 213.271C175.634 213.371 175.449 213.424 175.259 213.425Z" fill="white"/>
<path d="M164.937 212.448C164.753 212.448 164.572 212.4 164.413 212.306C164.255 212.213 164.124 212.078 164.035 211.916C163.946 211.755 163.903 211.572 163.908 211.388C163.914 211.203 163.97 211.024 164.069 210.868L182.545 181.421C182.615 181.301 182.707 181.196 182.818 181.113C182.928 181.03 183.054 180.97 183.189 180.937C183.323 180.904 183.462 180.898 183.598 180.92C183.735 180.942 183.865 180.992 183.982 181.065C184.099 181.139 184.2 181.236 184.279 181.349C184.358 181.463 184.413 181.591 184.441 181.727C184.47 181.862 184.471 182.002 184.444 182.138C184.417 182.274 184.363 182.403 184.285 182.517L165.797 211.965C165.706 212.112 165.579 212.233 165.429 212.317C165.278 212.401 165.109 212.446 164.937 212.448Z" fill="white"/>
<path d="M145.741 203.974C145.543 203.973 145.35 203.914 145.185 203.806C145.02 203.698 144.889 203.544 144.808 203.364C144.727 203.183 144.699 202.983 144.728 202.788C144.757 202.592 144.842 202.408 144.971 202.259L170.322 173.504C170.412 173.403 170.52 173.32 170.642 173.26C170.763 173.201 170.895 173.166 171.03 173.157C171.165 173.149 171.3 173.167 171.428 173.211C171.555 173.255 171.673 173.324 171.775 173.413C171.876 173.503 171.959 173.612 172.018 173.733C172.077 173.855 172.112 173.987 172.121 174.122C172.129 174.257 172.111 174.393 172.067 174.521C172.023 174.649 171.954 174.767 171.865 174.869L146.514 203.624C146.417 203.734 146.298 203.822 146.165 203.882C146.032 203.943 145.887 203.974 145.741 203.974Z" fill="white"/>
<path d="M159.589 203.55C159.362 203.55 159.142 203.474 158.963 203.335C158.856 203.253 158.766 203.15 158.698 203.033C158.631 202.915 158.587 202.785 158.569 202.651C158.552 202.517 158.561 202.38 158.596 202.249C158.631 202.118 158.692 201.995 158.774 201.888L177.201 177.92C177.367 177.701 177.614 177.558 177.886 177.521C178.02 177.503 178.157 177.511 178.289 177.546C178.42 177.581 178.543 177.642 178.651 177.724C178.759 177.807 178.85 177.91 178.918 178.027C178.987 178.145 179.031 178.275 179.049 178.41C179.067 178.545 179.059 178.682 179.024 178.814C178.989 178.946 178.929 179.069 178.847 179.178L160.403 203.15C160.307 203.275 160.184 203.376 160.043 203.445C159.901 203.515 159.746 203.551 159.589 203.55Z" fill="white"/>
<path d="M260.391 59.1762L224.842 36.7872C221.781 34.8617 216.47 38.8488 214.923 44.242C210.562 59.4401 207.398 86.6655 233.025 102.791C258.651 118.917 281.764 104.272 293.539 93.7203C297.71 90.0094 298.994 83.4577 295.933 81.5322L260.391 59.1762Z" fill="#E22D2D"/>
<path d="M246.387 123.284L250.407 112.712C250.9 111.413 250.612 110.11 249.711 109.541L234.732 100.107L219.753 90.6691C218.848 90.1001 217.552 90.4093 216.597 91.4195L208.838 99.6329C207.464 101.088 207.394 103.319 208.698 104.14L225.566 114.753L242.434 125.362C243.701 126.17 245.675 125.155 246.387 123.284Z" fill="#E22D2D"/>
<path d="M270.35 40.5593L259.166 58.3999L261.605 59.9354L272.789 42.0947L270.35 40.5593Z" fill="#121418"/>
<path d="M271.578 47.8207C275.149 47.8207 278.045 44.9188 278.045 41.3391C278.045 37.7594 275.149 34.8574 271.578 34.8574C268.006 34.8574 265.11 37.7594 265.11 41.3391C265.11 44.9188 268.006 47.8207 271.578 47.8207Z" fill="#121418"/>
<path d="M243.005 95.1757C245.095 95.8231 247.074 96.5116 249.086 97.0023C251.054 97.5124 253.054 97.8898 255.072 98.132C258.981 98.5931 262.939 98.44 266.801 97.6785C270.719 96.8763 274.534 95.6314 278.173 93.9676C280.04 93.143 281.875 92.2276 283.755 91.2628C285.635 90.298 287.458 89.2466 289.4 88.2446L289.593 88.459C288.017 89.8971 286.369 91.254 284.656 92.5245C282.934 93.7834 281.138 94.9386 279.279 95.9839C275.564 98.1127 271.538 99.6432 267.348 100.519C263.133 101.341 258.795 101.303 254.595 100.408C252.502 99.9485 250.458 99.2913 248.49 98.4454C246.54 97.5779 244.657 96.5663 242.857 95.419L243.005 95.1757Z" fill="#121418"/>
<path d="M220.74 191.873L246.901 138.63C249.16 134.037 248.214 128.937 244.692 126.718L225.587 114.687L206.485 102.668C202.963 100.45 197.965 101.81 194.813 105.843L158.301 152.558C154.528 157.387 154.919 164.009 159.124 166.664L183.397 181.957L207.67 197.25C211.911 199.893 218.045 197.373 220.74 191.873Z" fill="#121418"/>
<path d="M233.379 137.526L201.717 117.59C198.99 115.873 195.392 116.696 193.679 119.429L189.558 126.003C187.845 128.735 188.667 132.342 191.393 134.058L223.055 153.995C225.781 155.711 229.38 154.888 231.093 152.156L235.214 145.582C236.927 142.849 236.105 139.243 233.379 137.526Z" fill="white"/>
<path d="M183.561 155.185C187.319 155.185 190.366 152.132 190.366 148.365C190.366 144.599 187.319 141.545 183.561 141.545C179.803 141.545 176.757 144.599 176.757 148.365C176.757 152.132 179.803 155.185 183.561 155.185Z" fill="white"/>
<path d="M183.561 153.024C186.129 153.024 188.21 150.938 188.21 148.365C188.21 145.792 186.129 143.706 183.561 143.706C180.994 143.706 178.912 145.792 178.912 148.365C178.912 150.938 180.994 153.024 183.561 153.024Z" fill="#E22D2D"/>
<path d="M213.569 174.081C217.327 174.081 220.374 171.028 220.374 167.262C220.374 163.495 217.327 160.442 213.569 160.442C209.811 160.442 206.765 163.495 206.765 167.262C206.765 171.028 209.811 174.081 213.569 174.081Z" fill="white"/>
<path d="M213.569 171.921C216.137 171.921 218.218 169.835 218.218 167.262C218.218 164.689 216.137 162.603 213.569 162.603C211.002 162.603 208.92 164.689 208.92 167.262C208.92 169.835 211.002 171.921 213.569 171.921Z" fill="#E22D2D"/>
<path d="M208.39 182.183L172.418 159.533C171.41 158.898 170.08 159.202 169.446 160.213C168.813 161.223 169.117 162.557 170.125 163.192L206.096 185.842C207.104 186.476 208.435 186.172 209.068 185.162C209.702 184.151 209.398 182.818 208.39 182.183Z" fill="#E22D2D"/>
<path d="M243.941 140.072L240.219 146.007L259.046 157.866L262.767 151.931L243.941 140.072Z" fill="#121418"/>
<path d="M222.495 184.599L218.774 190.535L234.976 200.737L238.697 194.801L222.495 184.599Z" fill="#121418"/>
<path d="M405.306 227.832L273.916 145.1C271.19 143.383 267.591 144.207 265.878 146.939L229.912 204.312C228.199 207.044 229.021 210.651 231.747 212.367L363.138 295.099C365.864 296.816 369.462 295.993 371.175 293.26L407.141 235.887C408.854 233.155 408.032 229.549 405.306 227.832Z" fill="#121418"/>
<path d="M265.323 157.405L256.536 171.423C254.14 175.245 255.289 180.289 259.103 182.69L289.49 201.824C293.303 204.225 298.337 203.074 300.732 199.252L309.52 185.234C311.915 181.413 310.766 176.368 306.953 173.967L276.566 154.833C272.753 152.432 267.719 153.584 265.323 157.405Z" fill="#E22D2D"/>
<path d="M293.818 205.784C291.788 205.789 289.798 205.217 288.079 204.135L257.689 184.999C255.258 183.467 253.534 181.03 252.895 178.225C252.256 175.419 252.755 172.474 254.282 170.036L263.07 156.018C264.601 153.584 267.032 151.858 269.831 151.218C272.629 150.578 275.567 151.076 278 152.604L308.386 171.743C310.816 173.276 312.539 175.711 313.179 178.516C313.818 181.32 313.321 184.265 311.797 186.702L303.005 200.721C302.027 202.277 300.671 203.56 299.065 204.449C297.458 205.338 295.653 205.805 293.818 205.805V205.784ZM272.248 156.269C271.32 156.268 270.406 156.503 269.593 156.953C268.78 157.402 268.094 158.05 267.599 158.838L258.812 172.857C258.429 173.467 258.169 174.147 258.049 174.858C257.928 175.569 257.948 176.297 258.108 177C258.268 177.703 258.565 178.367 258.982 178.955C259.398 179.543 259.926 180.043 260.536 180.427L290.922 199.563C292.153 200.336 293.639 200.588 295.055 200.264C296.471 199.94 297.701 199.067 298.475 197.835L307.267 183.816C308.038 182.582 308.289 181.093 307.966 179.674C307.643 178.255 306.772 177.022 305.543 176.246L275.153 157.106C274.283 156.557 273.276 156.267 272.248 156.269Z" fill="#121418"/>
<path d="M309.516 185.23L300.728 199.248C298.333 203.069 299.482 208.114 303.295 210.515L333.682 229.649C337.495 232.05 342.529 230.898 344.925 227.077L353.712 213.059C356.108 209.237 354.959 204.193 351.145 201.792L320.758 182.658C316.945 180.257 311.911 181.408 309.516 185.23Z" fill="#E22D2D"/>
<path d="M338.016 233.608C335.979 233.614 333.982 233.042 332.256 231.959L301.865 212.819C299.436 211.287 297.712 208.85 297.074 206.046C296.435 203.241 296.933 200.297 298.459 197.86L307.251 183.841C308.007 182.634 308.992 181.588 310.152 180.763C311.311 179.938 312.621 179.351 314.008 179.034C315.394 178.716 316.829 178.676 318.23 178.915C319.632 179.155 320.973 179.668 322.177 180.427L352.575 199.563C355.003 201.096 356.725 203.532 357.364 206.336C358.002 209.141 357.505 212.084 355.982 214.522L347.19 228.54C346.214 230.095 344.86 231.375 343.256 232.261C341.651 233.147 339.848 233.611 338.016 233.608ZM316.446 184.13C315.517 184.13 314.604 184.365 313.792 184.815C312.979 185.264 312.292 185.912 311.797 186.698L303.005 200.717C302.622 201.328 302.363 202.008 302.242 202.719C302.121 203.429 302.141 204.157 302.302 204.86C302.462 205.563 302.758 206.228 303.175 206.816C303.591 207.404 304.119 207.904 304.729 208.287L335.115 227.427C336.347 228.2 337.834 228.451 339.25 228.128C340.666 227.804 341.897 226.931 342.673 225.7L351.46 211.681C351.845 211.07 352.105 210.389 352.227 209.677C352.348 208.964 352.328 208.235 352.168 207.531C352.008 206.827 351.711 206.161 351.294 205.572C350.876 204.983 350.347 204.482 349.737 204.098L319.35 184.958C318.481 184.408 317.474 184.115 316.446 184.113V184.13Z" fill="#121418"/>
<path d="M353.71 213.062L344.922 227.08C342.527 230.901 343.676 235.946 347.489 238.347L377.876 257.481C381.69 259.882 386.723 258.73 389.119 254.909L397.906 240.891C400.302 237.069 399.153 232.025 395.339 229.624L364.952 210.49C361.139 208.089 356.106 209.24 353.71 213.062Z" fill="#E22D2D"/>
<path d="M382.197 261.448C380.167 261.452 378.177 260.88 376.458 259.798L346.071 240.659C343.642 239.126 341.92 236.69 341.281 233.885C340.642 231.081 341.14 228.137 342.665 225.7L351.452 211.681C352.208 210.474 353.194 209.428 354.353 208.603C355.513 207.778 356.823 207.19 358.209 206.873C359.595 206.556 361.03 206.516 362.432 206.755C363.834 206.994 365.175 207.508 366.378 208.267L396.769 227.402C399.198 228.936 400.92 231.373 401.559 234.178C402.198 236.983 401.7 239.928 400.175 242.366L391.387 256.384C390.406 257.937 389.049 259.215 387.442 260.101C385.835 260.986 384.03 261.449 382.197 261.448ZM360.639 211.932C359.711 211.933 358.798 212.168 357.985 212.617C357.172 213.066 356.486 213.714 355.99 214.501L347.198 228.52C346.429 229.754 346.178 231.244 346.501 232.663C346.824 234.083 347.694 235.316 348.922 236.094L379.317 255.226C379.926 255.61 380.604 255.87 381.314 255.991C382.023 256.112 382.749 256.091 383.451 255.931C384.152 255.77 384.815 255.473 385.402 255.056C385.989 254.638 386.488 254.109 386.87 253.498L395.658 239.479C396.429 238.246 396.681 236.756 396.358 235.337C396.035 233.918 395.163 232.685 393.934 231.909L363.548 212.769C362.677 212.22 361.668 211.93 360.639 211.932Z" fill="#121418"/>
<path d="M247.857 185.258L239.07 199.276C236.674 203.097 237.823 208.142 241.636 210.543L272.024 229.677C275.837 232.078 280.87 230.926 283.266 227.104L292.053 213.087C294.449 209.265 293.3 204.221 289.487 201.819L259.1 182.686C255.286 180.285 250.253 181.436 247.857 185.258Z" fill="#E22D2D"/>
<path d="M276.354 233.637C274.317 233.644 272.32 233.072 270.594 231.988L240.208 212.848C237.779 211.315 236.057 208.879 235.418 206.074C234.779 203.27 235.277 200.326 236.801 197.889L245.589 183.87C247.118 181.434 249.549 179.706 252.349 179.066C255.149 178.425 258.087 178.925 260.519 180.456L290.922 199.563C293.351 201.096 295.073 203.532 295.712 206.336C296.351 209.141 295.853 212.084 294.328 214.522L285.541 228.541C284.562 230.095 283.206 231.377 281.6 232.265C279.993 233.153 278.189 233.619 276.354 233.62V233.637ZM254.784 184.134C253.855 184.134 252.942 184.37 252.129 184.82C251.316 185.27 250.63 185.919 250.135 186.707L241.348 200.725C240.576 201.959 240.324 203.449 240.647 204.868C240.97 206.287 241.842 207.52 243.071 208.296L273.458 227.431C274.067 227.815 274.745 228.075 275.455 228.196C276.164 228.317 276.89 228.297 277.592 228.136C278.293 227.976 278.956 227.679 279.543 227.261C280.13 226.844 280.629 226.315 281.011 225.704L289.803 211.685C290.578 210.45 290.831 208.957 290.508 207.534C290.185 206.111 289.311 204.876 288.079 204.098L257.689 184.962C256.818 184.417 255.811 184.13 254.784 184.134Z" fill="#121418"/>
<path d="M292.057 213.085L283.27 227.102C280.874 230.924 282.023 235.968 285.836 238.369L316.224 257.503C320.037 259.904 325.07 258.753 327.466 254.931L336.253 240.913C338.649 237.092 337.5 232.047 333.687 229.646L303.299 210.512C299.486 208.111 294.453 209.263 292.057 213.085Z" fill="#E22D2D"/>
<path d="M320.547 261.472C318.517 261.477 316.527 260.905 314.808 259.823L284.418 240.687C281.99 239.153 280.267 236.716 279.629 233.911C278.99 231.107 279.487 228.162 281.011 225.724L289.803 211.705C291.331 209.27 293.762 207.542 296.561 206.901C299.36 206.261 302.298 206.761 304.729 208.291L335.115 227.431C337.546 228.962 339.271 231.398 339.911 234.203C340.551 237.008 340.052 239.953 338.526 242.39L329.734 256.409C328.981 257.618 327.996 258.665 326.836 259.49C325.677 260.315 324.366 260.902 322.979 261.217C322.18 261.391 321.365 261.477 320.547 261.472ZM298.977 211.965C298.562 211.966 298.148 212.013 297.743 212.105C297.041 212.264 296.376 212.561 295.789 212.979C295.201 213.396 294.702 213.926 294.32 214.538L285.533 228.557C284.761 229.79 284.509 231.28 284.832 232.699C285.156 234.119 286.027 235.351 287.256 236.127L317.643 255.267C318.874 256.04 320.36 256.293 321.776 255.969C323.192 255.645 324.422 254.771 325.196 253.539L333.988 239.521C334.371 238.91 334.63 238.23 334.751 237.519C334.872 236.808 334.852 236.08 334.692 235.377C334.531 234.674 334.235 234.01 333.818 233.422C333.402 232.834 332.874 232.334 332.264 231.95L301.874 212.811C301.007 212.261 300.003 211.968 298.977 211.965Z" fill="#121418"/>
<path d="M336.247 240.913L327.46 254.93C325.064 258.752 326.213 263.797 330.026 266.198L360.413 285.331C364.227 287.733 369.26 286.581 371.656 282.759L380.443 268.742C382.839 264.92 381.69 259.875 377.877 257.474L347.489 238.34C343.676 235.939 338.643 237.091 336.247 240.913Z" fill="#E22D2D"/>
<path d="M364.741 289.304C362.704 289.312 360.706 288.74 358.981 287.655L328.594 268.519C326.165 266.987 324.442 264.551 323.802 261.746C323.163 258.942 323.66 255.998 325.184 253.56L333.976 239.541C334.732 238.334 335.717 237.288 336.877 236.463C338.036 235.639 339.346 235.051 340.733 234.734C342.119 234.417 343.554 234.377 344.955 234.616C346.357 234.855 347.698 235.368 348.902 236.127L379.317 255.226C381.746 256.758 383.47 259.194 384.109 261.999C384.747 264.804 384.249 267.748 382.723 270.185L373.931 284.204C372.954 285.76 371.599 287.043 369.992 287.932C368.385 288.821 366.58 289.288 364.745 289.287L364.741 289.304ZM343.175 239.801C342.76 239.801 342.346 239.846 341.941 239.937C341.239 240.096 340.575 240.393 339.988 240.811C339.402 241.228 338.903 241.758 338.522 242.37L329.73 256.388C328.958 257.622 328.707 259.112 329.03 260.531C329.353 261.95 330.225 263.183 331.454 263.959L361.844 283.099C363.075 283.871 364.561 284.122 365.977 283.799C367.393 283.475 368.623 282.602 369.398 281.371L378.185 267.352C378.569 266.742 378.828 266.062 378.949 265.351C379.069 264.64 379.049 263.912 378.889 263.209C378.729 262.506 378.432 261.841 378.016 261.253C377.599 260.665 377.071 260.165 376.462 259.782L346.075 240.642C345.207 240.094 344.201 239.802 343.175 239.801Z" fill="#121418"/>
<path d="M174.988 96.6297L171.268 102.565L190.096 114.421L193.817 108.486L174.988 96.6297Z" fill="#121418"/>
<path d="M146.971 136.18L143.264 142.138L159.529 152.302L163.235 146.344L146.971 136.18Z" fill="#121418"/>
<path d="M2.71146 68.1597L134.102 150.892C136.828 152.608 140.427 151.785 142.139 149.053L178.105 91.68C179.818 88.9477 178.997 85.3412 176.27 83.6246L44.88 0.892452C42.1538 -0.824157 38.5553 -0.000808264 36.8425 2.73145L0.87652 60.1043C-0.836283 62.8365 -0.0147574 66.4431 2.71146 68.1597Z" fill="#121418"/>
<path d="M124.717 68.8629L115.93 82.8805C113.534 86.7022 114.683 91.7467 118.496 94.1478L148.884 113.282C152.697 115.683 157.73 114.531 160.126 110.709L168.913 96.6918C171.309 92.8701 170.16 87.8255 166.347 85.4245L135.959 66.2906C132.146 63.8895 127.113 65.0412 124.717 68.8629Z" fill="#E22D2D"/>
<path d="M153.208 117.223C151.171 117.23 149.173 116.659 147.448 115.573L117.062 96.4376C114.633 94.9039 112.91 92.4672 112.271 89.662C111.633 86.8569 112.13 83.9124 113.655 81.4746L122.443 67.4557C123.198 66.2429 124.186 65.1918 125.348 64.3628C126.511 63.5338 127.825 62.9433 129.216 62.6253C130.607 62.3072 132.047 62.2679 133.453 62.5096C134.859 62.7512 136.204 63.2691 137.41 64.0334L167.796 83.1692C168.999 83.9284 170.041 84.9178 170.863 86.0809C171.684 87.2439 172.269 88.5578 172.583 89.9475C172.898 91.3371 172.936 92.7752 172.695 94.1796C172.455 95.584 171.941 96.9272 171.182 98.1323L162.394 112.151C161.417 113.707 160.061 114.988 158.454 115.875C156.848 116.763 155.042 117.226 153.208 117.223ZM131.65 67.7278C131.235 67.7279 130.821 67.7735 130.416 67.8639C129.714 68.0231 129.051 68.3201 128.464 68.7376C127.877 69.1551 127.379 69.685 126.997 70.2966L118.209 84.3154C117.438 85.5483 117.185 87.0377 117.507 88.4569C117.83 89.8761 118.701 91.1092 119.929 91.8856L150.32 111.025C151.551 111.798 153.037 112.049 154.453 111.726C155.868 111.402 157.098 110.529 157.873 109.298L166.661 95.279C167.044 94.6686 167.303 93.9885 167.424 93.2776C167.545 92.5667 167.524 91.8389 167.364 91.1359C167.204 90.4328 166.907 89.7683 166.491 89.1802C166.074 88.5922 165.546 88.0922 164.937 87.7088L134.53 68.569C133.668 68.0236 132.67 67.7321 131.65 67.7278Z" fill="#121418"/>
<path d="M80.527 41.0308L71.7396 55.0485C69.3439 58.8702 70.493 63.9147 74.3062 66.3158L104.694 85.4497C108.507 87.8507 113.54 86.6991 115.936 82.8774L124.723 68.8597C127.119 65.038 125.97 59.9935 122.157 57.5924L91.7694 38.4585C87.9561 36.0575 82.9228 37.2091 80.527 41.0308Z" fill="#E22D2D"/>
<path d="M109.023 89.3991C106.986 89.4067 104.989 88.8348 103.263 87.7498L72.8766 68.6141C70.4469 67.081 68.7233 64.6446 68.0839 61.8394C67.4445 59.0342 67.9415 56.0893 69.466 53.651L78.2578 39.6322C79.7866 37.1972 82.2172 35.4699 85.0158 34.8298C87.8144 34.1897 90.7521 34.689 93.1836 36.2181L123.574 55.358C126.005 56.8895 127.729 59.3255 128.368 62.1307C129.006 64.9358 128.507 67.8804 126.981 70.317L118.193 84.3358C117.438 85.5443 116.452 86.5912 115.292 87.4163C114.132 88.2414 112.821 88.8284 111.434 89.1435C110.642 89.3166 109.833 89.4023 109.023 89.3991ZM87.4445 39.8919C87.0292 39.8932 86.6153 39.9402 86.2103 40.0321C85.5082 40.1907 84.8444 40.4874 84.2576 40.905C83.6707 41.3226 83.1724 41.8528 82.7915 42.4648L73.9997 56.4837C73.2282 57.717 72.9764 59.2068 73.2995 60.626C73.6227 62.0453 74.4945 63.278 75.7235 64.0538L106.114 83.1896C106.723 83.5735 107.402 83.8335 108.111 83.9544C108.82 84.0754 109.547 84.0551 110.248 83.8947C110.95 83.7342 111.613 83.4368 112.199 83.0194C112.786 82.6019 113.285 82.0727 113.668 81.462L122.455 67.4431C122.838 66.8327 123.098 66.1526 123.218 65.4417C123.339 64.7308 123.319 64.003 123.159 63.3C122.999 62.5969 122.702 61.9324 122.285 61.3444C121.869 60.7563 121.341 60.2563 120.731 59.8729L90.349 40.7372C89.4797 40.1867 88.4728 39.8937 87.4445 39.8919Z" fill="#121418"/>
<path d="M36.3294 13.2008L27.542 27.2184C25.1463 31.0401 26.2954 36.0846 30.1086 38.4857L60.496 57.6196C64.3092 60.0206 69.3426 58.869 71.7383 55.0473L80.5257 41.0297C82.9215 37.208 81.7724 32.1634 77.9591 29.7623L47.5718 10.6285C43.7586 8.22741 38.7252 9.37906 36.3294 13.2008Z" fill="#E22D2D"/>
<path d="M64.8171 61.5636C62.78 61.5721 60.7825 61.0002 59.0574 59.9144L28.6874 40.758C26.2595 39.2243 24.5375 36.7884 23.899 33.9842C23.2604 31.1801 23.7574 28.2365 25.2809 25.7991L34.0727 11.7802C35.6008 9.34436 38.0314 7.61639 40.8304 6.97619C43.6293 6.33598 46.5673 6.83596 48.9985 8.3662L79.4015 27.5061C81.8284 29.0418 83.5486 31.4794 84.1849 34.2844C84.8212 37.0894 84.3215 40.0328 82.7956 42.4691L74.0038 56.488C73.2509 57.6967 72.2661 58.7437 71.1065 59.5683C69.9469 60.3928 68.6356 60.9785 67.2485 61.2915C66.4508 61.4733 65.6352 61.5646 64.8171 61.5636ZM43.2471 12.0606C42.3186 12.0617 41.4054 12.2981 40.5926 12.748C39.7797 13.1978 39.0937 13.8464 38.5982 14.6335L29.8105 28.6523C29.039 29.8857 28.7872 31.3754 29.1103 32.7947C29.4335 34.2139 30.3053 35.4467 31.5343 36.2225L61.9208 55.3582C62.5299 55.7422 63.2084 56.0021 63.9178 56.1231C64.6271 56.2441 65.3533 56.2238 66.0548 56.0633C66.7563 55.9029 67.4193 55.6054 68.0061 55.188C68.5928 54.7706 69.0917 54.2414 69.4742 53.6306L78.266 39.6118C79.0375 38.3784 79.2893 36.8886 78.9662 35.4694C78.643 34.0501 77.7712 32.8174 76.5422 32.0416L46.1516 12.9058C45.2827 12.3543 44.2755 12.0612 43.2471 12.0606Z" fill="#121418"/>
<path d="M107.254 96.7174L98.4669 110.735C96.0712 114.557 97.2203 119.601 101.033 122.002L131.421 141.136C135.234 143.537 140.267 142.386 142.663 138.564L151.451 124.546C153.846 120.725 152.697 115.68 148.884 113.279L118.497 94.1451C114.683 91.744 109.65 92.8957 107.254 96.7174Z" fill="#E22D2D"/>
<path d="M135.739 145.083C133.71 145.087 131.72 144.515 130 143.434L99.6139 124.298C98.4095 123.54 97.3659 122.552 96.5428 121.389C95.7197 120.227 95.1332 118.914 94.8169 117.524C94.5005 116.134 94.4605 114.696 94.6991 113.291C94.9377 111.886 95.4502 110.542 96.2074 109.335L104.995 95.3161C106.525 92.882 108.955 91.1555 111.754 90.5155C114.552 89.8754 117.489 90.3741 119.921 91.9021L150.312 111.042C151.516 111.8 152.559 112.788 153.382 113.95C154.205 115.111 154.792 116.425 155.108 117.814C155.425 119.203 155.465 120.641 155.226 122.046C154.988 123.451 154.475 124.795 153.718 126.001L144.93 140.02C144.176 141.229 143.19 142.276 142.03 143.101C140.87 143.926 139.558 144.513 138.171 144.827C137.372 145.002 136.557 145.088 135.739 145.083ZM114.174 95.6048C113.245 95.6027 112.331 95.8374 111.518 96.2868C110.705 96.7361 110.019 97.3854 109.525 98.1735L100.733 112.192C99.9664 113.422 99.7157 114.905 100.035 116.32C100.355 117.734 101.22 118.964 102.44 119.742L132.831 138.878C133.44 139.262 134.118 139.522 134.828 139.643C135.537 139.764 136.263 139.743 136.965 139.583C137.666 139.422 138.329 139.125 138.916 138.707C139.503 138.29 140.002 137.761 140.384 137.15L149.172 123.131C149.555 122.521 149.814 121.841 149.935 121.13C150.056 120.419 150.036 119.691 149.875 118.988C149.715 118.285 149.419 117.621 149.002 117.032C148.586 116.444 148.058 115.944 147.448 115.561L117.062 96.4253C116.197 95.8792 115.196 95.5878 114.174 95.5842V95.6048Z" fill="#121418"/>
<path d="M63.0608 68.8834L54.2734 82.901C51.8776 86.7227 53.0267 91.7673 56.84 94.1683L87.2273 113.302C91.0405 115.703 96.0739 114.552 98.4696 110.73L107.257 96.7123C109.653 92.8906 108.504 87.846 104.69 85.445L74.3031 66.3111C70.4899 63.91 65.4565 65.0617 63.0608 68.8834Z" fill="#E22D2D"/>
<path d="M91.5503 117.247C89.5133 117.255 87.516 116.683 85.7906 115.598L55.4165 96.4459C52.986 94.9145 51.2619 92.4784 50.6231 89.6732C49.9843 86.8681 50.4832 83.9236 52.01 81.487L60.8018 67.4681C62.3306 65.0331 64.7612 63.3059 67.5598 62.6657C70.3584 62.0256 73.2961 62.525 75.7276 64.0541L106.118 83.1898C108.549 84.7221 110.273 87.1589 110.912 89.9647C111.551 92.7705 111.052 95.7157 109.525 98.1529L100.733 112.172C99.7565 113.728 98.4017 115.01 96.7956 115.898C95.1894 116.786 93.3846 117.25 91.5503 117.247ZM69.9803 67.7691C69.0516 67.7694 68.1382 68.0056 67.3252 68.4555C66.5122 68.9054 65.8263 69.5544 65.3314 70.342L56.5396 84.3608C56.1565 84.9712 55.8972 85.6513 55.7765 86.3622C55.6558 87.0731 55.676 87.8009 55.8361 88.504C55.9962 89.207 56.293 89.8715 56.7095 90.4596C57.126 91.0476 57.654 91.5476 58.2634 91.931L88.654 111.067C89.8847 111.84 91.3711 112.092 92.7872 111.768C94.2033 111.445 95.4334 110.571 96.2074 109.339L104.995 95.3203C105.381 94.7086 105.642 94.0264 105.764 93.313C105.886 92.5997 105.866 91.8692 105.705 91.1637C105.544 90.4581 105.245 89.7915 104.826 89.2021C104.407 88.6127 103.876 88.1122 103.263 87.7295L72.8766 68.5937C72.0096 68.0447 71.0058 67.7518 69.9803 67.7485V67.7691Z" fill="#121418"/>
<path d="M18.8686 41.0587L10.0812 55.0763C7.68548 58.898 8.83458 63.9425 12.6478 66.3436L43.0351 85.4775C46.8484 87.8786 51.8818 86.7269 54.2775 82.9052L63.0649 68.8876C65.4606 65.0659 64.3115 60.0213 60.4983 57.6203L30.111 38.4864C26.2977 36.0853 21.2644 37.237 18.8686 41.0587Z" fill="#E22D2D"/>
<path d="M47.3529 89.4197C45.3228 89.4247 43.3328 88.8529 41.6138 87.7704L11.2232 68.6141C8.79363 67.0819 7.07021 64.6458 6.4315 61.841C5.79279 59.0362 6.29102 56.092 7.81677 53.6551L16.6044 39.6363C18.1347 37.2019 20.5661 35.4753 23.365 34.8352C26.1639 34.1952 29.1019 34.694 31.5344 36.2223L61.9208 55.358C64.3522 56.8896 66.0773 59.3261 66.7169 62.1319C67.3564 64.9378 66.8581 67.8833 65.3314 70.3211L56.5396 84.3399C55.5605 85.8949 54.2047 87.1761 52.5984 88.0643C50.992 88.9525 49.1875 89.4188 47.3529 89.4197ZM25.7829 39.9414C24.8582 39.9357 23.9471 40.1645 23.1343 40.6064C22.3215 41.0483 21.6334 41.689 21.134 42.4689L12.3422 56.4878C11.9567 57.0991 11.6956 57.7807 11.5738 58.4934C11.452 59.2062 11.4719 59.9361 11.6325 60.6411C11.7931 61.3461 12.0911 62.0124 12.5094 62.6016C12.9278 63.1908 13.4582 63.6913 14.0701 64.0744L44.4566 83.2143C45.0657 83.5983 45.7443 83.8582 46.4536 83.9792C47.1629 84.1001 47.8891 84.0798 48.5906 83.9194C49.2921 83.7589 49.9551 83.4615 50.5419 83.0441C51.1286 82.6267 51.6275 82.0975 52.01 81.4867L60.8018 67.4678C61.1849 66.8574 61.4442 66.1773 61.565 65.4664C61.6857 64.7555 61.6654 64.0277 61.5053 63.3247C61.3452 62.6216 61.0485 61.9571 60.632 61.3691C60.2155 60.781 59.6874 60.281 59.078 59.8976L28.6874 40.7578C27.8178 40.209 26.8106 39.9187 25.7829 39.9208V39.9414Z" fill="#121418"/>
</g>
<defs>
<clipPath id="clip0_61_94">
<rect width="408" height="296" fill="white"/>
</clipPath>
</defs>
</svg>
