<svg width="32" height="32" viewBox="0 0 32 32" fill="none" xmlns="http://www.w3.org/2000/svg">
<path d="M16 32C24.8366 32 32 24.8366 32 16C32 7.16344 24.8366 0 16 0C7.16344 0 0 7.16344 0 16C0 24.8366 7.16344 32 16 32Z" fill="#25D366"/>
<path fill-rule="evenodd" clip-rule="evenodd" d="M16.5274 24.9016H16.5235C14.9312 24.9011 13.3666 24.5016 11.9769 23.7436L6.93335 25.0666L8.28309 20.1365C7.45051 18.6937 7.0124 17.057 7.01312 15.3801C7.0152 10.1344 11.2832 5.86664 16.5273 5.86664C19.0724 5.86774 21.4612 6.85855 23.2575 8.65691C25.0537 10.4552 26.0425 12.8455 26.0414 15.3876C26.0393 20.6322 21.773 24.8995 16.5274 24.9016ZM12.2106 22.0212L12.4994 22.1926C13.7135 22.9131 15.1052 23.2943 16.5242 23.2949H16.5274C20.8859 23.2949 24.4333 19.7474 24.435 15.3871C24.4359 13.2741 23.6141 11.2874 22.1211 9.79263C20.6281 8.2979 18.6427 7.47433 16.5305 7.4736C12.1686 7.4736 8.6212 11.0207 8.61947 15.3807C8.61886 16.8749 9.03693 18.3301 9.82851 19.5891L10.0165 19.8883L9.21767 22.8063L12.2106 22.0212ZM20.995 17.436C21.1608 17.5161 21.2727 17.5703 21.3205 17.6501C21.3799 17.7492 21.3799 18.2251 21.1819 18.7805C20.9838 19.3358 20.0341 19.8426 19.5773 19.9109C19.1677 19.9721 18.6494 19.9976 18.08 19.8167C17.7347 19.7071 17.2919 19.5608 16.7248 19.3159C14.4961 18.3536 12.99 16.1936 12.7054 15.7853C12.6854 15.7567 12.6715 15.7367 12.6637 15.7263L12.6618 15.7238C12.536 15.5559 11.693 14.4312 11.693 13.2672C11.693 12.1721 12.2309 11.5982 12.4785 11.334C12.4955 11.3159 12.5111 11.2992 12.525 11.284C12.7429 11.046 13.0005 10.9865 13.159 10.9865C13.3174 10.9865 13.4761 10.9879 13.6146 10.9949C13.6317 10.9958 13.6495 10.9956 13.6678 10.9955C13.8064 10.9947 13.9791 10.9937 14.1495 11.403C14.215 11.5605 14.3109 11.794 14.4121 12.0402C14.6166 12.5382 14.8427 13.0885 14.8824 13.1681C14.9419 13.2871 14.9815 13.4259 14.9022 13.5846C14.8903 13.6084 14.8793 13.6309 14.8688 13.6523C14.8093 13.7738 14.7655 13.8632 14.6645 13.9812C14.6248 14.0275 14.5837 14.0775 14.5427 14.1275C14.4609 14.2271 14.3791 14.3267 14.3079 14.3977C14.1889 14.5162 14.065 14.6448 14.2037 14.8828C14.3424 15.1208 14.8195 15.8992 15.5262 16.5296C16.2859 17.2072 16.9461 17.4936 17.2808 17.6388C17.3462 17.6671 17.3991 17.6901 17.4379 17.7095C17.6756 17.8286 17.8142 17.8087 17.9529 17.6501C18.0916 17.4914 18.5472 16.9559 18.7056 16.7179C18.8641 16.48 19.0226 16.5196 19.2405 16.5989C19.4585 16.6784 20.6272 17.2534 20.8649 17.3724C20.9114 17.3956 20.9547 17.4166 20.995 17.436Z" fill="#FDFDFD"/>
</svg>
