<svg width="413" height="413" viewBox="0 0 413 413" fill="none" xmlns="http://www.w3.org/2000/svg">
<g clip-path="url(#clip0_60_70)">
<path d="M61.257 195.051C89.0321 206.273 104.254 212.202 104.581 212.329C104.116 212.22 69.9192 203.359 72.3459 209.715C74.7727 216.071 151.275 238.716 151.275 238.716C151.275 238.716 125.88 244.813 153.505 251.763C170.851 256.137 227.014 264.465 266.419 270.072C273.629 271.137 280.471 273.933 286.36 278.221C286.589 278.385 286.823 278.55 287.057 278.711C292.201 282.23 298.03 284.124 304.171 284.963C311.305 285.941 318.524 285.835 325.565 287.446C332.513 289.024 339.36 291.398 346.522 291.838C353.932 292.299 361.264 290.478 368.129 287.806C374.207 285.434 379.987 282.193 384.981 277.987C394.795 269.727 400.895 257.342 399.271 244.378C398.447 237.808 395.356 232.209 390.947 227.372C388.676 224.881 386.22 222.561 384.053 219.979C381.989 217.517 380.349 214.73 379.199 211.731C376.961 205.884 376.022 199.545 373.065 193.982C371.676 191.313 369.734 188.971 367.367 187.112C365.001 185.253 362.265 183.92 359.342 183.201C353.206 181.645 346.921 182.128 340.705 182.774C336.264 183.236 331.712 183.746 327.253 183.285C325.471 183.372 323.685 183.271 321.924 182.983L321.583 182.93C320.362 182.953 319.142 182.86 317.939 182.652L317.893 182.723C315.518 182.532 313.129 182.679 310.795 183.157C301.918 184.983 292.698 184.064 284.36 180.522C248.37 165.061 201.056 145.125 184.964 140.128C157.759 131.674 176.242 150.097 176.242 150.097C176.242 150.097 99.1537 129.538 93.7502 133.734C88.3951 137.884 121.845 148.055 122.614 148.29C122.118 148.198 106.058 145.359 76.6319 140.467C46.7468 135.511 66.6914 154.698 66.6914 154.698C13.7816 141.489 -9.30719e-05 148.38 -9.30719e-05 148.38C-9.30719e-05 148.38 8.16116 161.436 60.2114 177.736C60.2114 177.736 33.1699 183.716 61.257 195.051Z" fill="#121418"/>
<path d="M241.978 176.169L241.978 176.169L241.978 176.169L248.601 182.764L239.569 180.355L240.213 177.94C239.569 180.355 239.569 180.355 239.568 180.355L239.566 180.355L239.558 180.352L239.526 180.344L239.396 180.309C239.281 180.279 239.11 180.233 238.887 180.174C238.439 180.056 237.783 179.883 236.944 179.664C235.268 179.226 232.868 178.603 229.973 177.866C224.183 176.391 216.423 174.461 208.534 172.636C200.636 170.808 192.648 169.096 186.388 168.048C183.826 167.619 181.596 167.309 179.801 167.145C181.398 167.958 183.388 168.819 185.523 169.662C188.593 170.875 191.81 171.991 194.269 172.806C195.496 173.213 196.529 173.543 197.254 173.772C197.617 173.886 197.902 173.974 198.096 174.034C198.141 174.048 198.182 174.061 198.217 174.071C198.257 174.083 198.29 174.094 198.316 174.101L198.371 174.118L198.384 174.122L198.387 174.123L198.388 174.123L198.387 174.124L197.223 178.977L197.664 176.516L197.223 178.977L197.223 178.977L197.221 178.977L197.214 178.976L197.187 178.971L197.076 178.951L196.632 178.872C196.238 178.802 195.648 178.698 194.866 178.56C193.301 178.285 190.967 177.877 187.891 177.347C181.74 176.286 172.623 174.735 160.765 172.774C157.892 172.299 155.709 172.13 154.077 172.166C152.42 172.202 151.484 172.448 151 172.677C150.774 172.784 150.681 172.87 150.653 172.9C150.631 172.924 150.631 172.93 150.629 172.935C150.618 172.969 150.564 173.204 150.731 173.76C151.08 174.919 152.049 176.379 153.127 177.699C153.637 178.323 154.121 178.855 154.477 179.23C154.654 179.417 154.798 179.563 154.894 179.66C154.943 179.708 154.979 179.744 155.002 179.767L155.026 179.79L155.029 179.792L155.03 179.793L155.03 179.794L155.03 179.794L161.805 186.295L152.693 184.022C131.834 178.819 118.82 177.609 111.107 177.665C108.707 177.683 106.828 177.822 105.389 178C106.523 178.9 108.053 179.997 110.089 181.26C116.641 185.324 128.377 191.069 148.891 197.493L157.838 200.294L241.978 176.169ZM241.978 176.169L241.977 176.168L241.974 176.165L241.95 176.141C241.928 176.119 241.894 176.084 241.848 176.037C241.757 175.943 241.622 175.802 241.456 175.623C241.122 175.264 240.669 174.758 240.19 174.175C239.216 172.988 238.349 171.73 237.987 170.79C238.446 170.749 239.177 170.759 240.274 170.919C241.765 171.135 243.763 171.602 246.389 172.418C257.035 175.724 285.402 187.488 311.276 198.504C324.176 203.996 336.402 209.279 345.403 213.19C349.904 215.145 353.598 216.757 356.167 217.879C356.947 218.22 357.623 218.516 358.187 218.763L342.37 274.87C341.76 274.787 341.028 274.687 340.183 274.572C337.404 274.191 333.411 273.642 328.55 272.965C318.827 271.612 305.637 269.751 291.763 267.718C263.934 263.64 233.585 258.902 222.773 256.185C220.105 255.514 218.157 254.873 216.771 254.282C215.751 253.847 215.123 253.476 214.752 253.201C215.552 252.585 216.95 251.96 218.403 251.452C219.117 251.203 219.768 251.007 220.24 250.874C220.475 250.808 220.663 250.757 220.79 250.725C220.831 250.714 220.865 250.705 220.892 250.699C220.907 250.695 220.921 250.691 220.932 250.688L220.964 250.68L220.969 250.679L220.97 250.679L220.97 250.679L220.971 250.679L230.047 248.495L221.092 245.851L220.384 248.249C221.092 245.851 221.092 245.851 221.092 245.851L221.09 245.85L221.082 245.848L221.049 245.838L220.921 245.8L220.757 245.752C220.662 245.724 220.548 245.69 220.416 245.65C219.973 245.518 219.322 245.324 218.492 245.075C216.833 244.576 214.46 243.858 211.607 242.98C205.897 241.224 198.27 238.831 190.587 236.282C182.894 233.729 175.186 231.032 169.298 228.667C166.893 227.701 164.832 226.806 163.216 226.013C165.003 226.152 167.149 226.454 169.41 226.847C172.665 227.413 175.993 228.137 178.518 228.723C179.778 229.015 180.832 229.272 181.57 229.455C181.939 229.546 182.229 229.619 182.425 229.669C182.477 229.683 182.522 229.694 182.56 229.704C182.595 229.713 182.625 229.72 182.649 229.727L182.704 229.741L182.718 229.744L182.721 229.745L182.721 229.745L182.722 229.745L184.259 224.997L183.351 227.326M241.978 176.169L183.351 227.326M183.351 227.326L184.259 224.997L184.258 224.996L184.257 224.996L184.25 224.993L184.224 224.983L184.119 224.942L183.699 224.778C183.326 224.632 182.767 224.413 182.027 224.122C180.548 223.54 178.342 222.671 175.44 221.52C169.636 219.219 161.046 215.794 149.909 211.3C147.211 210.211 145.261 209.22 143.888 208.341C142.495 207.448 141.825 206.751 141.533 206.305C141.396 206.097 141.362 205.975 141.354 205.935C141.347 205.904 141.35 205.898 141.351 205.892C141.36 205.856 141.437 205.626 141.871 205.238C142.774 204.429 144.362 203.685 145.97 203.119C146.731 202.851 147.421 202.648 147.92 202.513C148.169 202.445 148.367 202.395 148.5 202.363C148.567 202.347 148.617 202.335 148.648 202.328L148.681 202.32L148.684 202.32L148.685 202.319L148.686 202.319L183.351 227.326Z" fill="#FCFCFC" stroke="#E22D2D" stroke-width="5"/>
<path d="M284.532 261.602L284.541 261.615L284.549 261.629C287.014 265.552 290.239 268.941 294.036 271.596C298.155 274.411 302.873 275.966 307.971 276.663C310.315 276.983 312.651 277.165 315.07 277.354C315.792 277.41 316.522 277.467 317.261 277.528C320.426 277.79 323.703 278.131 326.977 278.875L326.978 278.875C328.911 279.316 330.759 279.799 332.561 280.27C336.783 281.375 340.751 282.413 344.971 282.675C350.976 283.047 357.03 281.573 362.873 279.299L362.882 279.295L362.89 279.292C368.002 277.345 372.761 274.574 376.977 271.089C385.065 264.275 389.944 254.192 388.642 243.817L388.642 243.816C388.001 238.684 385.581 234.228 381.968 230.264C381.296 229.526 380.53 228.733 379.736 227.91C378.426 226.553 377.037 225.113 375.849 223.7L375.847 223.698C373.861 221.327 372.281 218.644 371.174 215.756C370.341 213.607 369.696 211.366 369.088 209.253C368.935 208.722 368.785 208.199 368.634 207.688C367.865 205.072 367.069 202.663 365.9 200.455L365.895 200.447L365.891 200.439C364.836 198.411 363.361 196.632 361.563 195.22C359.765 193.808 357.686 192.796 355.465 192.25L355.457 192.248L355.449 192.246C350.547 191.007 345.426 191.363 339.964 191.932L339.963 191.932C339.833 191.945 339.702 191.959 339.571 191.973C335.892 192.357 331.839 192.78 327.838 192.407C326.163 192.478 324.486 192.378 322.832 192.107L322.754 192.096C322.062 192.101 321.369 192.07 320.681 192.001L319.483 191.902C309.658 191.097 300.447 198.115 293.43 205.884L293.429 205.884C286.252 213.827 280.94 223.387 279.132 233.812L279.132 233.815C277.453 243.413 279.275 253.462 284.532 261.602Z" fill="white" stroke="#E22D2D" stroke-width="5"/>
<path d="M342.78 213.254C343.72 210.451 347.124 207.44 350.23 208.448C352.493 209.181 353.937 211.247 354.862 213.445C357.93 217.424 358.17 225.687 352.486 226.621C345.561 227.753 340.793 219.191 342.78 213.254Z" fill="#1C1531"/>
<path d="M353.67 257.627C355.172 255.833 357.586 254.272 360.014 254.362C362.781 254.461 363.936 257.392 363.581 259.797C363.537 260.099 363.473 260.397 363.388 260.69C363.496 261.863 363.222 263.041 362.608 264.047C361.35 266.289 359.168 268.482 356.434 268.475C353.97 268.465 352.205 266.527 351.773 264.205C351.341 261.882 352.17 259.423 353.67 257.627Z" fill="#1C1531"/>
<path d="M373.303 245.819C373.09 244.176 373.783 242.355 375.657 242.208C376.167 242.163 376.676 242.305 377.088 242.608C377.367 242.761 377.595 242.992 377.746 243.272C378.205 243.933 378.527 244.68 378.692 245.469C378.754 245.743 378.786 246.022 378.79 246.303C378.822 246.589 378.823 246.878 378.791 247.164C378.619 248.693 377.234 250.332 375.561 249.734C374.134 249.224 373.477 247.172 373.303 245.819Z" fill="#1C1531"/>
<path d="M313.52 254.509C316.045 252.942 319.2 251.772 322.204 251.779C323.899 251.76 325.538 252.38 326.794 253.517C327.597 253.713 328.352 254.068 329.014 254.563C330.067 255.303 330.799 256.416 331.06 257.676C331.322 258.936 331.093 260.248 330.421 261.346C329.049 263.682 326.216 264.852 323.732 265.582C321.07 266.395 318.232 266.448 315.542 265.733C313.048 265.029 310.508 263.419 309.874 260.75C309.165 257.84 311.277 255.9 313.52 254.509Z" fill="#1C1531"/>
<path d="M318.705 224.929C319.312 222.668 320.967 220.375 323.217 219.546C325.467 218.717 327.295 220.002 327.905 221.962C328.059 222.172 328.156 222.418 328.188 222.677C328.379 223.925 328.317 225.2 328.005 226.425C327.693 227.649 327.138 228.799 326.373 229.805C324.973 231.596 322.315 233.719 320.134 231.889C318.21 230.322 318.117 227.124 318.705 224.929Z" fill="#1C1531"/>
<path d="M315.895 199.953C315.835 199.595 315.85 199.229 315.939 198.877C316.005 198.481 316.173 198.109 316.426 197.797C316.679 197.486 317.01 197.246 317.384 197.101C317.88 196.889 318.423 196.811 318.958 196.874C319.494 196.937 320.003 197.138 320.437 197.458C320.958 197.832 321.353 198.676 321.039 199.312C320.946 199.508 320.846 199.701 320.744 199.888C320.625 200.508 320.32 201.077 319.869 201.518C319.674 201.693 319.438 201.815 319.184 201.874C318.929 201.932 318.664 201.925 318.412 201.854C317.83 201.912 317.248 201.748 316.781 201.396C316.315 201.044 315.998 200.529 315.895 199.953Z" fill="#1C1531"/>
<path d="M286.739 223.138C287.728 220.733 290.176 218.427 292.977 219.333C293.571 219.524 294.11 219.857 294.547 220.303C294.859 220.35 295.15 220.485 295.388 220.692C295.626 220.899 295.8 221.169 295.89 221.471C296.822 224.453 297.967 227.856 297.906 231.01C297.841 233.827 295.444 235.722 292.822 236.226C289.796 236.813 287.966 233.768 287.021 231.336C286.02 228.785 285.672 225.739 286.739 223.138Z" fill="#1C1531"/>
<path d="M286.945 262.42C286.842 262.22 286.749 262.015 286.668 261.805C286.279 260.795 285.956 259.532 286.589 258.548C286.756 258.283 286.986 258.063 287.257 257.907C287.529 257.752 287.835 257.665 288.148 257.655C288.514 257.605 288.887 257.641 289.236 257.76C289.53 257.791 289.816 257.867 290.086 257.986C291.044 258.408 291.591 259.296 291.852 260.271C291.913 260.403 291.963 260.54 292.003 260.679C292.121 261.097 292.147 261.536 292.079 261.965C292.088 262.526 291.923 263.076 291.607 263.54C291.273 263.966 290.804 264.266 290.277 264.39C289.75 264.514 289.196 264.455 288.708 264.222C288.433 264.101 288.182 263.934 287.964 263.728C287.558 263.385 287.225 262.964 286.982 262.491C286.967 262.459 286.967 262.459 286.945 262.42Z" fill="#1C1531"/>
</g>
<defs>
<clipPath id="clip0_60_70">
<rect width="303.387" height="302.299" fill="white" transform="matrix(-0.872239 0.48908 0.48908 0.872239 264.626 0)"/>
</clipPath>
</defs>
</svg>
