<svg width="285" height="304" viewBox="0 0 285 304" fill="none" xmlns="http://www.w3.org/2000/svg">
<path d="M213.15 214.702L213.166 214.707L213.181 214.713C235.307 222.573 257.885 229.162 280.801 234.448C280.91 234.445 281.018 234.411 281.11 234.349L281.246 234.552L281.11 234.349C281.154 234.32 281.192 234.286 281.224 234.248C281.206 234.107 281.177 233.968 281.137 233.832C266.127 215.988 250.06 199.041 233.019 183.078L233.01 183.069C216.301 167.247 198.975 152.189 181.29 137.809C181.287 137.806 181.284 137.804 181.28 137.801L168.386 127.518L163.407 123.548L169.757 123.071C173.145 122.816 176.521 122.591 179.925 122.365C186.816 121.906 193.826 121.439 201.301 120.702L201.418 120.69L201.536 120.69C201.576 120.689 201.616 120.68 201.654 120.663C201.692 120.646 201.723 120.621 201.747 120.593C201.771 120.565 201.787 120.535 201.795 120.507C201.795 120.506 201.795 120.506 201.795 120.506L201.584 119.86C193.289 107.974 183.171 97.4411 171.587 88.6371L171.574 88.6273L171.561 88.6173C160.068 79.6444 147.529 72.0536 134.205 66.0034C120.421 59.7692 105.797 55.4944 90.7658 53.3063C74.5185 51.0274 57.935 52.182 42.1094 56.6951C36.6131 58.5104 31.5231 61.3732 27.1295 65.1196C22.735 68.8666 19.1243 73.4233 16.5014 78.5285C14.5916 82.6308 13.5106 88.4889 13.626 94.7502C13.7412 101.005 15.0466 107.42 17.6796 112.619C19.8491 116.648 22.2828 120.611 24.6598 124.361L24.6682 124.374L24.6765 124.387C27.05 128.238 29.674 131.931 32.5322 135.444L32.5542 135.471L32.5755 135.499C38.0148 142.578 43.9314 149.286 50.2856 155.577C62.7369 167.873 76.4179 178.893 91.123 188.469L91.1318 188.474L91.1405 188.48C105.708 198.141 121.115 206.518 137.185 213.513L137.192 213.516L137.199 213.519C153.329 220.661 170.248 225.953 187.627 229.293C187.801 229.285 187.973 229.258 188.14 229.21C188.173 229.172 188.195 229.13 188.207 229.088C188.227 229.016 188.219 228.946 188.19 228.888C183.44 220.531 178.427 212.252 173.575 204.474L169.486 197.919L176.64 200.836C188.634 205.725 200.854 210.514 213.15 214.702Z" stroke="#121418" stroke-width="5"/>
<path d="M127.307 192.224C128.194 194.227 129.473 196.034 131.072 197.542C132.446 199.055 134.041 200.356 135.806 201.403C137.556 202.489 139.405 203.408 141.332 204.151C143.455 204.944 145.731 205.267 148.003 205.1C149.092 205.034 150.121 204.566 150.884 203.788C151.647 203.011 152.089 201.981 152.121 200.902C152.175 200.347 152.091 199.788 151.876 199.273C150.99 197.27 149.71 195.463 148.111 193.955C146.737 192.442 145.142 191.14 143.377 190.094C141.628 189.008 139.778 188.088 137.852 187.346C135.729 186.553 133.452 186.229 131.181 186.397C130.091 186.463 129.062 186.931 128.299 187.708C127.536 188.486 127.095 189.516 127.062 190.595C127.009 191.15 127.093 191.709 127.307 192.224Z" fill="#E22D2D"/>
<path d="M129.798 87.7254C130.685 89.7286 131.965 91.5358 133.564 93.0436C136.46 95.9497 139.958 98.2034 143.823 99.6529C145.946 100.446 148.223 100.769 150.494 100.601C151.594 100.566 152.64 100.107 153.41 99.3229C154.179 98.5389 154.611 97.4915 154.612 96.4042C154.666 95.8485 154.582 95.2894 154.368 94.7752C153.481 92.7721 152.201 90.9649 150.602 89.4571C149.229 87.9438 147.633 86.6424 145.869 85.5955C144.119 84.5102 142.269 83.5903 140.343 82.8477C138.22 82.055 135.943 81.7313 133.672 81.8993C132.582 81.9647 131.554 82.4327 130.791 83.2104C130.028 83.988 129.586 85.0183 129.554 86.0964C129.5 86.6521 129.584 87.2112 129.798 87.7254Z" fill="#E22D2D"/>
<path d="M110.449 150.461C112.877 153.197 115.619 155.644 118.62 157.754C121.558 159.859 124.609 161.807 127.759 163.591C130.82 165.367 134.026 166.889 137.344 168.143C140.777 169.529 144.386 170.455 148.075 170.895C148.554 170.972 149.045 170.953 149.518 170.839C149.991 170.724 150.436 170.517 150.828 170.229C151.219 169.941 151.549 169.579 151.796 169.164C152.044 168.748 152.205 168.289 152.269 167.812C152.386 167.299 152.362 166.766 152.199 166.268C152.036 165.771 151.74 165.326 151.342 164.982C148.915 162.246 146.173 159.799 143.172 157.689C137.439 153.406 131.14 149.912 124.447 147.301C121.014 145.914 117.406 144.989 113.717 144.548C113.238 144.471 112.747 144.49 112.274 144.605C111.801 144.719 111.355 144.926 110.964 145.214C110.572 145.502 110.243 145.864 109.995 146.28C109.747 146.695 109.587 147.155 109.522 147.631C109.475 148.142 109.533 148.656 109.692 149.142C109.851 149.629 110.109 150.077 110.449 150.461Z" fill="#E22D2D"/>
<path d="M39.28 82.3356C39.28 82.3356 35.0366 99.3916 35.3827 108.393C35.384 108.907 35.4898 109.415 35.6939 109.887C35.8979 110.358 36.196 110.783 36.5706 111.137L44.8931 120.66C45.5155 121.352 45.9014 122.222 45.9967 123.147L46.6373 128.634C46.7704 129.761 47.3156 130.798 48.1705 131.55C51.0092 134.038 58.4132 139.874 65.7747 141.166C66.3445 141.295 66.9375 141.295 67.5098 141.167L79.5118 138.091C80.034 137.92 80.6404 138.006 81.1626 137.835L91.0425 138.872C91.9795 138.955 92.9219 138.746 93.7377 138.274C100.753 134.344 106.663 128.732 110.916 121.96C115.169 115.188 117.626 107.477 118.059 99.5459C118.046 98.6221 117.752 97.7258 117.216 96.9734L110.721 86.8524C110.258 86.1972 109.638 85.6663 108.915 85.3068C108.192 84.9473 107.389 84.7704 106.577 84.7915C106.003 84.8679 105.421 84.8268 104.866 84.6709C104.311 84.515 103.795 84.2477 103.351 83.8854C102.907 83.5232 102.544 83.0739 102.285 82.5654C102.025 82.0569 101.875 81.5003 101.843 80.93L101.759 80.6727L101.244 71.1567C101.19 70.115 100.763 69.1293 100.04 68.3752C99.3162 67.6211 98.3432 67.1475 97.2938 67.0386C91.1368 66.7763 79.1682 66.4235 71.0742 69.0744C70.5588 69.273 70.0091 69.3675 69.4578 69.3523C68.9065 69.3371 68.3649 69.2126 67.8652 68.986L58.3557 65.5491C57.6638 65.3557 56.9386 65.3013 56.2226 65.389C55.5066 65.4768 54.8144 65.7049 54.1865 66.06C50.0766 69.3999 41.5956 76.1653 39.28 82.3356Z" fill="#E22D2D"/>
<path d="M48.4956 98.117C48.6796 99.5625 49.1369 100.959 49.8436 102.233C50.4488 103.213 51.3097 104.013 52.3369 104.55C53.3561 105.127 54.4659 105.533 55.6219 105.753C57.0288 105.982 58.4767 105.805 59.791 105.242C60.9511 104.814 61.9366 104.017 62.5912 102.977C63.2457 101.936 63.5317 100.713 63.4038 99.5009C63.2198 98.0554 62.7625 96.6593 62.0558 95.385C61.4506 94.4051 60.5897 93.6052 59.5625 93.0683C58.45 92.425 57.207 92.0298 55.9198 91.9104C54.6325 91.7909 53.332 91.9499 52.1083 92.3763C50.943 92.7964 49.952 93.592 49.2962 94.6341C48.6404 95.6761 48.3583 96.9035 48.4956 98.117Z" fill="#FCFCFC"/>
<path d="M90.3818 99.7803C90.3945 100.704 90.6881 101.6 91.2243 102.353C91.6402 102.902 92.0993 103.419 92.5974 103.897C93.2169 104.251 93.8867 104.511 94.5852 104.67C95.5232 104.716 96.4637 104.601 97.3646 104.33C98.1339 103.999 98.7836 103.444 99.2251 102.739C99.6666 102.033 99.8786 101.213 99.8321 100.388C99.8194 99.4644 99.5258 98.5681 98.9896 97.8157C98.5737 97.266 98.1146 96.7497 97.6166 96.2715C96.9971 95.9179 96.3272 95.6574 95.6287 95.4984C94.6907 95.4523 93.7503 95.5675 92.8493 95.839C92.1123 96.2105 91.4917 96.7752 91.0563 97.4708C90.6208 98.1664 90.3874 98.9656 90.3818 99.7803Z" fill="#FCFCFC"/>
<path d="M175.718 165.26C175.902 166.705 176.359 168.101 177.066 169.376C177.671 170.356 178.532 171.155 179.559 171.692C180.578 172.269 181.688 172.676 182.844 172.895C184.251 173.125 185.699 172.948 187.013 172.384C188.173 171.957 189.159 171.159 189.813 170.119C190.468 169.079 190.754 167.856 190.626 166.644C190.442 165.198 189.985 163.802 189.278 162.528C188.673 161.548 187.812 160.748 186.785 160.211C185.765 159.634 184.656 159.228 183.5 159.008C182.093 158.778 180.645 158.956 179.331 159.519C178.141 159.903 177.124 160.691 176.462 161.743C175.801 162.794 175.537 164.041 175.718 165.26Z" fill="#E22D2D"/>
</svg>
