<svg width="184" height="198" viewBox="0 0 184 198" fill="none" xmlns="http://www.w3.org/2000/svg">
<path d="M143.182 127.762C131.476 142.414 115.97 154.311 99.2765 162.762C92.845 166.021 85.9811 169.089 78.8898 170.579C73.7226 171.668 68.5675 171.295 64.1709 168.377C58.7539 164.785 55.0492 158.934 51.9183 153.376C47.3329 145.124 43.2967 136.579 39.836 127.796C35.764 117.608 33.9372 106.426 33.7195 95.4892C33.4862 83.6994 35.0412 71.7672 39.0143 60.6377C42.7331 50.225 48.6818 40.4713 57.427 33.5487C66.9291 26.0229 78.933 22.9149 90.932 23.2898C94.693 23.4236 98.4404 23.8166 102.147 24.4659C130.576 29.4805 159.208 49.8622 160.725 80.925C161.57 98.1678 153.722 114.569 143.182 127.762Z" fill="#FCFCFC"/>
<path d="M165.5 91.3629C167.573 76.0073 163.272 60.5839 153.894 48.3019C144.249 35.6728 130.041 26.896 114.99 22.1969C110.921 20.9393 106.776 19.9438 102.579 19.2164C88.8075 16.8671 74.137 17.719 61.6589 24.4911C50.8333 30.3691 42.799 39.8863 37.4242 50.8512C31.9221 62.0727 29.249 74.6877 28.5999 87.1178C27.9648 99.2375 29.1659 111.639 32.718 123.27C35.1825 131.35 38.8631 139.07 42.5277 146.663C46.0828 154.034 49.9618 161.676 55.5325 167.762C59.7274 172.344 65.0089 175.715 71.298 176.337C78.0817 177.003 84.8942 174.631 91.1162 172.204C108.575 165.396 124.873 154.399 138.123 141.198C151.688 127.684 162.889 110.679 165.5 91.3629ZM143.182 127.762C131.477 142.414 115.971 154.311 99.2766 162.762C92.8451 166.021 85.9813 169.089 78.8899 170.579C73.7227 171.668 68.5676 171.296 64.171 168.377C58.754 164.785 55.0493 158.934 51.9184 153.376C47.333 145.124 43.2968 136.579 39.8361 127.797C35.7642 117.608 33.9373 106.426 33.7197 95.4893C33.4863 83.6994 35.0413 71.7672 39.0144 60.6377C42.7332 50.225 48.6819 40.4713 57.4272 33.5488C66.9292 26.0229 78.9331 22.9149 90.9321 23.2899C94.6931 23.4237 98.4405 23.8166 102.147 24.4659C130.577 29.4806 159.208 49.8622 160.725 80.9251C161.57 98.1679 153.722 114.569 143.182 127.762Z" fill="#E22D2D"/>
<path d="M63.5579 87.1982C52.9055 79.1755 44.3915 92.5395 45.7713 102.654C47.1511 112.769 55.8307 132.851 62.4357 131.904C69.0407 130.957 71.5223 117.622 71.302 105.808C71.1142 95.7246 67.9542 90.5091 63.5579 87.1982Z" fill="#121418"/>
<path d="M57.5601 97.3676C59.0788 100.017 59.4951 102.732 59.8719 105.732C60.2477 108.721 64.8548 107.89 64.4786 104.904C64.0566 101.551 63.5081 98.3693 61.8052 95.3997C60.3163 92.8029 56.0592 94.7514 57.5596 97.369L57.5601 97.3676Z" fill="white"/>
<path d="M120.055 107.894C133.369 108.651 131.236 124.352 123.65 131.183C116.063 138.013 96.4646 147.736 92.0341 142.746C87.6035 137.757 94.3232 125.974 102.123 117.098C108.78 109.522 114.561 107.582 120.055 107.894Z" fill="#121418"/>
<path d="M116.097 115.285C112.879 116.452 110.405 118.526 107.916 120.813C105.702 122.849 108.678 126.463 110.898 124.422C113.119 122.38 115.195 120.572 118.066 119.53C120.901 118.501 118.912 114.263 116.097 115.284L116.097 115.285Z" fill="white"/>
</svg>
