<svg width="236" height="150" viewBox="0 0 236 150" fill="none" xmlns="http://www.w3.org/2000/svg">
<path d="M212.067 24.792C199.942 15.9972 185.302 10.3336 172.003 9.29166C166.703 8.87614 166.348 8.94557 164.552 10.7423C162.357 12.937 162.134 15.5123 163.945 17.7494C164.911 18.9424 166.47 19.4899 170.305 19.9807C177.705 20.9309 184.928 22.9574 191.742 25.9962C203.579 31.46 216.099 42.6334 220.557 51.7102C222.465 55.6009 222.637 56.6053 222.627 63.9453C222.615 72.9553 221.858 75.061 215.578 83.5733C201.125 103.156 177.526 116.34 144.033 123.544C130.503 126.453 115.596 128.026 93.2407 128.901C75.0548 129.613 72.5225 130.421 72.5225 135.512C72.5225 137.545 75.2631 140.515 77.4456 140.847C81.0157 141.389 85.7529 141.344 101.237 140.621C124.678 139.525 141.142 137.2 158.667 132.512C169.346 129.654 186.77 122.234 196.953 116.208C205.309 111.264 207.8 109.317 215.009 102.109C227.777 89.3466 233.313 80.1347 234.773 69.2188C236.991 52.6499 229.048 37.1098 212.067 24.792Z" fill="#121418"/>
<path d="M143.815 94.91C141.642 95.678 139.272 96.8455 138.545 97.5038C135.965 99.8384 137.577 105.292 141.045 105.96C141.616 106.045 142.178 106.183 142.724 106.373C142.997 106.917 152.214 103.352 158.721 100.19C164.933 97.1688 168.824 94.6084 174.961 89.504C186.63 79.7981 191.607 72.6553 193.242 63.2653C195.709 49.1026 185.603 33.9605 177.866 40.2256C175.635 42.0329 175.577 46.1733 177.751 48.4878C183.17 54.2558 182.611 63.853 176.365 72.3012C170.951 79.6237 154.271 91.2095 143.815 94.91Z" fill="#121418"/>
<path d="M220.094 116.544C220.094 114.714 217.567 113.487 215.777 114.445C214.823 114.955 214.209 116.319 213.879 118.651C213.24 122.565 211.74 126.289 209.488 129.554C208.322 131.136 208.375 131.275 210.968 133.651C213.481 135.953 213.688 136.472 214.191 141.736C214.597 145.988 215.063 147.606 216.096 148.361C217.727 149.554 217.661 149.548 219.34 148.649C220.347 148.111 220.796 146.688 221.186 142.811C221.624 138.446 222.066 137.246 224.168 134.732C225.526 133.107 226.637 131.442 226.637 131.033C226.637 130.624 225.669 129.188 224.487 127.841C222.468 125.542 220.094 119.437 220.094 116.544Z" fill="#E22D2D"/>
<path d="M23.819 3.13834C23.819 1.30931 21.2919 0.0818327 19.5016 1.04007C18.5476 1.5494 17.9333 2.91415 17.6037 5.24562C16.9646 9.16026 15.4649 12.8843 13.2126 16.1493C12.0466 17.7308 12.0996 17.8702 14.6929 20.2462C17.2056 22.5475 17.4123 23.0669 17.9153 28.3308C18.3218 32.583 18.7871 34.2011 19.8206 34.9558C21.452 36.1483 21.3857 36.1425 23.0648 35.2436C24.0718 34.7051 24.5207 33.2826 24.9102 29.4057C25.3486 25.0406 25.7911 23.8407 27.8931 21.3258C29.2509 19.7008 30.3613 18.0366 30.3613 17.6275C30.3613 17.2183 29.394 15.782 28.2121 14.4353C26.1902 12.1372 23.819 6.03161 23.819 3.13834Z" fill="#E22D2D"/>
<path d="M29.5479 113.378C23.9299 109.66 16.7622 102.055 14.8982 97.8419C12.8111 93.1249 12.4374 86.4687 13.9972 81.7766C15.8522 76.1888 22.9579 66.0356 29.0879 60.2146C35.0451 54.5563 45.0064 47.2365 51.7459 43.5646C60.0786 39.0257 85.8959 28.7776 95.4232 26.2252C100.621 24.8334 106.345 23.1633 108.143 22.5152C109.941 21.867 115.796 20.2176 121.151 18.8513C126.506 17.4849 131.494 15.8181 132.237 15.146C135.04 12.61 133.509 7.80183 129.511 6.58707C127.807 6.06926 113.512 9.10245 101.237 12.5861C96.8383 13.8343 90.1423 15.6946 86.3549 16.7201C78.6832 18.7983 53.664 28.8672 46.3521 32.8189C28.0024 42.7368 9.45403 61.1495 3.72897 75.1298C-0.309102 84.9916 -0.0785511 94.7674 4.40472 103.796C6.97575 108.974 18.7009 121.273 23.4535 123.777C28.5441 126.459 33.1525 125.591 34.6015 121.676C35.6594 118.817 34.2389 116.485 29.5479 113.378Z" fill="#121418"/>
<path d="M76.909 111.06C81.9627 111.738 87.0519 112.119 92.1502 112.2C102.086 112.295 119.829 109.899 123.038 108.03C127.51 105.424 128.219 100.482 124.473 98.0284C122.768 96.9107 121.778 96.9605 108.777 98.8144C94.0529 100.914 89.6555 100.914 77.3521 98.8144C70.7425 97.6861 67.1321 95.5517 64.0746 90.9651C61.1998 86.653 61.344 81.936 64.5516 75.3964C69.8982 64.4906 87.508 51.7859 105.237 46.0434C113.338 43.4199 119.886 42.6726 128.708 43.3648C137.547 44.0585 142.745 45.6968 145.798 48.749C148.23 51.1812 148.289 51.372 147.987 56.0805C147.692 60.7201 147.553 61.0275 144.522 63.7168C142.785 65.258 138.904 67.7358 135.894 69.2229C131.476 71.406 129.428 71.9789 125.26 72.1872C118.388 72.5344 114.12 71.3779 113.525 69.0072C112.393 64.4948 115.242 61.4568 122.344 59.6071C124.655 59.0056 127.148 57.9673 127.885 57.2995C129.621 55.7297 129.598 52.5693 127.836 50.3947C126.021 48.1554 121.125 48.1904 115.137 50.4864C102.417 55.3624 97.7465 68.7481 105.573 77.8916C108.677 81.5173 111.933 82.8847 120.018 83.9612C125.605 84.7032 126.84 84.6348 132.239 83.2695C143.026 80.5416 154.308 72.7967 158.156 65.4769C159.852 62.2471 160.108 60.9088 160.117 55.1949C160.123 48.9642 159.992 48.4061 157.579 44.4232C153.433 37.5772 147.018 34.0055 135.152 31.9364C116.39 28.6647 96.934 33.5587 77.2509 46.4981C59.5155 58.1581 51 69.5483 50.1785 82.7135C49.8165 88.516 49.932 89.1955 52.042 93.7052C54.8139 99.6274 60.5151 105.505 66.008 108.101C68.3082 109.188 72.9775 110.456 76.9122 111.062L76.909 111.06Z" fill="#121418"/>
<path d="M51.199 120.763C47.9904 119.169 45.0913 119.858 41.818 122.994C36.3119 128.27 38.1658 136.278 45.6309 139.463C48.4658 140.673 50.934 140.381 53.5771 138.524C60.5265 133.64 59.3446 124.812 51.199 120.763Z" fill="#E22D2D"/>
<path d="M156.743 10.0914C154.75 2.61572 144.493 3.96297 144.493 11.701C144.493 13.5607 145.076 14.8418 146.617 16.3856C151.458 21.2277 158.537 16.8271 156.743 10.0914Z" fill="#E22D2D"/>
</svg>
