<svg width="78" height="69" viewBox="0 0 78 69" fill="none" xmlns="http://www.w3.org/2000/svg">
<path d="M78 41.7554V69H50.9084V34.3519C50.9084 22.7039 53.5878 14.0172 58.9466 8.29185C63.7099 3.75107 70.0611 0.987124 78 0V13.03C74.4275 13.4249 71.5496 14.7082 69.3664 16.8798C65.9924 20.0386 64.3054 25.2704 64.3054 32.5751V41.7554H78ZM27.0916 41.7554V69H0V34.3519C0 22.7039 2.67939 14.0172 8.03817 8.29185C12.8015 3.75107 19.1527 0.987124 27.0916 0V13.03C23.5191 13.4249 20.6412 14.7082 18.458 16.8798C15.084 20.0386 13.3969 25.2704 13.3969 32.5751V41.7554H27.0916Z" fill="#30323C"/>
</svg>
