<svg width="204" height="253" viewBox="0 0 204 253" fill="none" xmlns="http://www.w3.org/2000/svg">
<path d="M13.5644 212.778C13.474 212.756 13.474 212.756 13.474 212.756C13.4515 212.847 13.2935 213.096 13.5644 212.778Z" fill="#E22D2D"/>
<path d="M25.7598 202.259L25.8838 201.953C25.8613 202.044 25.8388 202.134 25.7598 202.259Z" fill="#E22D2D"/>
<path d="M26.2325 201.127C26.289 201.093 26.3116 201.002 26.402 201.024C26.402 201.024 26.402 201.024 26.4245 200.934L26.2325 201.127Z" fill="#E22D2D"/>
<path d="M22.2195 203.009L22.1274 202.987L22.162 203.044L22.2195 203.009Z" fill="#E22D2D"/>
<path d="M14.6618 215.891L14.4246 215.88C14.5489 215.959 14.6054 215.925 14.6618 215.891Z" fill="#E22D2D"/>
<path d="M13.6925 216.32C13.6691 216.414 13.6691 216.414 13.6925 216.32V216.32Z" fill="#E22D2D"/>
<path d="M23.4551 210.198C23.4776 210.108 23.4776 210.108 23.5341 210.074C23.5341 210.074 23.4211 210.142 23.4551 210.198Z" fill="#E22D2D"/>
<path d="M9.5199 218.455L9.5989 218.33C9.57636 218.421 9.48597 218.398 9.5199 218.455Z" fill="#E22D2D"/>
<path d="M11.2795 217.547C11.2231 217.581 10.9858 217.57 10.9068 217.695L10.8842 217.786C10.9293 217.604 11.2909 217.694 11.2795 217.547Z" fill="#E22D2D"/>
<path d="M21.7418 211.309L21.5384 211.355L21.5498 211.502L21.7418 211.309Z" fill="#E22D2D"/>
<path d="M34.9596 196.476C34.8692 196.453 34.8692 196.453 34.8128 196.487C34.9032 196.51 34.8581 196.691 34.9596 196.476Z" fill="#E22D2D"/>
<path d="M45.5516 184.305C45.642 184.328 45.608 184.271 45.721 184.203C45.721 184.203 45.721 184.203 45.7435 184.112L45.5516 184.305Z" fill="#E22D2D"/>
<path d="M40.8397 187.842L40.7493 187.82L40.7268 187.91L40.8397 187.842Z" fill="#E22D2D"/>
<path d="M40.9569 192.394C40.9799 192.301 40.9799 192.301 40.9799 192.301C40.9224 192.336 40.9224 192.336 40.9569 192.394Z" fill="#E22D2D"/>
<path d="M33.2831 201.108C33.3057 201.017 33.5769 201.085 33.5429 201.028C33.509 200.972 33.3621 200.983 33.2831 201.108Z" fill="#E22D2D"/>
<path d="M39.8753 193.663L39.7285 193.674L39.7399 193.822L39.8753 193.663Z" fill="#E22D2D"/>
<path d="M71.9408 152.508C71.9067 152.067 71.8953 151.919 71.9631 152.032C71.884 151.772 71.6693 151.286 71.229 150.935C70.7888 150.585 70.2358 150.303 69.8861 150.36C70.3374 150.472 70.7663 150.675 71.1163 151.003C71.4323 151.275 71.8501 151.716 71.9181 152.214C72.0764 152.734 71.9977 153.244 71.7385 153.708C71.4793 154.173 71.2201 154.638 70.9948 155.159C70.7017 155.567 70.9045 155.136 70.9834 155.011C70.3186 156.337 69.496 157.912 70.1724 157.118C70.747 155.77 71.0514 155.51 71.7049 154.037C71.7497 153.471 72.0314 152.916 71.9408 152.508Z" fill="#E22D2D"/>
<path d="M62.4701 170.011C62.7068 169.637 62.887 169.297 62.9884 169.082C62.8306 169.331 62.6165 169.615 62.4701 170.011C62.4926 169.92 62.4926 169.92 62.4701 170.011Z" fill="#E22D2D"/>
<path d="M62.155 170.509C61.9972 170.759 61.8394 171.008 61.6028 171.382C61.7944 171.189 61.9408 170.793 62.155 170.509Z" fill="#E22D2D"/>
<path d="M1.9032 216.504C2.32033 216.175 2.54583 216.039 2.77134 215.903C2.43308 216.107 4.82289 213.818 1.9032 216.504Z" fill="#E22D2D"/>
<path d="M62.4026 169.898C62.3801 169.988 62.2787 170.204 62.1548 170.51C62.3126 170.26 62.3576 170.079 62.5153 169.83C62.5153 169.83 62.4815 169.773 62.4026 169.898Z" fill="#E22D2D"/>
<path d="M15.9062 128.165C17.0565 127.779 18.1165 127.37 19.2667 126.983C18.3195 127.324 17.1128 127.744 15.9062 128.165Z" fill="#E22D2D"/>
<path d="M29.2811 123.713C29.924 123.633 30.5555 123.406 31.221 123.235C31.3676 123.224 31.5367 123.122 31.5931 123.088L29.2811 123.713Z" fill="#E22D2D"/>
<path d="M68.1349 159.735C68.1123 159.826 67.9994 159.894 67.8978 160.11L68.1349 159.735Z" fill="#E22D2D"/>
<path d="M68.7942 158.63L68.1067 159.661C68.2984 159.468 68.1181 159.808 67.9153 160.238C66.9125 162.153 66.3264 162.969 66.1234 163.014L66.9573 161.587C65.8751 162.856 63.7007 167.172 62.0329 170.027L62.3932 168.962C65.3682 163.932 68.3656 158.811 71.3406 153.781C72.8845 151.232 68.9008 148.94 67.357 151.489C67.3345 151.579 67.2217 151.647 67.2331 151.794C67.2781 151.613 67.3231 151.432 67.2553 151.319C67.2778 151.228 67.3342 151.194 67.3906 151.16C67.5259 151.002 67.7739 150.775 68.022 150.548C68.1911 150.446 68.27 150.321 68.4391 150.219C68.6083 150.117 68.7774 150.015 68.9241 150.004C68.1345 150.095 67.4693 150.651 67.1312 151.24C66.8832 151.467 66.3196 152.192 65.1477 154.208L63.4463 157.392L62.7474 158.276L64.2574 155.67C63.3333 157.075 62.8827 158.117 62.2291 159.205C62.0374 159.397 61.7444 159.805 61.35 160.428L59.7613 163.543C59.4908 163.861 60.4147 162.071 59.1525 164.065C58.4089 165.515 60.1783 162.83 58.8261 165.186C57.9019 166.591 58.0144 166.138 57.0567 167.871C56.865 168.064 57.0114 167.668 57.4059 167.044C57.2031 167.475 56.8875 167.973 56.5495 168.563C56.3917 168.812 56.2339 169.061 56.0762 169.31C56.0537 169.401 55.9409 169.469 55.9184 169.56C55.8845 169.503 55.7942 169.48 55.7604 169.424L55.6701 169.401C55.5798 169.379 55.5798 169.379 55.4896 169.356C55.3993 169.334 55.3091 169.311 55.1285 169.266C54.6772 169.154 54.3501 169.12 54.1245 169.256C53.8312 169.279 53.538 169.302 53.2222 169.416C53.1658 169.45 53.053 169.518 52.9966 169.552L52.7372 169.632C52.5681 169.734 52.5117 169.768 52.3425 169.87C51.7787 170.21 51.1924 170.641 50.6849 170.948C49.6475 171.651 48.7793 172.252 48.7679 172.105C48.3507 172.434 46.2987 174.134 45.0585 175.268C46.1521 174.146 44.9344 175.189 43.5815 176.391C42.1721 177.627 40.6614 179.078 40.8981 178.704C40.1992 179.588 38.7449 181.005 37.3472 182.772C36.6483 183.656 35.8931 184.574 35.1942 185.458C34.8787 185.957 34.5518 186.308 34.2362 186.807C34.0785 187.056 33.9207 187.305 33.8193 187.52C33.8982 187.396 33.9657 187.124 34.0785 187.056C33.9996 187.18 33.9432 187.214 33.8868 187.248C33.8643 187.339 33.8304 187.283 33.8079 187.373L33.8304 187.283C33.8529 187.192 33.7965 187.226 33.819 187.135L33.7852 187.079L33.7513 187.022L33.7174 186.966L33.5933 186.887C33.5594 186.83 33.4691 186.808 33.4014 186.694C33.2772 186.615 33.2095 186.502 33.0853 186.423C32.5888 186.107 32.0922 185.791 31.359 185.848C31.3026 185.882 30.9529 185.939 30.468 186.155C30.0394 186.337 29.487 186.824 29.1601 187.176C28.3371 187.98 27.4352 188.91 26.7814 189.613C24.7293 191.313 27.7732 188.321 27.0967 188.729C27.2997 188.684 23.8161 192.096 24.5715 191.563C23.027 192.957 23.2525 192.821 22.4181 193.479C22.3056 193.932 21.054 194.918 19.9719 196.187C17.8073 198.341 19.2614 196.539 17.0068 199.055C15.8794 200.121 17.8071 197.956 17.8071 197.956C15.5186 200.416 16.8716 199.214 16.4208 199.871C13.704 202.897 15.0453 201.164 14.087 202.127C12.4638 204.031 11.3141 205.572 10.0742 207.091C9.99533 207.215 9.69091 207.476 9.92757 207.102C9.12732 208.201 7.81964 209.607 6.65884 211.386C6.3658 211.793 6.01637 212.235 5.81359 212.666L5.57693 213.04C5.55442 213.13 5.55442 213.13 5.55442 213.13L5.47554 213.255C5.28388 213.448 5.11473 213.55 4.95696 213.799C4.30312 214.502 3.67178 215.114 3.1307 215.749C2.93905 215.941 2.88266 215.975 2.82628 216.009C3.24347 215.68 3.36761 215.76 3.3451 215.85C2.27407 216.882 1.37219 217.811 0.830874 218.061C1.49609 217.505 1.5411 217.324 1.81164 217.007L0.684225 218.072C-0.465932 218.844 2.2852 216.644 2.18357 216.474C-0.0148669 218.571 -2.81101 220.952 -4.71665 222.257C-4.97606 222.336 -3.85978 221.509 -2.99154 220.907C-2.12329 220.306 -1.6611 219.796 -2.85627 220.749C-1.87525 220.08 -0.962 219.297 -0.0148674 218.571C-2.28131 220.171 1.67636 217.165 -0.454803 218.606C-2.31519 220.114 -3.34121 220.964 -4.43498 221.702C-5.55126 222.53 -6.55478 223.289 -8.61844 224.458C-9.48668 225.059 -8.26876 224.401 -9.10313 225.059C-12.0012 226.885 -13.3096 227.136 -14.3811 227.398C-14.8999 227.557 -15.3962 227.626 -15.9828 227.672C-16.6258 227.752 -17.4379 227.934 -18.5321 227.901C-19.1526 227.891 -19.5361 227.891 -20.1116 227.7C-20.3599 227.542 -20.6081 227.384 -20.71 226.829C-20.8005 226.422 -20.6205 225.697 -20.2938 224.961C-20.3838 225.323 -20.44 225.742 -20.4736 226.07C-20.2824 225.108 -19.8994 224.337 -19.6627 223.964C-19.4036 223.499 -19.3135 223.137 -19.1896 222.831C-18.9419 222.219 -18.5813 221.54 -17.1386 219.591C-17.6119 220.338 -19.0544 222.672 -18.7163 222.083C-17.8711 220.803 -17.5216 220.361 -17.3189 219.931C-17.1836 219.772 -17.1161 219.5 -16.9583 219.251C-16.8794 219.126 -16.7442 218.968 -16.6428 218.752C-16.5639 218.628 -16.5639 218.628 -16.5075 218.594C-16.4511 218.56 -16.3158 218.401 -16.2031 218.333L-15.6843 218.174C-11.6024 215.248 -7.41948 211.721 -3.37203 207.969C-3.56368 208.162 -4.18365 208.921 -3.24789 208.048C-0.688651 205.656 1.9381 202.992 4.4182 200.34L5.34259 199.32L5.80478 198.81C5.99643 198.617 6.18808 198.425 6.31197 198.119C6.94307 197.122 6.66018 195.753 6.00536 194.916C5.37304 193.988 4.04162 193.56 3.00399 193.878C2.74457 193.958 2.51905 194.094 2.25963 194.174L1.69581 194.514C1.32363 194.662 0.928953 194.9 0.590657 195.104C-0.108439 195.603 -0.785032 196.012 -1.56302 196.635C-2.03658 196.998 -2.52153 197.214 -1.99158 196.817C-4.21301 198.235 -2.01408 196.908 -3.07398 197.701C-4.3369 198.541 -4.73158 198.779 -4.00998 198.189C-5.84786 199.607 -8.46373 201.648 -10.8877 203.881C-13.3117 206.115 -15.6565 208.608 -17.2572 210.422C-17.0656 210.229 -16.8853 209.889 -16.6936 209.696C-17.9675 211.158 -18.5197 212.031 -19.1621 212.881C-19.4552 213.289 -19.7482 213.696 -20.1202 214.229C-20.199 214.354 -20.3118 214.422 -20.3907 214.546C-20.4471 214.58 -20.4696 214.671 -20.5823 214.739L-20.6387 214.773C-20.6387 214.773 -20.6612 214.864 -20.6951 214.807C-21.0334 215.011 -21.3153 215.181 -21.6761 215.476L-21.1462 215.079C-24.5064 217.416 -28.1713 219.628 -31.7686 221.569C-33.5504 222.567 -35.2871 223.385 -36.9336 224.225C-38.5462 225.121 -40.046 225.949 -41.4897 226.359C-41.7152 226.495 -42.3129 226.779 -43.1025 226.87C-43.8019 226.985 -44.727 226.85 -45.2463 226.239C-45.6753 225.651 -45.8339 224.746 -45.8005 224.033C-45.7332 223.376 -45.6884 222.81 -45.7562 222.697C-45.4861 221.61 -45.1595 220.874 -44.9681 220.296C-44.7767 219.718 -44.54 219.345 -44.3147 218.824C-44.1458 218.337 -43.8641 217.781 -43.4472 217.068C-43.3008 216.671 -43.0416 216.207 -42.6922 215.765C-42.5344 215.516 -42.3767 215.266 -42.1964 214.927C-41.9822 214.643 -41.8583 214.337 -41.6217 213.964C-40.7314 212.502 -40.3822 211.675 -39.1312 209.919L-39.0409 209.941C-38.5112 209.16 -37.8687 208.31 -37.3051 207.585C-36.9218 207.199 -36.5047 206.87 -36.1777 206.519C-35.7155 206.009 -35.3097 205.533 -34.8475 205.023C-35.3661 205.567 -36.0538 206.213 -35.975 206.089C-34.9492 204.853 -33.5512 203.47 -32.4463 202.495C-31.3189 201.43 -30.462 200.681 -30.3718 200.704C-29.4924 199.865 -28.5567 198.992 -27.6209 198.119C-26.7415 197.28 -25.738 196.521 -24.7684 195.704C-24.8473 195.829 -25.3997 196.316 -26.0085 196.838C-23.8776 195.013 -25.7153 196.815 -23.1446 194.57C-23.5618 194.899 -22.9869 194.321 -22.9305 194.287C-22.6261 194.026 -22.0622 193.686 -21.5098 193.198C-21.2618 192.971 -20.9235 192.767 -20.6754 192.54L-20.619 192.506L-20.5627 192.472L-20.3371 192.336C-20.168 192.234 -19.965 192.189 -19.7958 192.087C-18.3524 191.292 -16.7398 190.396 -15.4768 189.556L-15.9165 189.976C-11.0337 187.105 -5.9709 183.51 -1.07747 179.632C-2.91535 181.049 -2.5998 180.551 -1.1566 179.372L-1.1791 179.462L-0.806929 179.315L-0.784425 179.224C-0.728045 179.19 -0.52502 179.144 -0.412252 179.076C0.0724462 178.476 -0.389748 178.986 -0.671658 179.156C-0.728045 179.19 -0.728038 179.19 -0.840806 179.258C-0.818304 179.167 -0.784425 179.224 -0.649156 179.065C-0.592769 179.031 -0.513886 178.907 -0.457505 178.873C-0.378616 178.748 -0.265848 178.68 -0.164457 178.465C0.263854 177.898 0.252233 177.366 0.229486 177.072C0.20674 176.777 0.195361 176.63 0.263118 176.743C0.353378 176.766 0.342248 177.004 0.421381 177.264C0.432758 177.411 0.387747 177.592 0.399124 177.739C0.489138 177.377 0.477517 176.845 0.364512 176.528C0.172366 175.951 -0.132535 175.442 -0.572712 175.092C-0.674348 174.922 -0.132537 175.442 0.059358 175.634C-0.143913 175.295 -0.493831 174.967 -1.05815 174.538C-1.64496 174.199 -2.45732 173.996 -3.38219 174.247C-3.6416 174.326 -3.75437 174.394 -3.9799 174.53C-4.14904 174.633 -4.31819 174.735 -4.37458 174.769C-4.60011 174.905 -4.9384 175.109 -5.16393 175.245C-5.6375 175.608 -6.14494 175.914 -6.48324 176.119L-6.62989 176.13C-11.9185 179.477 -14.3316 181.087 -18.5375 183.934C-18.4923 184.138 -20.2063 185.25 -21.4014 186.202C-22.1569 186.735 -22.9688 187.302 -23.7806 187.869C-24.1753 188.108 -24.6039 188.289 -24.9986 188.528C-25.4835 188.743 -25.9345 189.016 -26.3631 189.197C-28.2126 190.083 -30.2088 190.98 -32.2613 191.911C-35.1145 193.171 -33.0506 192.387 -34.3588 193.023C-34.4491 193.001 -35.5995 193.387 -36.4341 193.66C-37.2687 193.933 -37.7875 194.092 -36.7274 193.683C-37.3251 193.967 -37.8778 194.069 -38.3741 194.138C-38.6335 194.217 -38.8704 194.206 -39.0509 194.161C-39.1412 194.139 -39.2315 194.116 -39.3217 194.094C-39.412 194.071 -39.412 194.071 -39.412 194.071C-39.412 194.071 -39.5022 194.049 -39.4459 194.015C-39.4234 193.924 -39.4234 193.924 -39.4572 193.868C-39.5025 193.664 -39.4011 193.449 -39.3561 193.267C-39.3 192.849 -39.131 192.362 -39.041 191.999C-38.7482 191.206 -38.3202 190.255 -37.7455 189.292C-37.1144 188.295 -36.3819 187.083 -35.4916 185.621C-35.9763 186.222 -36.4271 186.879 -36.1905 186.505C-35.503 185.474 -34.6014 184.16 -34.6464 184.341L-34.8605 184.624C-32.7756 181.44 -30.0365 177.939 -27.1168 174.867C-24.2308 171.739 -21.2544 169.018 -19.056 166.921L-19.304 167.148C-17.7933 165.697 -16.1584 164.325 -14.5236 162.953C-12.1783 161.229 -15.8202 164.121 -14.1175 162.862C-13.4184 162.363 -12.8435 161.785 -12.1669 161.376C-11.8625 161.115 -11.5806 160.945 -11.2423 160.741C-11.1859 160.707 -11.1859 160.707 -11.1634 160.616L-10.904 160.537C-10.7573 160.525 -10.5318 160.389 -10.3852 160.378C-8.97534 159.912 -7.77993 159.344 -6.65227 158.663C-5.52462 157.983 -4.4986 157.132 -3.56284 156.259C-3.10065 155.749 -2.63846 155.239 -2.23265 154.763C-1.74795 154.163 -1.43265 153.279 -1.55728 152.43C-1.58027 151.751 -1.96431 150.982 -2.68665 150.417C-3.09295 150.123 -3.57813 149.954 -4.08582 149.876C-4.61602 149.888 -5.20259 149.934 -5.65365 150.206C-7.26625 151.102 -8.90134 152.089 -10.6717 153.235C-11.5738 153.78 -12.3857 154.347 -13.2201 155.004L-13.5584 155.209L-13.7275 155.311L-13.9869 155.39L-14.3366 155.447C-14.8329 155.516 -15.2728 155.551 -15.7128 155.585C-16.1527 155.62 -16.5701 155.564 -17.0439 155.542C-17.2245 155.497 -17.5178 155.52 -17.6983 155.475L-17.7885 155.452L-17.8788 155.43C-17.9691 155.407 -17.9127 155.373 -17.8563 155.339C-17.8563 155.339 -17.8563 155.339 -17.8338 155.248L-17.676 154.999C-17.5407 154.84 -17.5521 154.693 -17.4169 154.535L-17.631 154.818C-17.4171 154.15 -16.9999 153.821 -16.8196 153.481C-16.583 153.107 -16.3349 152.88 -16.0419 152.473C-16.211 152.575 -16.9999 153.821 -16.5041 152.983C-14.7911 150.331 -12.3332 148.155 -9.67211 146.317C-7.011 144.48 -3.99996 142.97 -0.977552 141.608C2.04485 140.245 5.20277 139.109 8.32682 137.916C11.4509 136.723 14.5749 135.531 17.6764 134.428C22.1878 132.86 20.0784 133.055 25.932 131.293L24.3306 131.952C28.9547 130.315 33.6805 128.849 38.5078 127.552C40.9103 126.948 43.2789 126.289 45.6813 125.685C46.8656 125.356 48.0274 125.116 49.2116 124.786C49.7643 124.684 50.3734 124.547 50.9486 124.354L51.8171 124.138C52.0765 124.058 52.3698 124.035 52.742 123.887C52.5728 123.99 52.4262 124.001 52.3698 124.035C52.3134 124.069 52.2232 124.047 52.1104 124.115C51.9412 124.217 51.7043 124.206 51.2419 124.331C51.5013 124.251 51.7946 124.228 52.1104 124.115C52.1668 124.081 52.257 124.103 52.3698 124.035C52.4262 124.001 52.6292 123.955 52.742 123.887C52.8886 123.876 53.0014 123.808 53.1141 123.74C53.1705 123.706 53.3397 123.604 53.4525 123.536C53.5991 123.524 53.678 123.399 53.7569 123.275C53.8358 123.15 53.9485 123.082 54.0274 122.957C54.2191 122.765 54.3429 122.459 54.4105 122.187C54.6019 121.61 54.5903 121.078 54.432 120.557C54.2057 119.539 53.472 118.826 52.8852 118.488C52.603 118.273 52.2759 118.239 52.0953 118.194C51.9148 118.149 51.7682 118.161 51.7682 118.161C51.2944 118.139 51.0913 118.184 50.9108 118.139C50.7642 118.151 50.7078 118.185 50.7078 118.185C50.7078 118.185 50.7303 118.094 50.2679 118.219C48.2601 118.584 45.3502 119.494 44.3012 119.665C44.1546 119.677 44.5606 119.585 44.82 119.506C43.1394 119.904 39.3497 120.883 40.4889 120.734C36.9811 121.543 33.8457 122.588 31.0711 123.339C29.323 124.009 25.1272 125.079 24.6536 125.442C24.7325 125.317 23.2324 125.761 21.4504 126.375C19.6684 126.988 17.5481 127.806 16.5444 128.181C17.1985 127.863 14.706 128.829 15.439 128.386C12.969 129.261 10.7699 130.204 11.2662 130.135C6.72095 131.647 2.46949 133.905 -0.180984 134.735C-3.68833 136.314 -7.10542 137.914 -10.2065 139.786C-13.3075 141.658 -16.2392 143.813 -18.6065 146.397C-18.6518 146.193 -17.2538 144.811 -15.7204 143.654C-14.2772 142.475 -12.7323 141.465 -12.9128 141.42C-15.5965 143.348 -17.671 145.139 -19.3731 147.168C-21.0189 149.162 -22.5855 151.417 -23.8244 154.475C-24.1172 155.268 -24.0158 155.053 -23.8808 154.509C-23.7458 153.966 -23.3852 153.286 -23.2952 152.924C-23.498 153.354 -23.7008 153.785 -23.9036 154.215C-24.1063 154.646 -24.2189 155.099 -24.3653 155.495L-24.613 156.107L-24.7031 156.469C-24.7256 156.559 -24.7706 156.741 -24.7931 156.831C-24.8717 157.341 -24.736 157.952 -24.4649 158.404C-24.2503 158.891 -23.889 159.366 -23.3361 159.648C-22.9073 159.851 -22.5123 159.998 -22.1174 160.144L-21.5081 160.393L-21.0568 160.505C-20.9665 160.528 -20.786 160.573 -20.6957 160.595C-20.7182 160.686 -20.8874 160.788 -20.9438 160.822L-21.4737 161.219C-22.0037 161.616 -22.5222 162.16 -22.9958 162.523C-24.0443 163.464 -24.9801 164.337 -25.882 165.266C-25.882 165.266 -25.4198 164.756 -25.0026 164.427C-25.882 165.266 -26.9869 166.241 -26.7838 166.196L-25.9608 165.391C-25.2054 164.858 -26.0284 165.663 -26.9528 166.683C-27.8771 167.703 -29.0496 168.949 -29.0382 169.097C-28.5085 168.315 -29.5231 169.312 -30.425 170.242C-31.3269 171.171 -32.0821 172.089 -31.2143 170.718C-31.699 171.319 -32.319 172.078 -32.1499 171.976C-32.8826 172.803 -33.187 173.064 -32.4882 172.18C-33.8409 173.767 -34.1789 174.356 -34.5847 174.832C-34.9003 175.331 -35.3061 175.806 -36.3994 177.314C-36.4896 177.291 -35.9485 176.656 -35.7683 176.317C-36.8277 177.88 -37.8871 179.444 -39.7806 182.05C-39.7581 181.959 -39.8709 182.027 -39.6567 181.744C-41.0881 183.84 -42.3052 185.653 -43.2966 187.715C-43.86 188.825 -44.2428 189.98 -44.5917 191.192C-44.9068 192.46 -45.0638 193.864 -44.6793 195.403C-44.8942 194.531 -44.939 195.098 -44.7354 195.822C-44.5886 196.195 -44.4642 196.659 -44.3173 197.032C-44.5767 197.112 -44.4073 197.395 -44.3734 197.451C-44.046 197.87 -43.5381 198.333 -43.1318 198.627C-42.6352 198.943 -42.1387 199.26 -41.5407 199.361C-41.7212 199.316 -41.9695 199.157 -42.15 199.112C-42.308 198.977 -42.5788 198.909 -42.7369 198.774C-41.7437 199.406 -40.672 199.529 -39.6905 199.63C-39.3972 199.607 -39.1603 199.618 -38.9234 199.629C-38.7767 199.617 -38.664 199.549 -38.4834 199.594C-38.224 199.515 -37.9307 199.492 -37.6149 199.378L-37.4683 199.366L-37.5472 199.491L-37.8291 199.661L-38.2688 200.081L-37.9757 199.673L-37.8405 199.514L-37.7841 199.48C-37.7841 199.48 -37.8405 199.514 -37.9307 199.492C-37.6713 199.412 -37.9532 199.582 -37.9532 199.582L-38.111 199.831L-38.5732 200.341L-39.4187 201.237L-40.2303 202.189L-39.1932 201.101L-38.6746 200.557L-38.2913 200.171C-38.5957 200.432 -38.8888 200.84 -38.8774 200.987C-38.9563 201.112 -38.8999 201.078 -38.9224 201.168C-38.9449 201.259 -39.0577 201.327 -40.2751 202.755C-39.7904 202.154 -42.09 204.852 -43.0594 206.053C-43.8257 207.208 -44.6485 208.398 -45.8432 210.12C-46.2265 210.506 -45.8209 209.645 -46.0351 209.928C-46.2828 210.54 -47.207 211.945 -48.0634 213.463C-48.9197 214.981 -49.5956 216.544 -49.8545 217.393C-49.6631 216.816 -49.7873 216.737 -49.8323 216.918C-49.9223 217.28 -50.0687 217.677 -50.1587 218.039C-50.6543 219.262 -50.6993 219.443 -50.6882 219.206C-51.3074 221.12 -51.1271 220.78 -51.0482 220.655C-51.0257 220.565 -50.913 220.496 -51.0143 220.712C-51.0819 220.983 -51.1944 221.436 -51.4869 222.614C-51.3969 222.252 -51.5322 222.41 -51.2958 221.652C-51.5883 222.829 -51.7342 223.995 -51.7335 225.15C-51.7328 226.305 -51.5854 227.448 -51.0883 228.534C-50.8737 229.02 -50.5349 229.586 -50.1511 229.97C-49.8237 230.389 -49.3496 230.796 -48.8531 231.112C-47.9163 231.779 -46.8896 232.083 -45.7501 232.319C-45.4907 232.239 -45.6034 232.307 -45.8178 232.206C-45.9081 232.183 -46.1789 232.116 -46.3255 232.127C-46.506 232.082 -46.7768 232.015 -46.9574 231.97C-47.8375 231.654 -48.6387 231.213 -48.018 231.609C-47.2845 231.936 -46.5286 232.173 -45.6598 232.341C-44.9716 232.465 -44.0804 232.543 -43.3246 232.395C-41.6891 232.178 -40.1665 231.644 -38.7117 230.996C-37.2568 230.349 -35.8698 229.589 -34.5391 228.863C-33.152 228.102 -31.7875 227.433 -30.5132 226.74L-31.5055 227.262C-31.2011 227.002 -30.4682 226.559 -29.4419 226.094C-28.9908 225.821 -28.3931 225.538 -27.7954 225.254C-27.536 225.174 -27.4007 225.015 -27.1413 224.936L-26.8255 224.822L-26.6564 224.72C-26.6564 224.72 -26.4872 224.618 -26.5661 224.743C-26.6336 225.014 -26.7012 225.286 -26.7462 225.467C-26.6675 224.958 -26.7803 225.026 -26.8028 225.117C-26.8253 225.207 -26.8703 225.388 -26.8928 225.479L-26.9378 225.66L-26.994 226.079C-27.0726 226.589 -27.061 227.121 -27.0155 227.709C-26.8681 228.852 -26.4274 229.972 -25.5582 230.911C-25.1405 231.352 -24.7229 231.793 -24.0797 232.097C-23.775 232.221 -23.5831 232.414 -23.2446 232.594C-22.9399 232.718 -22.6352 232.843 -22.3306 232.967C-21.0555 233.429 -19.5663 233.608 -18.0096 233.516C-18.2691 233.595 -18.506 233.584 -18.7992 233.607C-17.5583 233.628 -15.9791 233.445 -14.3663 232.933C-12.8098 232.456 -11.2986 231.775 -10.0693 231.263C-9.35887 230.912 -8.11845 230.163 -8.91918 230.492C-6.41559 229.289 -4.1039 227.893 -1.98411 226.306C-0.89033 225.568 0.135689 224.718 1.07145 223.845C1.6014 223.448 2.0072 222.972 2.53715 222.575L3.20237 222.02L3.45041 221.793L3.5293 221.668L3.58568 221.634C3.58568 221.634 3.60818 221.544 3.67594 221.657C3.75507 221.917 3.82283 222.03 3.92446 222.2C3.95834 222.256 4.05998 222.426 4.12773 222.539C4.22937 222.709 4.26325 222.765 4.36488 222.935C4.72617 223.41 4.9972 223.862 5.43738 224.213C5.87756 224.563 6.48688 224.811 7.10733 224.822C7.31036 224.776 7.49088 224.821 7.66003 224.719C7.80668 224.708 7.97582 224.606 8.08859 224.538L8.83294 224.242C8.57353 224.322 8.46077 224.39 8.23524 224.526C7.97583 224.606 7.86306 224.674 7.63753 224.81C7.26536 224.957 7.14121 224.878 7.49088 224.821C7.63753 224.81 7.80668 224.708 7.91944 224.64L8.29162 224.492L8.94571 224.174C9.43065 223.958 9.88171 223.686 10.3103 223.504C11.2463 223.016 12.1598 222.619 13.0394 222.165C12.5431 222.234 12.295 222.46 11.0657 222.971C11.404 222.767 11.9454 222.517 12.5656 222.143C13.2197 221.825 13.8963 221.417 14.5165 221.042C12.1145 222.415 14.6181 221.212 15.6669 220.656C15.4075 220.735 15.8585 220.463 15.6894 220.565C18.5313 219.158 16.0388 220.123 19.8278 217.99L19.6362 218.183C21.0119 217.275 22.1506 216.357 23.6391 215.381C24.2932 215.063 22.3312 216.402 22.2298 216.617C24.2482 215.245 26.0408 213.623 27.8562 212.297C27.0557 213.011 25.9169 213.929 25.0487 214.53C26.0636 213.918 26.5935 213.521 27.0671 213.158C27.5406 212.795 27.9917 212.523 28.623 211.911L28.4539 212.013C29.5363 211.128 30.6187 210.244 31.7011 209.36C31.4531 209.586 31.1486 209.847 30.8667 210.017C31.9264 208.838 33.0538 207.773 34.294 206.639C34.5645 206.322 34.9253 206.027 35.1958 205.71C35.3875 205.517 35.4664 205.392 35.658 205.2C35.7369 205.075 35.8497 205.007 35.9061 204.973L36.2444 204.769C37.0337 204.292 37.8117 203.669 38.6122 202.954C37.8117 203.669 37.4509 203.963 37.2254 204.1C37.0337 204.292 37.0337 204.292 37.2029 204.19C37.4284 204.054 38.0711 203.589 37.9697 203.804C38.838 203.203 40.1459 202.183 39.7851 202.477C41.1492 201.038 42.2768 200.357 43.9562 198.034C44.1029 198.023 45.275 196.391 45.0722 196.822C46.5938 194.748 44.6325 197.241 44.7678 197.082C47.0897 193.91 50.1101 189.468 52.8032 184.608C55.0117 180.734 55.5526 179.714 57.254 176.531C57.4567 176.1 57.7273 175.783 57.9301 175.353C58.3809 174.696 57.2992 176.735 57.2992 176.735C58.6178 174.707 59.5531 173.064 60.6686 171.081C60.4658 171.512 60.7589 171.104 61.1533 170.481C62.1224 168.895 61.6828 169.314 62.9111 167.263C62.7647 167.66 62.5394 168.181 62.1563 168.951C63.2494 167.059 64.2521 165.145 65.3677 163.162C65.7171 162.72 64.7818 164.363 64.3988 165.133C66.5295 162.923 68.5578 159.388 68.7942 158.63ZM10.7018 218.263L10.8032 218.047C10.8934 218.07 10.8934 218.07 10.9273 218.127C10.8484 218.251 10.7581 218.229 10.7018 218.263ZM12.0663 217.593C12.0888 217.502 12.0888 217.502 12.2016 217.434L12.3257 217.513C12.1791 217.525 12.1227 217.559 12.0663 217.593ZM17.0169 214.836C17.0394 214.745 17.0394 214.745 17.1521 214.677L17.186 214.733C17.0958 214.711 17.0394 214.745 17.0169 214.836ZM16.9002 208.746C16.8438 208.78 16.8213 208.87 16.7085 208.938C16.6183 208.916 16.6747 208.882 16.6747 208.882C16.6183 208.916 16.7874 208.814 16.9002 208.746ZM16.4605 209.165C16.438 209.256 16.4041 209.199 16.3816 209.29C16.3816 209.29 16.438 209.256 16.4605 209.165ZM9.24694 218.91C9.21306 218.853 9.14531 218.74 9.16781 218.65L9.2467 218.525C9.25807 218.672 9.23557 218.763 9.24694 218.91ZM8.7395 219.216C8.68311 219.25 8.68311 219.25 8.7395 219.216V219.216ZM9.24694 218.91L9.30332 218.876C9.39358 218.898 9.3372 218.932 9.3372 218.932C9.41609 218.808 9.4611 218.627 9.39334 218.514C9.37084 218.604 9.37084 218.604 9.25807 218.672C9.28058 218.582 9.2467 218.525 9.17894 218.412C9.2692 218.434 9.23532 218.378 9.34809 218.31C9.31421 218.253 9.24645 218.14 9.14482 217.97C9.2012 217.936 9.33672 218.163 9.34784 217.925C9.24621 217.755 9.08844 218.005 9.09957 217.767C9.26871 217.665 9.30259 217.721 9.29122 217.574C9.38148 217.597 9.38148 217.597 9.41536 217.653C9.40398 217.506 9.50537 217.291 9.43761 217.178C9.60676 217.076 9.55014 216.725 9.82092 216.792C9.82092 216.792 9.80954 216.645 9.77567 216.589C9.68541 216.566 9.74179 216.532 9.76429 216.441C9.88843 216.521 9.77567 216.589 9.96732 216.396C10.0462 216.271 10.2154 216.169 10.2831 216.282C10.204 216.022 10.7114 215.716 10.8353 215.41L10.8128 215.5C10.982 215.398 11.0383 215.364 11.185 215.353C11.0834 215.183 11.2411 214.934 11.2861 214.753C11.5455 214.673 11.3653 215.013 11.5458 215.058C11.4217 214.979 11.7486 214.628 11.6019 214.639C11.8613 214.559 11.7711 214.537 11.9516 214.582C11.7597 214.39 12.0869 214.423 12.0416 214.22C12.2672 214.083 12.1996 214.355 12.4138 214.072C12.5604 214.06 12.459 214.276 12.459 214.276C12.6507 214.083 12.4138 214.072 12.4024 213.925C12.6166 213.642 12.6054 213.879 12.7521 213.868C12.8874 213.709 12.8646 213.415 12.9435 213.29L13.0338 213.313C13.1013 213.041 13.4959 212.803 13.5296 212.474L13.6198 212.497C13.5296 212.474 13.4618 212.361 13.3716 212.339C13.4505 212.214 13.4391 212.067 13.5632 212.146C13.5068 212.18 13.5407 212.237 13.5407 212.237L13.5632 212.146C13.7437 212.191 13.4279 212.305 13.586 212.44C13.7437 212.191 13.8676 211.885 14.0368 211.783C14.1948 211.919 13.7437 212.191 14.0595 212.077L13.6649 212.316C13.992 212.349 13.4957 212.418 13.8567 212.508C14.1612 212.247 14.0595 212.077 14.4542 211.839C14.4428 211.692 14.3301 211.76 14.2623 211.647C14.544 211.092 14.8489 211.601 15.0178 211.114C15.0064 210.967 14.9048 210.797 15.1528 210.57L15.2319 210.831C15.5364 210.57 15.1753 210.48 15.57 210.242C15.5475 210.332 15.4461 210.547 15.4122 210.491C15.728 210.377 15.4572 210.31 15.5586 210.094L15.7167 210.23C15.9872 209.913 16.19 209.482 16.483 209.074C16.4605 209.165 16.4944 209.221 16.6072 209.153C16.9227 208.655 17.4188 208.201 17.8923 207.839L17.9598 207.567C17.9824 207.476 18.1065 207.555 18.0501 207.589C18.2418 207.397 18.0162 207.533 18.0049 207.386C18.0837 207.261 18.174 207.284 18.0951 207.408C18.2415 207.012 18.636 206.389 19.0306 206.15L19.0081 206.241C19.2562 206.014 19.0304 205.765 19.2559 205.629L19.2334 205.72C19.7859 205.232 20.1464 204.553 20.6877 204.303C20.6086 204.043 21.2402 203.815 20.9919 203.657C21.3641 203.51 21.3641 203.51 21.7588 203.271C21.8377 203.147 21.736 202.977 21.8713 202.818L21.9954 202.898L22.0854 202.535L22.2885 202.49L22.4237 202.331C22.3674 202.365 22.2546 202.433 22.2771 202.342C22.4349 202.093 22.807 201.946 22.8634 201.911L23.2015 201.322C23.2354 201.379 23.179 201.413 23.134 201.594C23.224 201.232 23.3145 201.639 23.4384 201.333C23.3481 201.311 23.4045 201.277 23.4045 201.277C23.5512 201.265 23.8217 200.948 23.9231 200.733L23.957 200.789C24.3178 200.495 24.543 199.973 24.9264 199.588C24.7572 199.69 24.6556 199.521 24.7345 199.396L24.915 199.441C24.9036 199.294 24.7458 199.543 24.8133 199.271C25.005 199.079 24.9939 199.316 24.9714 199.407L25.1291 199.158C25.2194 199.18 25.163 199.214 25.1405 199.305C25.1291 199.158 25.5127 199.157 25.4899 198.863L25.5802 198.885C25.9635 198.5 26.0649 198.285 26.3918 197.933C26.2677 197.854 26.4368 197.752 26.448 197.514C26.696 197.288 27.0343 197.084 27.2823 196.857C27.4401 196.608 27.2709 196.71 27.2596 196.563C27.3837 196.642 27.6543 196.324 27.5529 196.539C27.8234 196.222 27.9023 196.098 28.2742 195.565C28.184 195.542 28.1276 195.576 28.184 195.542C28.2628 195.418 28.4095 195.406 28.4434 195.463C28.4659 195.372 28.6011 195.214 28.6575 195.18C28.635 195.27 28.5223 195.338 28.4997 195.429C28.2631 195.803 28.8272 195.847 28.3536 196.21L28.2745 195.95C28.0719 196.765 27.5422 197.547 27.3397 198.362C27.3622 198.272 27.3058 198.306 27.3283 198.215C27.1592 198.317 27.0805 198.827 27.1708 198.849C27.0919 198.974 27.0805 198.827 27.0241 198.861C26.855 198.963 27.0019 199.336 26.8552 199.348C26.8552 199.348 26.8777 199.257 26.8214 199.291C26.8327 199.438 26.5622 199.756 26.7991 199.767C26.5849 200.05 26.6641 200.31 26.4499 200.594C26.529 200.854 26.1907 201.058 26.3488 201.194C26.1907 201.058 25.9993 201.636 25.9882 201.873C25.9543 201.817 25.9093 201.998 25.7852 201.919C25.7402 202.1 25.6727 202.372 25.8193 202.36C25.4021 202.689 25.7409 203.255 25.301 203.289C25.211 203.652 25.2337 203.946 25.1098 204.252C25.0198 204.614 25.0539 205.056 25.1669 205.372C25.0203 205.384 24.975 205.18 25.02 204.999C24.9748 204.795 25.0762 204.58 24.9295 204.592C24.9639 205.418 25.2799 205.689 25.5962 206.345C25.6979 206.515 25.506 206.323 25.4157 206.3C25.6415 206.549 25.8109 206.832 26.0366 207.08C26.0705 207.137 26.1608 207.16 26.3413 207.205L26.251 207.182C26.251 207.182 26.251 207.182 26.3413 207.205C26.3977 207.171 26.488 207.193 26.6346 207.182C26.9279 207.159 26.8829 207.34 26.9393 207.306C26.5782 207.216 26.5446 207.544 26.1497 207.397C26.1497 207.397 26.1835 207.454 26.2738 207.476C26.2174 207.51 26.1272 207.488 26.0933 207.431C26.0708 207.522 26.1949 207.601 26.0258 207.703C25.9355 207.681 25.9919 207.647 25.9919 207.647C26.0258 207.703 26.0371 207.85 25.7891 208.077C25.7891 208.077 25.6988 208.054 25.8116 207.986C25.4508 208.281 25.3947 208.7 24.9097 208.916C24.887 208.622 24.7631 208.927 24.5487 208.826L24.357 209.018L24.4473 209.041C24.2556 209.234 24.1542 209.449 23.9851 209.551L24.1204 209.392L23.7596 209.687L24.019 209.608C23.8612 209.857 24.2109 209.8 23.8951 209.913C23.9176 209.823 23.7034 210.106 23.5229 210.061C23.5004 210.152 23.3651 210.31 23.2524 210.378C23.1621 210.356 23.1507 210.209 23.0605 210.186C23.1057 210.39 22.6433 210.515 22.6322 210.753C22.6547 210.662 22.6208 210.606 22.6208 210.606L22.5983 210.696C22.4516 210.708 22.4516 210.708 22.4177 210.651C22.0795 210.855 22.666 210.809 22.2939 210.957C22.2939 210.957 22.2939 210.957 22.3164 210.866C21.9442 211.014 21.7075 211.388 21.3917 211.502C21.2337 211.366 21.6398 211.275 21.4592 211.23C21.0421 211.559 20.7265 212.057 20.2416 212.273L20.298 212.239C20.3771 212.499 19.9258 212.386 19.7341 212.579C19.7566 212.489 19.7228 212.432 19.7228 212.432C19.3845 212.636 19.1364 212.863 18.8095 213.214L18.832 213.124C18.5726 213.203 18.3809 213.396 18.1215 213.476C18.099 213.566 17.9863 213.634 18.0765 213.657C17.3094 213.658 17.028 214.598 16.3512 214.621C16.4075 214.587 16.4301 214.497 16.4301 214.497L16.0129 214.826C16.092 215.086 16.0581 215.029 16.2386 215.074C16.2161 215.165 16.0809 215.324 16.0245 215.358C16.2161 215.165 15.9229 215.188 15.8326 215.165C15.9229 215.188 15.8665 215.222 15.8665 215.222C15.5393 215.188 15.9117 215.426 15.5621 215.483L15.5282 215.426C15.4493 215.551 15.3365 215.619 15.2238 215.687C15.0996 215.608 15.3026 215.562 15.2913 215.415C15.1221 215.517 15.0885 215.846 14.8516 215.835C14.908 215.801 15.0432 215.642 15.0996 215.608C14.8288 215.54 14.8063 215.631 14.6372 215.733L14.265 215.881L14.3553 215.903C14.333 216.379 13.9381 216.232 13.7578 216.572C13.9945 216.198 13.7464 216.425 13.6787 216.312C13.5884 216.289 13.4756 216.357 13.4981 216.267C13.3629 216.425 13.2387 216.346 13.081 216.595C12.9907 216.573 12.9118 216.698 12.9004 216.55C12.7088 216.743 12.9907 216.573 13.0246 216.629C12.8104 216.913 12.2125 216.812 11.9194 217.22C11.615 217.48 11.6264 217.628 11.322 217.888L11.2656 217.922C11.1753 217.9 11.3106 217.741 11.3106 217.741C11.1076 217.787 10.9384 217.889 10.7693 217.991C10.7918 217.9 10.7354 217.934 10.6451 217.912C10.476 218.014 10.6001 218.093 10.3971 218.139C10.4196 218.048 10.4196 218.048 10.4646 217.867C10.2955 217.969 10.1602 218.128 10.0249 218.286C9.93466 218.264 10.0699 218.105 10.0924 218.014C9.90079 218.207 9.64138 218.287 9.63025 218.525L9.77689 218.513C9.72051 218.547 9.65275 218.434 9.76552 218.366C9.90079 218.207 10.0249 218.286 10.0249 218.286L9.94604 218.411C10.1379 218.603 10.3971 218.139 10.6565 218.059L10.5776 218.184C10.0927 218.399 9.64162 218.672 9.24694 218.91ZM37.131 197.534C37.131 197.534 37.0971 197.478 37.176 197.353C37.176 197.353 37.2662 197.375 37.2098 197.409C37.2098 197.409 37.1873 197.5 37.131 197.534ZM33.7826 200.787C33.6587 201.093 33.7603 201.263 33.5348 201.399L33.4784 201.433C33.3882 201.411 33.5234 201.252 33.5234 201.252C33.3204 201.297 33.264 201.331 33.1513 201.4C33.1738 201.309 33.1174 201.343 33.0271 201.32C32.9707 201.355 33.0724 201.524 32.8355 201.513C32.858 201.423 32.8241 201.366 32.8805 201.332C32.8016 201.457 32.6888 201.525 32.5197 201.627C32.4858 201.57 32.5422 201.536 32.5872 201.355C32.5308 201.389 32.5308 201.389 32.418 201.457C32.3842 201.401 32.215 201.503 32.2262 201.265C32.3728 201.253 32.4292 201.219 32.4178 201.072C32.5081 201.095 32.5081 201.095 32.5419 201.151C32.5306 201.004 32.632 200.789 32.5981 200.732C32.7447 200.721 32.7445 200.336 32.9589 200.438C32.925 200.381 32.8797 200.177 32.9023 200.087C33.0153 200.404 33.0486 199.69 33.2969 199.849C33.1614 199.622 33.432 199.305 33.4092 199.011C33.4092 199.011 33.4431 199.067 33.3867 199.101C33.4656 198.977 33.5784 198.909 33.6347 198.875C33.4767 198.739 33.4878 198.501 33.4765 198.354C33.7359 198.274 33.6684 198.546 33.8489 198.591C33.7586 198.569 33.8825 198.263 33.702 198.218C33.8712 198.116 33.7809 198.093 33.9614 198.138C33.8034 198.003 33.9839 198.048 33.8823 197.878C34.0739 197.685 34.1531 197.946 34.1303 197.651C34.1867 197.617 34.232 197.821 34.232 197.821C34.3672 197.662 34.1303 197.651 34.0062 197.572C34.0737 197.3 34.1528 197.561 34.2656 197.493C34.3106 197.311 34.209 197.142 34.2878 197.017L34.3781 197.04C34.3328 196.836 34.6373 196.575 34.5581 196.315L34.6484 196.337C34.5581 196.315 34.4679 196.292 34.4001 196.179C34.4226 196.089 34.3549 195.976 34.5354 196.021C34.5129 196.111 34.5129 196.111 34.5468 196.168L34.5693 196.077C34.7723 196.032 34.5468 196.168 34.6484 196.337C34.6934 196.156 34.727 195.828 34.8059 195.703C34.9865 195.748 34.6595 196.1 34.8851 195.964L34.6934 196.156C35.0431 196.099 34.6145 196.281 34.9417 196.314C35.1558 196.031 35.0317 195.952 35.1895 195.703C35.1556 195.646 35.0992 195.68 34.9976 195.511C35.1326 194.967 35.5503 195.408 35.5162 194.967C35.5048 194.819 35.2904 194.718 35.5723 194.548L35.6739 194.717C35.8881 194.434 35.5609 194.401 35.809 194.174C35.8428 194.23 35.7414 194.446 35.7639 194.355C36.0234 194.275 35.7187 194.151 35.854 193.993L36.0345 194.038C36.1584 193.732 36.2484 193.369 36.4851 192.996C36.5189 193.052 36.4964 193.143 36.6092 193.075C36.812 192.644 37.1389 192.293 37.5222 191.907L37.477 191.704C37.4995 191.613 37.5333 191.67 37.5672 191.726C37.7364 191.624 37.5333 191.67 37.4656 191.557C37.4881 191.466 37.6122 191.545 37.5558 191.579C37.6459 191.217 37.8711 190.696 38.1531 190.526L38.1306 190.616C38.3222 190.423 38.04 190.209 38.2995 190.129L38.277 190.22C38.6264 189.778 38.908 189.223 39.393 189.007C39.2914 188.837 39.8102 188.678 39.5844 188.429C39.9227 188.225 39.8438 188.35 40.2046 188.055C40.2835 187.93 40.1819 187.761 40.2607 187.636L40.3849 187.715L40.3621 187.421L40.5427 187.466L40.5652 187.375C40.5427 187.466 40.4185 187.387 40.4185 187.387C40.5538 187.228 40.8357 187.058 40.8696 187.115L41.1287 186.65C41.1626 186.707 41.1062 186.741 41.174 186.854C41.264 186.491 41.3545 186.899 41.3657 186.661C41.2754 186.639 41.3318 186.605 41.3318 186.605C41.4784 186.593 41.6362 186.344 41.7715 186.185L41.8053 186.242C42.1098 185.981 42.29 185.641 42.617 185.29C42.4478 185.392 42.3462 185.222 42.4251 185.098L42.6056 185.143C42.5942 184.995 42.4589 185.154 42.5039 184.973C42.5828 184.848 42.6845 185.018 42.662 185.109L42.7972 184.95C42.8875 184.972 42.8311 185.006 42.8086 185.097C42.7972 184.95 43.1808 184.949 43.0791 184.78L43.1694 184.802C43.4399 184.485 43.5413 184.27 43.733 184.077C43.6089 183.998 43.778 183.896 43.7666 183.749C43.9922 183.612 44.2177 183.476 44.4657 183.25C44.601 183.091 44.4543 183.102 44.443 182.955C44.5671 183.034 44.7588 182.842 44.7363 182.932C45.0407 182.672 45.0068 182.615 45.2998 182.207C45.2096 182.185 45.1532 182.219 45.2096 182.185C45.2321 182.094 45.3787 182.082 45.4126 182.139C45.6718 181.674 46.5741 181.515 46.6867 181.062L46.8894 180.631C47.0586 180.529 46.8669 180.722 47.0136 180.71L47.0361 180.62C46.8786 181.254 46.4389 181.673 46.2813 182.308C46.3038 182.217 46.2475 182.251 46.27 182.16C46.1008 182.263 46.0108 182.625 46.1011 182.647C46.0447 182.681 46.0108 182.625 45.9544 182.659C45.7853 182.761 45.8983 183.078 45.808 183.055L45.8305 182.965C45.808 183.055 45.5939 183.339 45.7405 183.327C45.5489 183.52 45.5377 183.758 45.4025 183.916C45.4816 184.176 45.1319 184.234 45.2899 184.369C45.1319 184.234 44.9291 184.664 44.9405 184.811C44.9066 184.755 44.7714 184.913 44.76 184.766C44.6247 184.925 44.6361 185.072 44.7263 185.094C44.3542 185.242 44.5463 185.819 44.1289 185.763C43.96 186.25 43.7347 186.771 43.5883 187.168C43.4303 187.032 43.8475 186.703 43.6894 186.567C43.4867 186.998 43.5433 187.349 43.2728 187.666C43.1939 187.791 43.2389 187.609 43.2614 187.519C43.0586 187.949 42.8444 188.233 42.6417 188.663L42.6642 188.572C42.6417 188.663 42.5853 188.697 42.6192 188.754L42.6417 188.663C42.8447 188.617 42.7322 189.07 42.7999 189.184C42.6644 188.957 42.4955 189.444 42.3486 189.071C42.3261 189.162 42.3261 189.162 42.36 189.218C42.3036 189.252 42.3036 189.252 42.2697 189.196C42.112 189.445 42.315 189.399 42.1572 189.649C42.0669 189.626 42.1233 189.592 42.1458 189.501C42.1572 189.649 42.1122 189.83 42.0108 190.045C42.0108 190.045 41.9206 190.022 41.9769 189.988C41.7628 190.272 41.8194 190.623 41.5489 190.94C41.4697 190.68 41.3797 191.042 41.2556 190.963L41.2106 191.144L41.3572 191.133C41.2219 191.291 41.2672 191.495 41.098 191.597L41.1206 191.506L40.9064 191.79L41.0755 191.688C41.0305 191.869 41.2336 191.823 41.0983 191.982C41.1208 191.891 40.963 192.141 40.8503 192.209C40.8278 192.299 40.8955 192.412 40.7264 192.514C40.6361 192.492 40.5345 192.322 40.5683 192.379C40.67 192.548 40.3656 192.809 40.4333 192.922C40.4558 192.832 40.3092 192.843 40.3092 192.843L40.3206 192.99C40.2642 193.024 40.2642 193.024 40.2303 192.968C40.0386 193.161 40.5011 193.035 40.1628 193.24C40.1628 193.24 40.1628 193.24 40.1853 193.149C39.9372 193.376 39.8697 193.648 39.6556 193.931C39.4751 193.886 39.8134 193.682 39.5764 193.671C39.3398 194.045 39.2273 194.497 38.9567 194.815L39.0131 194.781C39.205 194.973 38.6973 194.894 38.7201 195.189C38.7426 195.098 38.6184 195.019 38.6862 195.132C38.4945 195.325 38.3706 195.631 38.2242 196.027L38.1904 195.97C38.0212 196.073 37.9198 196.288 37.7507 196.39C37.7846 196.446 37.7057 196.571 37.762 196.537C37.0966 196.708 37.2437 197.466 36.6685 197.659C36.691 197.569 36.691 197.569 36.691 197.569L36.4544 197.942C36.5446 197.965 36.5446 197.965 36.6574 197.897C36.6913 197.953 36.6124 198.078 36.5674 198.259C36.6124 198.078 36.4432 198.18 36.3191 198.101C36.4094 198.124 36.353 198.158 36.353 198.158C36.0936 198.237 36.5449 198.35 36.2291 198.464L36.1952 198.407C36.1727 198.498 36.1277 198.679 36.0713 198.713C35.981 198.69 36.0938 198.622 36.026 198.509C35.9472 198.634 35.9699 198.928 35.8233 198.94C35.8458 198.849 35.9585 198.781 35.981 198.69C35.778 198.736 35.7216 198.77 35.6652 198.804L35.4397 198.94L35.4961 198.906C35.643 199.279 35.2594 199.28 35.2597 199.665C35.2933 199.336 35.2483 199.518 35.1242 199.439C35.0678 199.473 34.955 199.541 34.9211 199.484C34.9664 199.688 34.6617 199.564 34.6845 199.858C34.5942 199.835 34.6056 199.983 34.4815 199.904C34.3462 200.062 34.5717 199.926 34.6056 199.983C34.4592 200.379 33.8951 200.334 33.7826 200.787ZM32.2489 201.559C32.3392 201.582 32.3392 201.582 32.373 201.638L32.3167 201.672L32.2489 201.559ZM32.1364 202.012C32.1364 202.012 32.08 202.046 31.9897 202.024L32.0122 201.933L32.1364 202.012ZM47.589 180.902L47.5777 180.755C47.634 180.721 47.6565 180.63 47.7693 180.562C47.7468 180.653 47.7243 180.743 47.589 180.902ZM36.767 192.825C36.7445 192.916 36.8234 192.791 36.9361 192.723C36.9136 192.814 36.8572 192.848 36.8008 192.882C36.6881 192.95 36.7106 192.859 36.767 192.825ZM36.6431 193.131C36.6206 193.222 36.6206 193.222 36.6206 193.222C36.6545 193.278 36.6769 193.188 36.6431 193.131ZM32.2266 202.035C32.2491 201.944 32.1928 201.978 32.2153 201.888C32.3055 201.91 32.3619 201.876 32.3619 201.876L32.328 201.82C32.3505 201.729 32.3844 201.785 32.3844 201.785C32.4747 201.808 32.4747 201.808 32.5085 201.865L32.4522 201.899C32.6441 202.091 32.8468 201.66 33.1063 201.581L33.1515 201.784C32.7341 201.728 32.5085 201.865 32.2266 202.035ZM33.1851 201.456C33.2415 201.422 33.2415 201.422 33.3093 201.535C33.2529 201.569 33.1626 201.547 33.1401 201.637L33.1851 201.456ZM34.0873 200.912C34.0873 200.912 34.0534 200.855 34.0759 200.764L34.1662 200.787C34.2 200.843 34.1437 200.877 34.0873 200.912ZM-4.70247 209.08C-4.45443 208.853 -4.09363 208.559 -3.46229 207.947C-4.01474 208.434 -4.45443 208.853 -4.70247 209.08ZM-0.82417 205.43C-1.01582 205.623 -0.858048 205.373 -0.395855 204.863C-0.610011 205.147 0.483522 204.025 1.22763 203.344C0.65267 203.922 -0.0575584 204.659 -0.82417 205.43ZM4.21726 221.407C4.02561 221.6 3.67618 222.042 2.78543 222.733C2.72905 222.767 2.63879 222.745 2.69517 222.711C3.2815 222.28 3.80008 221.736 4.35253 221.248C4.35253 221.248 4.33003 221.339 4.21726 221.407ZM52.1389 186.703L51.5753 187.428C52.0487 186.681 52.4881 185.876 52.9614 185.129C52.86 185.344 52.6572 185.774 52.1389 186.703ZM61.0751 171.76C60.8385 172.134 60.5904 172.361 60.6355 172.179C61.2102 171.216 61.6721 170.322 62.2807 169.415L61.0751 171.76Z" fill="#E22D2D"/>
<path d="M0.590314 177.545C0.567778 177.635 0.545242 177.726 0.522705 177.817C0.545242 177.726 0.601704 177.692 0.590314 177.545Z" fill="#E22D2D"/>
<path d="M44.9122 119.44C45.0591 119.429 45.1721 119.36 45.285 119.292C45.2285 119.326 45.0591 119.429 44.9122 119.44Z" fill="#E22D2D"/>
<path d="M0.579401 177.782C0.556863 177.873 0.534326 177.964 0.455322 178.089C0.511788 178.055 0.500397 177.907 0.579401 177.782Z" fill="#E22D2D"/>
<path d="M16.4826 220.724C16.539 220.69 16.742 220.644 16.9675 220.508C16.8772 220.486 16.7081 220.588 16.4826 220.724Z" fill="#E22D2D"/>
<path d="M29.5485 211.914C29.9656 211.585 30.5518 211.154 31.3297 210.53C30.6871 210.995 30.1008 211.426 29.5485 211.914Z" fill="#E22D2D"/>
<path d="M38.6445 204.035C38.7235 203.911 38.8365 203.842 38.8365 203.842L38.6445 204.035Z" fill="#E22D2D"/>
<path d="M15.5905 128.278C15.7373 128.267 15.8503 128.198 15.9632 128.13L15.5905 128.278Z" fill="#E22D2D"/>
<path d="M68.5635 159.554C68.4055 159.803 68.3039 160.019 68.2474 160.053L68.5635 159.554Z" fill="#E22D2D"/>
<path d="M69.2388 158.376L68.5966 159.611C68.8557 159.146 69.081 158.625 69.2388 158.376Z" fill="#E22D2D"/>
<path d="M59.6996 174.611C59.7221 174.52 59.7447 174.429 59.7447 174.429L59.6996 174.611Z" fill="#E22D2D"/>
<path d="M59.6554 174.792L59.6779 174.701C59.3737 175.347 57.7621 177.783 57.2438 178.712C57.8974 177.624 58.8779 176.185 59.6554 174.792Z" fill="#E22D2D"/>
<path d="M71.4499 154.975C71.4103 154.631 71.3905 154.459 71.4216 154.578C71.3482 154.394 71.1593 153.963 70.7648 153.711C70.3816 153.406 69.9112 153.251 69.6211 153.302C69.9957 153.381 70.3591 153.514 70.6353 153.796C70.9227 154.025 71.2412 154.372 71.3231 154.781C71.4585 155.201 71.4221 155.641 71.2252 156.047C71.0283 156.453 70.8313 156.859 70.6344 157.265C70.3952 157.606 70.5809 157.254 70.6033 157.147C70.0885 158.269 69.4752 159.594 70.0072 158.923C70.4685 157.79 70.6852 157.556 71.169 156.315C71.3349 155.79 71.4896 155.32 71.4499 154.975Z" fill="#E22D2D"/>
<path d="M64.0985 169.766C64.2731 169.467 64.3941 169.157 64.4926 168.954C64.3828 169.21 64.2195 169.456 64.1098 169.713C64.1098 169.713 64.1097 169.713 64.0985 169.766Z" fill="#E22D2D"/>
<path d="M52.8454 172.036C52.9756 171.951 52.9756 171.951 52.8454 172.036V172.036Z" fill="#E22D2D"/>
<path d="M63.8369 170.215C63.7384 170.418 63.5863 170.61 63.4005 170.962C63.5526 170.77 63.6736 170.46 63.8369 170.215Z" fill="#E22D2D"/>
<path d="M64.0563 169.701C64.0338 169.808 63.9465 169.958 63.8367 170.215C63.9353 170.012 64.0225 169.862 64.1211 169.659C64.1211 169.659 64.0788 169.594 64.0563 169.701Z" fill="#E22D2D"/>
<path d="M24.1877 136.489C25.1022 136.123 26.0168 135.757 26.9313 135.391C26.1884 135.737 25.1669 136.081 24.1877 136.489Z" fill="#E22D2D"/>
<path d="M35.1595 132.369C35.6857 132.256 36.2232 132.09 36.7606 131.924C36.8788 131.893 37.0083 131.809 37.073 131.767L35.1595 132.369Z" fill="#E22D2D"/>
<path d="M68.4945 161.067C68.4833 161.121 68.4073 161.217 68.32 161.366L68.4945 161.067Z" fill="#E22D2D"/>
<path d="M52.0543 179.252L52.0233 179.134C52.088 179.091 52.0992 179.038 52.164 178.995C52.2062 179.06 52.195 179.114 52.0543 179.252ZM63.0017 171.273C62.8273 171.572 62.6107 171.806 62.6444 171.645C63.0916 170.845 63.4741 170.086 63.9213 169.286L63.0017 171.273Z" fill="#E22D2D"/>
<path d="M48.0053 128.365C48.1237 128.334 48.2421 128.303 48.307 128.261C48.2534 128.249 48.1237 128.334 48.0053 128.365Z" fill="#E22D2D"/>
<path d="M23.9399 136.606C24.0583 136.575 24.1231 136.532 24.2415 136.501L23.9399 136.606Z" fill="#E22D2D"/>
<path d="M68.5874 161.423C68.5874 161.423 68.5874 161.423 68.5986 161.369L68.3255 161.871L68.5874 161.423Z" fill="#E22D2D"/>
<path d="M68.8603 160.92C68.7618 161.124 68.6633 161.327 68.5985 161.369L68.8603 160.92Z" fill="#E22D2D"/>
<path d="M69.3528 159.905L68.8602 160.921C69.046 160.568 69.243 160.162 69.3528 159.905Z" fill="#E22D2D"/>
<path d="M61.9035 173.837L61.926 173.73C61.6953 174.296 60.4316 176.324 60.0376 177.136C60.5076 176.228 61.3238 175.001 61.9035 173.837Z" fill="#E22D2D"/>
<path d="M155.791 81.2114C155.768 81.3186 155.704 81.3609 155.65 81.3496C155.692 81.4145 155.563 81.4991 155.605 81.5641C155.735 81.4795 155.822 81.3299 155.791 81.2114C155.867 81.1155 155.856 81.1691 155.909 81.1804C155.878 81.0619 155.805 80.8784 155.686 80.9093C155.717 81.0279 155.664 81.0166 155.791 81.2114Z" fill="#121418"/>
<path d="M155.923 79.7839C155.912 79.8378 155.912 79.8378 155.954 79.903L155.923 79.7839Z" fill="#121418"/>
<path d="M150.396 86.9568C150.449 86.9681 150.503 86.9795 150.492 87.0331C150.461 86.9145 150.655 86.7876 150.396 86.9568Z" fill="#121418"/>
<path d="M139.426 71.9356C139.372 71.9243 139.318 71.9129 139.265 71.9016C139.265 71.9016 139.265 71.9016 139.254 71.9553L139.426 71.9356Z" fill="#121418"/>
<path d="M139.241 87.9602L139.23 88.015L139.296 87.9718L139.241 87.9602Z" fill="#121418"/>
<path d="M145.276 70.932C145.222 70.9206 145.222 70.9206 145.276 70.932C145.103 70.9517 145.157 70.9631 145.276 70.932Z" fill="#121418"/>
<path d="M149.68 70.9659C149.626 70.9545 149.561 70.9969 149.508 70.9855C149.615 71.0082 149.722 71.0309 149.68 70.9659Z" fill="#121418"/>
<path d="M149.336 71.0053C149.39 71.0167 149.497 71.0393 149.55 71.0507C149.508 70.9857 149.401 70.963 149.336 71.0053Z" fill="#121418"/>
<path d="M155.709 80.8027L155.732 80.695C155.732 80.695 155.667 80.7375 155.709 80.8027Z" fill="#121418"/>
<path d="M156.013 79.3553C155.971 79.2904 156.176 79.1099 156.092 78.9801C156.123 79.0986 155.982 79.2368 156.013 79.3553Z" fill="#121418"/>
<path d="M151.779 71.0737C151.79 71.0198 151.79 71.0198 151.801 70.966C151.748 70.9546 151.748 70.9546 151.748 70.9546L151.779 71.0737C151.725 71.0623 151.736 71.0084 151.779 71.0737Z" fill="#121418"/>
<path d="M138.809 121.116C138.418 121.649 138.235 121.722 137.821 122.362C137.399 122.777 137.011 123.03 137.087 122.934C136.946 123.072 136.406 123.518 136.231 123.816C136.879 123.394 137.571 122.757 138.286 122.013C138.48 121.886 138.328 122.078 138.317 122.131C138.719 121.545 139.186 120.916 138.809 121.116Z" fill="#121418"/>
<path d="M143.796 116.515C143.655 116.653 143.514 116.792 143.438 116.887C143.579 116.749 143.655 116.653 143.796 116.515Z" fill="#121418"/>
<path d="M124.614 133.4C124.681 133.357 124.747 133.314 124.614 133.4V133.4Z" fill="#121418"/>
<path d="M144.012 116.281C144.142 116.197 144.229 116.047 144.359 115.962C144.218 116.101 144.077 116.239 144.012 116.281Z" fill="#121418"/>
<path d="M100.765 153.103C100.96 152.977 101.078 152.946 101.196 152.915C101.024 152.934 102.171 152.001 100.765 153.103Z" fill="#121418"/>
<path d="M143.849 116.526C143.86 116.473 143.936 116.377 144.012 116.281C143.936 116.377 143.871 116.419 143.849 116.526C143.784 116.569 143.784 116.569 143.849 116.526Z" fill="#121418"/>
<path d="M93.0171 82.3446L91.6157 83.167C91.9928 82.967 92.5106 82.629 93.0171 82.3446Z" fill="#121418"/>
<path d="M94.7426 120.376C94.8186 120.28 94.9059 120.131 94.9172 120.077L94.7426 120.376Z" fill="#121418"/>
<path d="M87.4763 85.5965C87.2286 85.7119 86.9275 85.816 86.6686 85.985C86.6039 86.0273 86.5392 86.0695 86.528 86.1231L87.4763 85.5965Z" fill="#121418"/>
<path d="M127.94 63.3542C127.875 63.3965 127.875 63.3965 127.81 63.4388C127.821 63.3852 127.875 63.3965 127.94 63.3542Z" fill="#121418"/>
<path d="M139.985 120.3C140.039 120.312 140.05 120.258 140.126 120.162L139.985 120.3Z" fill="#121418"/>
<path d="M80.9111 89.4714C80.9759 89.4291 81.0407 89.3868 81.1055 89.3445C81.0295 89.4405 80.9647 89.4828 80.9111 89.4714Z" fill="#121418"/>
<path d="M97.9958 115.522C97.9086 115.672 97.8213 115.821 97.7228 116.024C97.7565 115.864 97.9086 115.672 97.9958 115.522Z" fill="#121418"/>
<path d="M92.9501 122.797L92.7868 123.042L92.9501 122.797Z" fill="#121418"/>
<path d="M155.112 94.2772C155.112 94.2772 155.07 94.2122 154.985 94.0823C155.027 94.1472 155.016 94.2009 155.112 94.2772Z" fill="#121418"/>
<path d="M118.783 68.1378C118.718 68.1801 118.653 68.2224 118.589 68.2647C118.146 68.5072 118.47 68.2957 118.783 68.1378Z" fill="#121418"/>
<path d="M136.635 68.2123C136.7 68.17 136.7 68.17 136.764 68.1277C136.646 68.1587 136.452 68.2856 136.322 68.3702C136.192 68.4548 136.127 68.4971 136.116 68.5507C136.246 68.4661 136.375 68.3815 136.494 68.3505L136.635 68.2123Z" fill="#121418"/>
<path d="M93.2003 82.271C93.1355 82.3133 93.0819 82.3019 93.0707 82.3556L93.2003 82.271Z" fill="#121418"/>
<path d="M137.076 67.9698C136.992 67.8399 136.907 67.71 136.823 67.5801C136.896 67.7636 136.981 67.8935 137.076 67.9698C137.012 68.0121 136.84 68.0317 136.764 68.1276C136.882 68.0966 137 68.0657 137.076 67.9698Z" fill="#121418"/>
<path d="M139.707 120.297C139.783 120.201 139.912 120.117 139.924 120.063L139.707 120.297Z" fill="#121418"/>
<path d="M139.284 120.712L139.718 120.244C139.566 120.436 139.36 120.616 139.284 120.712Z" fill="#121418"/>
<path d="M145.625 114.718L145.613 114.771C145.841 114.484 146.9 113.7 147.203 113.317C146.781 113.731 146.123 114.208 145.625 114.718Z" fill="#121418"/>
<path d="M129.478 77.5594C129.421 77.8274 129.323 78.0305 129.267 78.2986L129.295 78.6964C129.32 78.3099 129.399 77.9346 129.478 77.5594Z" fill="#121418"/>
<path d="M200.504 52.0306C200.53 51.6442 200.555 51.2577 200.518 50.6343C200.613 49.6471 200.663 48.8742 200.683 49.0463C200.663 48.8742 200.688 48.4878 200.66 48.09C200.632 47.6922 200.615 47.2409 200.552 47.0039C200.562 48.293 200.492 49.9573 200.358 51.6638C200.279 52.0389 200.304 51.6525 200.262 51.5876C200.186 52.7469 200.012 54.1092 200.277 53.3816C200.412 52.7386 200.49 52.3634 200.504 52.0306Z" fill="#121418"/>
<path d="M181.142 36.0218C181.261 35.9907 181.261 35.9907 181.142 36.0218V36.0218Z" fill="#121418"/>
<path d="M196.419 64.8251C196.343 64.921 196.31 65.0819 196.222 65.2314C196.298 65.1355 196.332 64.9746 196.419 64.8251Z" fill="#121418"/>
<path d="M132.268 56.0397C132.633 55.8933 132.87 55.8315 133.053 55.7583C132.763 55.8088 135.014 54.6629 132.268 56.0397Z" fill="#121418"/>
<path d="M196.628 64.3653C196.605 64.4725 196.571 64.6333 196.473 64.8364C196.571 64.6333 196.659 64.4838 196.692 64.323C196.65 64.2581 196.65 64.2581 196.628 64.3653Z" fill="#121418"/>
<path d="M96.3721 164.713C96.7238 163.836 97.1179 163.023 97.4697 162.146C97.1516 162.863 96.7886 163.793 96.3721 164.713Z" fill="#121418"/>
<path d="M22.1179 81.7619C21.8699 81.8775 21.6867 81.9507 21.557 82.0353L22.1179 81.7619Z" fill="#121418"/>
<path d="M95.0468 162.251C94.574 162.375 94.0366 162.541 93.5103 162.653C93.3922 162.684 93.274 162.715 93.2093 162.757C93.8002 162.603 94.4446 162.459 95.0468 162.251Z" fill="#121418"/>
<path d="M147.67 136.083C147.585 135.953 147.565 135.781 147.48 135.651C147.565 135.781 147.596 135.9 147.67 136.083Z" fill="#121418"/>
<path d="M199.628 55.79C199.738 55.5335 199.724 55.8662 199.634 56.2948C199.286 57.9553 198.861 58.6486 198.785 58.7445C198.929 58.3272 199.007 57.9523 199.151 57.5351C198.856 58.1439 198.437 59.342 197.995 60.6472C197.543 62.0059 196.961 63.4492 196.382 64.6133L196.615 63.7676C196.823 63.3081 197.031 62.8487 197.239 62.3892C199.455 57.1518 201.295 50.7722 200.214 45.0053C200.183 44.8869 200.194 44.8333 200.152 44.7685C200.236 44.8982 200.321 45.028 200.416 45.1042C200.436 45.2762 200.445 45.5018 200.538 45.8571C200.6 46.094 200.662 46.3309 200.778 46.5791C200.718 46.063 200.605 45.5357 200.546 45.0197C200.568 44.9125 200.56 44.687 200.467 44.3316C200.458 44.106 200.407 43.8156 200.314 43.4603C200.221 43.1049 200.139 42.696 199.908 42.1996C199.53 41.3366 198.928 40.4818 198.302 39.7342C198.133 39.4747 197.964 39.2151 197.742 38.9443C198.018 39.2265 198.282 39.5622 198.558 39.8443C198.77 40.1687 199.035 40.5044 199.235 40.8824C198.603 39.6301 197.891 39.0318 197.125 38.4223C196.933 38.2699 196.669 37.9342 196.179 37.6068C195.337 37.093 194.45 36.7935 193.552 36.5476C193.253 36.3726 194.835 36.8192 193.019 36.1554C191.735 35.8838 194.205 36.6298 192.076 36.1237C190.75 35.7873 191.147 35.7593 189.551 35.6455C189.39 35.6116 189.562 35.5919 190.012 35.5753C189.348 35.5467 188.523 35.4841 187.794 35.4977C186.958 35.4887 186.164 35.5445 185.81 35.6374C185.092 35.5974 183.89 35.7348 182.902 35.9174C181.925 36.0464 181.109 36.2094 181.185 36.1136C180.765 36.2487 178.767 36.721 177.52 37.0726C178.66 36.6984 177.489 36.9542 176.07 37.3254C174.705 37.708 173.146 38.2173 173.363 37.9834C171.759 38.707 167.393 40.0772 164.562 41.3244C164.691 41.2399 165.004 41.0822 165.294 41.0317C163.658 41.6368 163.186 41.7606 162.153 42.1574C161.99 42.4026 159.535 43.4499 158.221 44.1229C156.231 44.8208 159.31 43.4582 158.677 43.548C158.826 43.6355 155.328 45.1332 156.037 44.9476C154.52 45.5218 154.756 45.4599 153.929 45.6765C153.755 45.9752 152.561 46.3382 151.365 46.9802C149.17 47.8585 150.732 47.0701 148.427 48.2048C147.265 48.6862 149.333 47.6133 149.333 47.6133C146.921 48.7254 148.297 48.2893 147.791 48.5738C144.991 49.9394 146.457 49.0748 145.424 49.4716C143.679 50.3333 142.396 51.1247 141.039 51.7329C140.921 51.7638 140.673 51.8793 140.932 51.7103C139.1 52.7213 135.397 54.3993 133.306 55.5793C133.123 55.6525 133.058 55.6948 133.004 55.6834C133.413 55.602 133.466 55.6133 133.444 55.7204C132.388 56.2244 131.493 56.7624 131.074 56.8974C131.699 56.582 131.764 56.5398 132.034 56.3172L130.956 56.9284C129.881 57.2604 132.464 56.1286 132.422 56.0637C130.289 57.1789 127.832 58.5053 126.152 59.3246C125.755 59.3526 129.976 57.3365 127.747 58.3755L130.354 57.1366C128.299 57.8768 131.904 56.4017 130.033 57.0687C126.619 58.6962 126.273 59.0146 122.912 60.6533C122.2 61.1181 123.202 60.6028 122.49 61.0676C117.824 63.6049 118.584 62.6468 115.21 64.6182C114.368 65.1675 114.076 65.4972 111.588 66.7052L112.376 66.1446C109.176 67.8173 110.628 67.2854 107.246 69.0313C107.828 68.651 109.714 67.6513 109.272 67.8935C107.043 68.9325 107.794 68.8117 106.103 69.6847L105.695 69.7662C102.29 71.6192 98.5919 73.8019 94.9053 75.9311C95.0995 75.8044 95.6932 75.3705 94.8096 75.8549C93.4728 76.6351 92.1361 77.4152 90.7347 78.2376C90.0339 78.6488 89.3332 79.06 88.6437 79.4176L87.5659 80.0288L87.1241 80.271C87.0593 80.3132 87.0058 80.3019 86.9946 80.3555C87.0058 80.3019 86.9523 80.2906 86.9636 80.237L86.8058 79.9239L86.3634 79.1031C86.0253 78.5841 85.7519 78.0228 85.4138 77.5038C84.7911 76.477 84.115 75.4389 83.4163 74.508C82.9712 73.9663 82.5149 73.4782 81.9939 73.0324C81.6756 72.6853 81.4108 72.3496 81.7826 72.708C80.3179 71.1675 81.6756 72.6853 80.9208 72.0222C80.028 71.218 79.752 70.9359 80.38 71.4043C79.6675 70.8061 78.741 70.1626 77.6315 69.5923C76.5221 69.022 75.272 68.5898 73.9769 68.3718C71.3558 67.8174 68.6957 67.982 66.8069 68.1978C67.0433 68.1359 67.2798 68.0741 67.5585 68.0771C66.0778 68.2114 65.2391 68.4815 64.4763 68.6558C63.7135 68.8302 62.9395 69.058 61.5546 69.2686L62.0809 69.1561C55.5844 70.2994 48.8012 72.277 44.0614 73.5681C43.2424 74.0102 38.0297 75.425 37.7259 75.8083C34.2527 76.9197 35.1787 76.5002 30.349 78.2198C29.0684 78.7321 28.4859 79.1123 26.9042 79.7288L26.8084 79.6526L24.6977 80.6606L23.5043 81.0235L22.0295 81.6626C22.6431 81.4008 23.2989 81.2039 23.2342 81.2461C22.1141 81.7924 20.7153 82.3356 19.6064 82.8283C18.4976 83.321 17.6476 83.6447 17.5941 83.6334C15.838 84.5486 14.0819 85.4638 12.4414 86.6272C12.5061 86.585 12.8409 86.3201 13.2405 86.0131C12.5933 86.4356 12.5285 86.4778 12.4638 86.5201C12.3456 86.551 12.2386 86.5284 11.0934 87.4609C11.417 87.2497 10.995 87.6639 10.9303 87.7061C10.3365 88.1399 9.3967 88.8922 8.51894 89.8813C7.64118 90.8704 6.77199 92.0851 6.20395 93.1956L6.35853 92.7248C5.81295 93.7282 5.36313 94.8079 5.06255 95.975C4.81547 97.1534 4.77112 98.4307 5.05896 99.7223C5.34679 101.014 6.16098 102.193 7.2255 102.978C8.29002 103.762 9.46418 104.29 10.672 104.658C9.78513 104.358 9.48664 104.183 9.60486 104.152C9.65835 104.163 10.1398 104.265 10.8239 104.466L11.3787 104.751C12.288 104.943 9.91458 104.274 11.8291 104.734C13.6366 105.173 13.0257 105.155 11.9446 104.983C12.6935 105.141 13.4424 105.299 14.149 105.393C14.2448 105.469 13.7633 105.367 13.5916 105.387C14.0308 105.424 14.9937 105.628 15.9565 105.831C16.9194 106.035 17.9892 106.261 18.6536 106.29L18.7493 106.366C21.1677 106.822 22.9779 106.981 24.6163 107.159C26.2548 107.338 27.851 107.452 29.8329 107.592C29.9088 107.496 31.505 107.61 32.6957 107.526C35.6319 107.643 38.9115 107.722 42.4414 107.405C44.8988 107.142 43.1395 107.273 44.2991 107.071C44.5019 107.17 47.9895 106.789 46.2077 107.027C47.1845 106.898 47.9895 106.789 48.7298 106.722C49.1915 106.651 49.6531 106.581 50.1147 106.511L50.081 106.672C50.0586 106.779 50.0249 106.94 49.9912 107.1C49.9013 107.529 49.865 107.969 49.8174 108.462C49.7222 109.449 49.7003 110.619 49.687 112.015C49.7571 111.414 49.7849 110.749 49.8132 111.146C49.7828 112.091 49.7384 113.368 49.6539 113.238L49.6566 112.959C49.6722 115.816 49.9414 119.061 50.5765 122.16C50.8729 123.678 51.2762 125.217 51.7668 126.608C52.0065 127.33 52.2574 127.998 52.466 128.602C52.5704 128.903 52.7282 129.216 52.8325 129.518C52.8635 129.637 52.948 129.766 52.9791 129.885L53.0213 129.95L52.9454 130.046C52.8807 130.088 52.8159 130.13 52.7512 130.172C51.4343 131.125 50.1061 132.13 48.8315 133.147C46.9743 134.545 49.8585 132.246 48.4768 133.24C44.2955 136.663 41.8221 138.601 38.8428 141.887C37.5456 143.011 35.4975 145.319 33.6607 147.951C32.7156 149.262 31.8127 150.637 31.0815 151.993C30.3503 153.349 29.7374 154.674 29.2876 155.753L29.4507 155.508C29.0966 156.664 28.9335 156.909 28.7003 157.755C28.7763 157.659 29.1303 156.503 28.9196 157.242C28.5966 158.516 28.3805 159.813 28.3784 161.155C28.3506 161.821 28.4833 162.52 28.7342 163.188C28.9851 163.857 29.4077 164.506 29.9288 164.951C31.0666 165.919 32.5109 166.225 33.8508 166.228C34.5152 166.257 35.2555 166.19 35.9001 166.047C36.5446 165.903 37.2315 165.825 37.8761 165.681C43.0861 164.546 47.9746 162.279 52.4913 159.654C54.1517 158.663 54.509 158.291 55.0492 157.846C55.5895 157.401 56.1832 156.967 58.2009 155.603L57.1739 156.505C60.272 154.251 63.3504 151.826 66.3442 149.27L66.8197 148.867L66.8845 148.825C66.8845 148.825 66.8845 148.825 66.8957 148.772L66.9492 148.783L67.6703 149.607C68.2956 150.354 68.9857 151.06 69.6223 151.754C70.9489 153.153 72.3403 154.51 73.7541 155.76C73.4246 155.467 73.3599 155.509 72.7966 154.999C73.3487 155.563 74.4752 156.584 75.4863 157.358C76.0185 157.75 76.5085 158.077 76.8493 158.317C77.19 158.557 77.4462 158.667 77.4997 158.678C78.4797 159.333 77.68 158.884 78.2545 159.342C78.936 159.821 79.8427 160.293 80.6537 160.688C81.4646 161.083 82.2446 161.36 82.6388 161.612C82.788 161.699 82.2221 161.467 81.9124 161.346C82.4248 161.566 83.568 161.976 84.5196 162.233C85.001 162.335 85.4177 162.479 85.6429 162.471C85.8569 162.516 85.9216 162.474 85.7077 162.428C87.0872 162.776 88.5229 162.856 89.8206 162.795C91.1183 162.734 92.3315 162.543 93.449 162.276C94.1695 162.037 95.3629 161.674 96.3535 161.212C96.8488 160.981 97.3442 160.75 97.6566 160.592L97.7213 160.55L97.786 160.508L97.8507 160.466C97.9154 160.423 97.9267 160.37 97.9914 160.328C97.9689 160.435 98.0871 160.404 98.2166 160.319C98.1941 160.426 98.1182 160.522 98.0422 160.618C97.9326 160.875 97.8117 161.185 97.6908 161.495C97.2747 162.414 96.9121 163.344 96.735 163.922C96.9121 163.344 96.0996 165.354 96.2991 164.669C95.5091 166.571 94.9245 168.294 95.0989 167.995C93.544 171.414 92.7578 175.164 91.9031 177.109C91.0714 180.01 90.4227 182.837 89.8387 185.623C89.5466 187.015 89.2659 188.355 89.0274 189.759C88.8001 191.109 88.5728 192.459 88.506 193.844C88.4215 193.714 88.5107 192.223 88.814 190.776C89.0637 189.319 89.3445 187.98 89.215 188.064C88.7407 190.593 88.3674 192.64 88.4333 194.724C88.4451 195.733 88.6061 196.83 89.0036 197.865C89.4011 198.9 90.1843 199.961 91.3247 200.649C91.9217 201 91.7725 200.912 91.367 200.714C91.1643 200.616 90.9192 200.452 90.7277 200.299C90.632 200.223 90.5362 200.147 90.4827 200.136C91.4825 200.963 92.6679 201.437 93.8448 201.686C95.1286 201.958 96.4038 202.004 97.6705 201.824C100.139 201.507 102.357 200.522 104.372 199.437C104.372 199.437 103.93 199.68 103.488 199.922C104.296 199.533 105.362 198.976 105.255 198.953L104.49 199.406C103.823 199.657 104.588 199.203 105.548 198.623C106.001 198.327 106.519 197.989 106.907 197.736C107.296 197.482 107.566 197.26 107.63 197.218C107.079 197.716 107.985 197.125 108.88 196.587C109.721 196.038 110.498 195.531 109.601 196.348C110.065 195.998 110.67 195.511 110.552 195.542C111.275 195.024 111.522 194.908 110.841 195.491C112.116 194.474 112.516 194.167 112.873 193.795C113.219 193.477 113.565 193.159 114.657 192.215C114.646 192.268 114.224 192.682 114.072 192.874C115.121 191.865 116.235 190.814 117.999 189.062C117.924 189.158 118.053 189.073 117.772 189.349C120.672 186.438 122.56 184.097 125.562 180.704C124.811 181.888 126.645 179.534 126.893 179.419L128.423 177.449L127.708 178.193C129.129 176.48 130.237 174.924 131.43 173.498L130.431 174.797L132.949 171.582L131.464 173.337C132.789 171.548 131.174 173.388 133.039 171.153C132.713 171.643 134.406 169.428 135.143 168.577C135.773 167.704 136.415 166.776 137.36 165.466C137.652 165.136 137.281 165.841 137.487 165.661C137.748 165.212 138.477 164.136 139.259 163.07C139.987 161.994 140.738 160.81 141.033 160.201C140.837 160.607 140.879 160.672 140.966 160.523L141.36 159.711C141.925 158.879 142.012 158.73 141.979 158.891C143.537 156.255 141.317 159.646 143.255 156.532C143.146 156.788 143.222 156.692 142.949 157.194C144.78 154.057 146.16 150.937 147.327 147.771C147.588 147.323 147.324 148.05 147.071 148.724C146.872 149.409 146.565 150.071 146.838 149.57C147.246 148.425 147.653 147.281 148.018 146.071C148.384 144.862 148.642 143.63 148.793 142.375C149.009 140.015 148.667 137.649 147.754 135.61C147.785 135.729 147.869 135.858 147.9 135.977C147.678 135.706 147.407 134.866 146.815 133.957C146.288 133.007 145.452 131.935 144.548 131.184C144.973 131.554 145.176 131.652 145.038 131.511C144.114 130.589 143.007 129.739 141.695 129.07C141.033 128.762 140.318 128.443 139.527 128.22C139.164 128.087 138.736 127.997 138.308 127.906C138.04 127.85 137.773 127.793 137.441 127.779L137.505 127.737L137.581 127.641L137.722 127.503C137.852 127.418 137.939 127.269 138.068 127.184C138.35 126.908 138.62 126.686 138.901 126.409L138.479 126.824C139.906 125.615 142.187 123.524 143.701 122.166C144.134 121.698 144.967 120.924 144.374 121.357C149.182 117.34 152.986 113.054 157.159 109.405C156.672 109.862 156.022 110.563 156.433 110.203L159.809 106.889C159.485 107.1 159.334 107.292 158.588 107.917C158.968 107.438 159.888 106.514 160.732 105.686C159.238 107.216 160.828 105.762 161.562 105.19C161.432 105.274 161.649 105.041 161.531 105.071C163.433 103.46 161.674 104.654 164.162 102.383L164.074 102.533C164.941 101.597 165.731 100.757 166.716 99.7909C167.18 99.4416 165.785 100.769 165.816 100.887C167.158 99.5488 168.362 98.0692 169.659 96.9451C169.085 97.5509 168.295 98.3906 167.732 98.9429C169.17 97.6807 169.31 97.5426 170.306 96.5226L170.23 96.6184L172.546 94.3671L171.93 94.908C173.395 92.9804 175.298 91.3688 177.379 88.9002C175.362 91.3266 177.118 89.3483 177.008 89.6049C177.582 88.999 178.491 88.1284 178.263 88.4158C179.239 87.2238 180.038 86.6096 181.405 84.8849C181.524 84.854 182.5 83.6619 182.314 84.0143C183.583 82.4925 181.968 84.3326 182.002 84.1719C183.901 81.7765 186.908 78.8884 189.451 75.2866C190.56 73.7309 191.201 72.8037 191.789 71.8652C192.289 71.076 192.725 70.3291 193.412 69.1876C193.586 68.8888 193.76 68.5901 193.935 68.2913C194.087 68.0997 193.988 68.3026 193.879 68.5591C193.693 68.9115 193.431 69.3596 193.431 69.3596C194.497 67.739 195.206 66.4904 195.993 64.8668C195.861 65.2305 196.047 64.8781 196.362 64.4413C196.975 63.1165 196.671 63.4998 197.481 61.769C197.414 62.0904 197.27 62.5076 197.017 63.1814C197.686 61.5887 198.248 59.9735 198.822 58.3046C199.019 57.8987 198.597 59.3759 198.367 59.9425C198.729 59.0123 199.106 57.7493 199.437 56.7007C199.727 55.5871 199.918 54.6765 199.932 54.3438C199.817 55.1586 199.749 55.48 199.628 55.79ZM144.042 116.812L144.768 116.015C144.897 115.93 145.026 115.846 145.069 115.91C144.68 116.164 144.334 116.482 144.042 116.812ZM150.035 111.143C150.111 111.047 150.251 110.909 150.544 110.579L150.868 110.368C150.597 110.591 150.316 110.867 150.035 111.143ZM76.4013 152.46C76.6886 152.689 77.0069 153.036 77.3899 153.341C77.4209 153.459 77.3251 153.383 77.0801 153.219C77.1871 153.242 76.6661 152.796 76.4013 152.46ZM79.1669 154.724C79.2204 154.735 79.2627 154.8 79.2627 154.8C79.2627 154.8 79.2092 154.789 79.1669 154.724ZM134.21 77.6436C134.179 77.5251 134.286 77.5477 134.362 77.4519C134.308 77.4406 134.286 77.5477 134.244 77.4828C134.345 77.0008 134.606 76.5526 134.868 76.1045L135.053 75.7521L135.281 75.4647C135.433 75.2731 135.585 75.0814 135.737 74.8898C135.965 74.6023 135.537 74.5118 135.979 74.2696L135.999 74.4416C136.086 74.2923 136.173 74.1429 136.26 73.9935C136.401 73.8554 136.542 73.7174 136.671 73.6329C136.812 73.4948 136.941 73.4103 137.082 73.2722C137.211 73.1877 137.352 73.0496 137.493 72.9116C137.481 72.9651 137.481 72.9651 137.47 73.0187C137.642 72.9991 137.923 72.723 137.881 72.6581C137.999 72.6271 137.923 72.723 138.041 72.692C138.213 72.6724 138.323 72.4159 138.43 72.4385C138.43 72.4385 138.419 72.4921 138.365 72.4808C138.441 72.3849 138.742 72.2808 138.646 72.2046C138.883 72.1428 139.088 71.9624 139.313 71.9541C139.401 71.8047 139.733 71.8191 139.766 71.6584C139.786 71.8304 140.27 71.6531 140.411 71.515C140.4 71.5686 140.572 71.5489 140.507 71.5912C140.69 71.518 140.873 71.4448 140.777 71.3686C141.194 71.5127 141.455 71.0646 141.689 71.2818C142.227 71.1158 142.764 70.9498 143.333 70.9023C143.353 71.0743 142.764 70.9498 142.773 71.1754C143.246 71.0517 143.558 70.894 144.062 70.8887C144.169 70.9113 143.986 70.9845 143.932 70.9732C144.448 70.9143 144.887 70.9512 145.348 70.8811C145.348 70.8811 145.284 70.9233 145.23 70.912C145.337 70.9346 145.444 70.9573 145.413 70.8388L145.348 70.8811C145.21 70.74 145.683 70.6162 145.748 70.574C145.585 70.8192 146.176 70.6645 145.948 70.952C146.001 70.9633 146.066 70.921 146.077 70.8675C146.184 70.8901 146.184 70.8901 146.108 70.9859C146.452 70.9467 146.303 70.8591 146.635 70.8735C146.624 70.927 146.57 70.9157 146.559 70.9693C146.688 70.8848 146.871 70.8116 147.085 70.8569C147.085 70.8569 147.074 70.9104 147.02 70.8991C147.46 70.936 147.783 70.7248 148.2 70.8689C148.048 71.0605 148.349 70.9564 148.38 71.0748L148.605 71.0665L148.51 70.9903C148.724 71.0356 148.918 70.9088 149.121 71.0077L148.949 71.0273L149.335 71.0529L149.132 70.9541C149.368 70.8922 149.112 70.7821 149.433 70.85C149.379 70.8386 149.647 70.8952 149.743 70.9714C149.861 70.9405 149.979 70.9095 150.14 70.9435C150.182 71.0084 150.106 71.1042 150.095 71.1577C150.235 71.0197 150.587 71.206 150.781 71.0793C150.717 71.1215 150.706 71.1751 150.759 71.1864L150.835 71.0906C150.942 71.1132 150.942 71.1132 150.919 71.2203C151.263 71.1811 150.793 71.0257 151.178 71.0513C151.178 71.0513 151.167 71.1049 151.114 71.0936C151.339 71.0853 151.587 70.9698 151.716 70.8853C151.769 70.8966 151.823 70.9079 151.876 70.9193C151.93 70.9306 152.037 70.9532 152.09 70.9645C152.164 71.1478 151.812 70.9615 151.896 71.0913C152.389 71.1395 152.893 71.1342 153.309 71.2783L153.203 71.2557C153.354 71.0641 153.49 71.4843 153.715 71.476C153.661 71.4646 153.586 71.5605 153.639 71.5718C153.884 71.7355 154.216 71.7498 154.664 72.0123L154.599 72.0546C154.737 72.1957 154.929 72.348 155.056 72.5427C155.109 72.554 155.205 72.6302 155.227 72.5231C155.32 72.8784 155.458 73.0195 155.627 73.279C155.808 73.4849 155.923 73.7331 155.909 74.0659C155.867 74.001 155.825 73.9361 155.814 73.9897C155.898 74.1194 155.918 74.2914 156.002 74.4212C156.067 74.3789 156.014 74.3676 156.101 74.2182C156.154 74.2296 156.239 74.3593 156.27 74.4778C156.143 74.2831 156.152 74.5087 156.076 74.6045C156.076 74.6045 156.129 74.6158 156.194 74.5736C156.084 74.8301 156.366 74.554 156.34 74.9402L156.287 74.9289C156.318 75.0474 156.414 75.1236 156.434 75.2956C156.358 75.3914 156.349 75.1658 156.284 75.2081C156.304 75.3801 156.549 75.5438 156.451 75.7467C156.408 75.6818 156.377 75.5634 156.335 75.4985C156.237 75.7015 156.29 75.7128 156.257 75.8735L156.243 76.2062L156.265 76.099C156.552 76.3276 156.389 76.5728 156.547 76.8859C156.389 76.5728 156.44 76.8633 156.333 76.8407C156.311 76.9478 156.288 77.0549 156.246 76.99C156.33 77.1198 156.19 77.2579 156.317 77.4525C156.263 77.4412 156.283 77.6132 156.229 77.6019C156.249 77.7739 156.294 77.5596 156.348 77.5709C156.505 77.884 156.148 78.256 156.272 78.7298C156.312 79.0738 156.396 79.2036 156.394 79.4827C156.382 79.5363 156.371 79.5898 156.371 79.5898C156.306 79.6321 156.287 79.4601 156.287 79.4601C156.188 79.663 156.166 79.7701 156.186 79.9422C156.143 79.8773 156.132 79.9308 156.067 79.9731C156.034 80.1338 156.205 80.1142 156.065 80.2522C156.022 80.1873 155.969 80.176 155.938 80.0576C155.958 80.2296 155.977 80.4016 155.944 80.5623C155.879 80.6046 155.859 80.4325 155.817 80.3677C155.772 80.5819 155.716 80.8498 155.8 80.9795L155.876 80.8837C155.865 80.9373 155.758 80.9146 155.769 80.8611C155.75 80.6891 155.868 80.6581 155.921 80.6694L155.899 80.7766C156.189 80.726 156 80.2945 156.056 80.0267L156.141 80.1564C156.006 80.7992 155.818 81.4307 155.534 81.9859C155.48 81.9746 155.438 81.9097 155.384 81.8984L155.449 81.8562L155.365 81.7264L155.331 81.8871C155.224 81.8645 155.159 81.9068 155.018 82.0448L155.016 82.324L154.898 82.3549L154.996 82.1519C154.867 82.2364 154.898 82.3549 154.875 82.462C154.822 82.4507 154.757 82.493 154.746 82.5465L154.785 82.8905C154.678 82.8679 154.712 82.7072 154.571 82.8453C154.591 83.0173 154.796 82.837 154.698 83.0399C154.569 83.1244 154.526 83.0596 154.493 83.2202C154.439 83.2089 154.45 83.1554 154.462 83.1018C154.428 83.2625 154.287 83.4006 154.372 83.5303C154.242 83.6148 154.175 83.9362 153.972 83.8374C153.961 83.891 153.97 84.1165 153.894 84.2124C153.843 83.9219 153.59 84.5956 153.463 84.401C153.525 84.6379 153.137 84.8914 153.016 85.2015C153.016 85.2015 153.027 85.1479 153.038 85.0943C152.909 85.1788 152.844 85.2211 152.726 85.252C152.81 85.3818 152.659 85.5734 152.625 85.7341C152.4 85.7424 152.616 85.5085 152.456 85.4746C152.552 85.5508 152.27 85.8269 152.431 85.8609C152.259 85.8805 152.301 85.9454 152.152 85.8579C152.279 86.0525 152.065 86.0072 152.031 86.1679C151.795 86.2298 151.882 86.0804 151.73 86.2721C151.612 86.303 151.71 86.1001 151.71 86.1001C151.516 86.2268 151.73 86.2721 151.707 86.3792C151.491 86.6131 151.536 86.3988 151.429 86.3762C151.288 86.5143 151.243 86.7285 151.125 86.7595C151.125 86.7595 151.071 86.7481 151.083 86.6946C150.984 86.8975 150.565 87.0326 150.455 87.2891L150.402 87.2778C150.444 87.3427 150.486 87.4075 150.54 87.4189C150.422 87.4498 150.388 87.6105 150.292 87.5343C150.357 87.492 150.357 87.492 150.368 87.4385L150.292 87.5343C150.143 87.4468 150.433 87.3962 150.337 87.32C150.143 87.4468 149.98 87.692 149.797 87.7652C149.712 87.6354 150.132 87.5004 149.906 87.5087L150.208 87.4045C149.898 87.2831 150.391 87.3313 150.081 87.2099C149.715 87.3563 149.746 87.4747 149.391 87.5675C149.369 87.6747 149.487 87.6437 149.411 87.7395C149 88.1002 148.887 87.5728 148.595 87.9025C148.519 87.9984 148.539 88.1704 148.249 88.2209L148.282 88.0602C147.928 88.153 148.173 88.3167 147.776 88.3447C147.798 88.2375 148.024 88.2292 147.97 88.2179C147.703 88.1613 147.829 88.356 147.646 88.4292L147.714 88.1078C147.359 88.2006 146.971 88.4541 146.563 88.5356C146.574 88.482 146.639 88.4398 146.532 88.4171C146.295 88.479 146.005 88.5296 145.715 88.5801C145.437 88.5771 145.158 88.5741 144.879 88.5711L144.685 88.6979C144.632 88.6866 144.589 88.6217 144.643 88.633C144.429 88.5877 144.632 88.6866 144.556 88.7824C144.438 88.8133 144.406 88.6949 144.46 88.7062C144.105 88.799 143.45 88.9959 143.098 88.8096L143.162 88.7673C142.895 88.7108 142.827 89.0322 142.582 88.8685L142.647 88.8262C142.059 88.7018 141.318 88.7689 140.871 88.5064C140.73 88.6445 140.294 88.3284 140.195 88.5313C139.897 88.3563 139.961 88.3141 139.502 88.1051C139.395 88.0825 139.266 88.167 139.094 88.1866L139.117 88.0795L138.88 88.1413L138.807 87.958L138.646 87.9241C138.7 87.9354 138.742 88.0003 138.731 88.0538C138.464 87.9973 138.23 87.78 138.252 87.6729C138.092 87.6389 137.878 87.5937 137.717 87.5597C137.729 87.5062 137.836 87.5288 137.943 87.5514C137.61 87.5371 137.976 87.3907 137.644 87.3764C137.686 87.4413 137.579 87.4186 137.568 87.4722C137.484 87.3425 137.239 87.1787 136.982 87.0686L137.047 87.0264C136.706 86.7865 136.301 86.5888 135.971 86.2954C136.056 86.4251 135.926 86.5096 135.831 86.4334L135.864 86.2727C135.746 86.3037 135.949 86.4025 135.735 86.3572C135.597 86.2162 135.769 86.1965 135.822 86.2078L135.619 86.109C135.631 86.0555 135.684 86.0668 135.738 86.0781C135.619 86.109 135.591 85.7114 135.366 85.7197L135.377 85.6662C135.059 85.3192 134.909 85.2316 134.698 84.9072C134.633 84.9495 134.549 84.8197 134.388 84.7858C134.304 84.656 134.273 84.5376 134.2 84.3543C134.169 84.2358 134.095 84.0525 134.011 83.9227C133.884 83.7281 133.904 83.9001 133.808 83.8239C133.873 83.7817 133.768 83.4799 133.906 83.621C133.76 83.2543 133.718 83.1894 133.486 82.693C133.475 82.7466 133.464 82.8002 133.411 82.7888C133.368 82.724 133.402 82.5633 133.455 82.5746C133.182 82.0133 133.564 81.2551 133.376 80.8235C133.356 80.6515 133.325 80.5331 133.305 80.3611C133.35 80.1468 133.39 80.4908 133.477 80.3414C133.364 79.8141 133.592 79.5267 133.563 79.1291C133.898 78.8642 133.799 78.0042 134.21 77.6436ZM146.09 88.6593C146.143 88.6706 146.208 88.6284 146.315 88.651C146.357 88.7159 146.357 88.7159 146.293 88.7582C146.304 88.7046 146.197 88.682 146.09 88.6593ZM146.616 88.5469C146.67 88.5582 146.734 88.516 146.734 88.516C146.67 88.5582 146.67 88.5582 146.616 88.5469ZM156.304 79.9112C156.262 79.8463 156.273 79.7928 156.242 79.6743C156.253 79.6208 156.306 79.6321 156.36 79.6434C156.337 79.7505 156.315 79.8576 156.304 79.9112ZM156.542 78.5072C156.489 78.4959 156.5 78.4423 156.458 78.3774L156.522 78.3352C156.511 78.3888 156.554 78.4536 156.542 78.5072ZM155.788 73.3129L155.853 73.2707C155.895 73.3356 155.884 73.3891 155.926 73.454C155.872 73.4427 155.83 73.3778 155.788 73.3129ZM149.284 92.076C149.585 91.9719 149.94 91.8791 150.252 91.7214C150.241 91.775 149.993 91.8904 149.38 92.1522C149.315 92.1945 149.273 92.1296 149.284 92.076ZM135.401 124.718C135.336 124.76 135.336 124.76 135.272 124.803C135.294 124.695 135.316 124.588 135.274 124.523C135.339 124.481 135.468 124.397 135.609 124.259L135.806 123.853L135.167 124.501C134.996 124.52 134.661 124.785 133.797 125.442L132.66 126.6L132.207 126.896L133.234 125.994C132.576 126.47 132.272 126.853 131.915 127.225C131.796 127.256 131.602 127.383 131.332 127.606L130.238 128.828C130.055 128.902 130.693 128.254 129.829 128.91C129.32 129.474 130.465 128.541 129.61 129.423C128.952 129.899 129.115 129.654 128.465 130.356C128.347 130.386 128.487 130.248 128.704 130.015C128.13 130.62 127.061 131.457 126.822 131.798C126.11 132.263 124.757 133.655 124.694 133.418C124.543 133.61 123.687 134.492 123.136 134.99C124.025 133.948 120.964 136.824 121.107 136.407C120.435 137.216 118.361 138.847 117.041 140.078C117.117 139.983 117.258 139.845 117.387 139.76C116.588 140.374 116.329 140.543 115.8 140.935C115.809 141.16 114.588 142.189 114.014 142.795C112.978 143.471 114.481 142.166 114.061 142.301C114.21 142.389 112.471 143.755 112.891 143.62C112.114 144.127 112.232 144.096 111.737 144.327C111.734 144.606 111.056 144.91 110.536 145.527C109.424 146.299 110.128 145.609 109.025 146.606C108.442 146.986 109.404 146.127 109.404 146.127C108.194 147.102 108.949 146.702 108.721 146.989C107.294 148.198 108.009 147.454 107.438 147.781C106.551 148.544 105.966 149.204 105.296 149.733C105.232 149.776 105.102 149.86 105.243 149.722C104.388 150.604 102.423 151.979 101.385 152.934C101.32 152.976 101.256 153.018 101.202 153.007C101.439 152.945 101.492 152.957 101.481 153.01C100.941 153.455 100.519 153.869 100.282 153.931C100.617 153.667 100.628 153.613 100.769 153.475L100.229 153.92C99.6152 154.182 100.974 153.295 100.932 153.23C99.8516 154.12 98.5657 155.191 97.6173 155.717C97.3921 155.726 99.6462 154.3 98.4389 154.996C98.892 154.7 99.345 154.404 99.8093 154.055C98.6245 154.644 100.651 153.506 99.5531 153.945C98.6357 154.59 98.1715 154.939 97.6537 155.277C97.1359 155.615 96.6716 155.965 95.6809 156.426C95.2814 156.734 95.8949 156.472 95.5066 156.725C94.1698 157.505 93.5477 157.542 93.0214 157.654C92.7849 157.716 92.5597 157.724 92.2698 157.775C91.9799 157.825 91.6253 157.918 91.0877 158.084C90.7865 158.188 90.6458 158.326 90.3024 158.366C89.959 158.405 89.5396 158.54 88.726 158.424L89.2636 158.258C88.7597 158.263 88.4275 158.249 88.2023 158.257C87.9771 158.265 87.8167 158.231 87.6449 158.251C87.4732 158.271 87.3128 158.237 87.0876 158.245C86.8201 158.188 86.4992 158.121 85.9642 158.007C86.1894 157.999 86.5639 158.078 86.8848 158.146C87.2058 158.214 87.431 158.206 87.2705 158.172C86.5751 158.025 86.3724 157.926 86.1472 157.934C85.922 157.943 85.7503 157.962 85.2266 157.795L85.0463 157.59C82.9403 156.976 80.7102 155.889 78.6881 154.343C78.8486 154.377 79.1894 154.617 78.7641 154.247C76.2408 152.427 73.855 149.684 71.9479 147.323L71.1086 146.53C70.9283 146.324 70.8015 146.129 71.0353 146.347C70.855 146.141 70.7283 145.946 70.7283 145.946C70.7283 145.946 70.7283 145.946 70.6748 145.935L70.6635 145.988C70.6635 145.988 70.6635 145.988 70.61 145.977L70.5565 145.966C70.5143 145.901 70.4608 145.89 70.472 145.836C70.4833 145.782 70.5367 145.794 70.5367 145.794C70.5902 145.805 70.5902 145.805 70.579 145.859C70.579 145.859 70.5902 145.805 70.6437 145.816C70.6437 145.816 70.6437 145.816 70.655 145.763C70.7197 145.721 70.7309 145.667 70.8069 145.571C71.0235 145.337 71.2401 145.103 71.5103 144.881C72.0082 144.371 72.5062 143.861 73.0689 143.309C74.1296 142.246 75.2438 141.195 76.0767 140.42L75.7841 140.75C77.0924 139.572 76.9993 139.217 78.274 138.2L78.0574 138.434C80.7838 135.822 83.6422 132.846 85.7299 130.882C86.0027 130.381 88.3493 128.248 88.3097 127.904C89.0778 127.171 89.3592 126.895 89.7165 126.523C90.0738 126.151 90.4958 125.737 91.5143 124.61C92.0347 123.993 92.1781 123.575 92.7857 122.809L92.8815 122.885C93.1318 122.491 93.3821 122.096 93.6212 121.755L94.1727 121.256C94.3358 121.011 94.5637 120.724 94.7268 120.478C94.499 120.766 94.2064 121.096 94.2176 121.042C94.6198 120.456 95.1628 119.731 95.6185 119.157C96.0207 118.57 96.3892 118.145 96.4427 118.156C97.0418 117.164 97.6409 116.172 98.2399 115.18C98.2287 115.233 98.1303 115.436 98.0206 115.693C98.4678 114.892 98.1699 115.78 98.8364 114.467C98.6844 114.658 98.8165 114.295 98.8165 114.295C99.0556 113.954 99.4044 113.356 99.7221 112.64C100.04 111.924 100.38 111.101 100.526 110.405C100.557 110.523 100.535 110.63 100.523 110.684C100.9 109.421 101.161 107.91 100.65 106.348C100.369 105.561 99.7854 104.878 99.028 104.494C98.2705 104.11 97.5216 103.952 96.7503 103.9C97.2964 103.96 97.4992 104.059 97.4344 104.101C97.3697 104.143 97.091 104.14 96.6519 104.103C96.5561 104.027 96.4491 104.004 96.2887 103.97C95.7088 104.072 97.2205 104.056 96.0298 104.139C94.9038 104.181 95.2696 104.035 95.903 103.945C95.4526 103.961 94.9909 104.032 94.5293 104.102C94.4223 104.079 94.777 103.986 94.8417 103.944C94.5518 103.995 93.9832 104.042 93.3921 104.197C92.8122 104.298 92.1564 104.495 91.7906 104.641L91.6836 104.619C90.9743 104.804 90.3607 105.066 89.8232 105.232C89.2744 105.452 88.8438 105.64 88.3597 105.818C87.9291 106.006 87.4872 106.248 87.0031 106.426C86.5613 106.668 86.066 106.899 85.5594 107.183C85.5905 107.302 84.7715 107.744 84.1778 108.178C82.6581 109.031 81.009 109.969 79.2925 111.228C78.1473 112.161 78.9999 111.558 78.5132 112.014C78.3527 111.98 76.6897 113.251 77.5113 112.53C75.5134 114.065 74.9732 114.51 72.5956 116.525C72.9079 116.367 73.1893 116.091 73.0374 116.282C72.6266 116.643 71.9793 117.065 72.0553 116.97L72.1847 116.885C69.568 119.241 65.7269 121.841 63.6927 123.816L63.8221 123.731L63.552 123.954L63.4873 123.996L63.3578 124.081L62.7641 124.514L61.5344 125.317C60.3806 126.024 62.1928 124.841 61.3204 125.272C60.0147 126.171 58.9369 126.782 57.9125 127.404C57.7183 127.531 57.5354 127.604 57.3412 127.731L57.223 127.762C57.1695 127.75 57.192 127.643 57.1385 127.632C56.9497 127.2 56.772 126.715 56.5944 126.23C56.4109 125.24 55.8583 123.613 55.4041 121.783C54.9386 120.006 54.6673 118.103 54.6694 116.761L54.6357 116.921C54.503 116.222 54.5902 116.073 54.5843 115.568C54.5084 115.664 54.5988 116.298 54.5169 115.889C54.449 115.148 54.4345 114.417 54.42 113.687C54.4056 112.957 54.4023 112.173 54.3878 111.443C54.4236 109.94 54.5129 108.448 55.0301 107.047C55.151 106.737 55.2831 106.374 55.4575 106.075C55.5447 105.925 55.6318 105.776 55.7613 105.692C55.8485 105.542 55.9779 105.458 56.1186 105.32C56.6166 104.81 57.2103 104.376 57.8576 103.953C59.0985 103.097 60.424 102.37 61.7495 101.644C63.711 100.548 62.6808 100.666 65.1376 99.3395L64.5214 99.8805C68.1908 97.3002 72.2545 94.971 75.9437 92.5627C75.7383 92.743 75.7383 92.743 75.4035 93.0079C76.2647 92.6306 78.347 91.225 78.3048 91.1601C78.8761 90.8334 78.4765 91.1405 78.8536 90.9406C79.6725 90.4984 80.8065 89.6195 81.2371 89.4308C81.3018 89.3886 81.1724 89.4731 81.043 89.5576C81.6902 89.1351 83.2746 88.2395 82.737 88.4055C84.1919 87.5944 85.4329 86.7381 86.5642 86.1382C87.2339 85.6086 89.0323 84.7583 89.1532 84.4482C89.1617 84.6738 91.717 83.1444 92.5696 82.5416C92.2995 82.7642 93.3773 82.153 93.0425 82.4178C94.0556 81.849 95.0152 81.2688 94.79 81.2771C96.8248 80.3649 98.5215 78.9336 99.7684 78.582C102.777 76.7569 105.633 75.1234 108.413 73.5858C108.422 73.8113 105.321 75.2811 105.577 75.3912C108.186 73.8732 109.621 72.8901 112.303 71.5554C112.992 71.1978 111.968 71.8202 111.709 71.9892C114.307 70.5248 116.859 69.2746 119.198 67.9791C119.198 67.9791 118.939 68.1481 118.745 68.2748C119.186 68.0327 119.865 67.7286 119.758 67.706L119.316 67.9481C118.531 68.2296 121.075 66.7538 121.097 66.6467C120.405 67.2834 123.467 65.4697 122.375 66.4135C122.687 66.2558 123.022 65.991 122.969 65.9797C123.464 65.7488 123.582 65.7179 123.183 66.0249C124.821 65.1407 124.218 65.3489 125.716 64.6027C125.704 64.6563 125.445 64.8253 125.305 64.9633C126.017 64.4986 126.782 64.0451 128.085 63.4257C128.02 63.4679 128.139 63.437 127.945 63.5638C128.828 63.0794 129.636 62.6908 130.401 62.2374C130.832 62.0487 131.22 61.7952 131.662 61.553C131.856 61.4263 132.104 61.3108 132.298 61.1841C132.481 61.1109 132.664 61.0377 132.805 60.8996C132.92 61.1478 133.089 61.4074 133.258 61.6669C132.717 61.049 133.701 62.4877 133.602 62.6906L134.405 63.9234L134.185 63.3734C134.85 64.465 135.495 65.3847 136.011 66.3888L135.451 65.5989L136.696 67.6524L136.053 66.4537C136.783 67.5031 136.152 66.2507 136.963 67.709C136.879 67.5792 136.994 67.8275 137.217 68.0983C137.27 68.1096 137.206 68.1519 137.206 68.1519L137.141 68.1941L137.012 68.2786C136.893 68.3095 136.829 68.3518 136.71 68.3827C136.474 68.4446 136.28 68.5714 136.097 68.6445C135.526 68.9712 134.997 69.3628 134.209 69.9234C133.961 70.0388 134.265 69.6556 134.135 69.7401C133.919 69.974 133.314 70.4613 132.793 71.0785C132.284 71.6421 131.806 72.3241 131.663 72.7413C131.772 72.4848 131.73 72.4199 131.654 72.5157C131.567 72.6651 131.522 72.8794 131.435 73.0288C131.108 73.5192 131.032 73.615 131.055 73.5079C130.608 74.3083 130.737 74.2238 130.813 74.128C130.889 74.0322 130.954 73.9899 130.473 74.9511C130.507 74.7904 130.495 74.844 130.616 74.5339C129.697 76.5211 129.281 78.5031 129.091 80.4767C128.97 80.7868 129.006 80.3469 129.043 79.9071C129.079 79.4672 129.158 79.0923 129.037 79.4024C128.852 80.8177 128.912 82.3967 129.284 83.8181C129.645 85.293 130.319 86.6102 131.144 87.7358C131.06 87.606 130.986 87.4227 130.848 87.2816C131.051 87.3804 131.294 87.8233 131.685 88.3536C132.077 88.884 132.575 89.437 133.15 89.8941C132.862 89.6656 132.744 89.6965 132.798 89.7078C133.499 90.3596 134.33 90.9269 135.29 91.4097C136.25 91.8925 137.436 92.367 138.815 92.7147C138.708 92.6921 138.59 92.723 138.429 92.6891C139.466 93.0761 141.307 93.3536 142.529 93.3883C142.872 93.3491 143.59 93.389 143.162 93.2985C144.919 93.4463 146.582 93.2387 148.13 92.783C148.904 92.5551 149.678 92.3273 150.357 92.0232C150.722 91.8768 151.088 91.7304 151.401 91.5727L151.831 91.3841L152.014 91.3109C152.068 91.3222 152.144 91.2264 152.121 91.3336C152.11 91.3871 152.141 91.5056 152.183 91.5705L152.214 91.6889C152.214 91.6889 152.257 91.7538 152.245 91.8073C152.203 91.7425 152.203 91.7425 152.161 91.6776C152.172 91.624 152.119 91.6127 152.13 91.5591C152.087 91.4943 152.099 91.4407 152.099 91.4407C152.11 91.3871 152.11 91.3871 152.099 91.4407C152.087 91.4943 152.13 91.5591 152.172 91.624L152.214 91.6889C152.203 91.7425 152.299 91.8187 152.299 91.8187C152.426 92.0133 152.659 92.2306 152.851 92.383C153.18 92.6764 153.563 92.9812 153.882 93.3282C153.82 93.0913 153.659 93.0574 153.256 92.5806C153.555 92.7556 154.172 93.2777 154.628 93.7658C153.682 92.9503 154.552 93.8616 154.848 94.3157C154.805 94.2509 154.955 94.3384 154.966 94.2848C155.845 95.4217 155.298 94.2991 156.538 95.8479L156.431 95.8253C156.929 96.3783 157.45 96.8241 157.926 97.4842C158.031 97.786 157.374 96.92 157.267 96.8973C157.988 97.7211 158.828 98.514 159.312 99.3997C158.994 99.0527 158.614 98.4688 158.295 98.1217C158.876 99.0836 158.972 99.1598 159.448 99.8199C159.617 100.079 159.828 100.404 159.997 100.663C159.786 100.339 159.628 100.026 159.448 99.8199C159.701 100.209 160.039 100.728 160.124 100.858L160.082 100.793L160.177 100.869C160.155 100.976 160.079 101.072 160.003 101.168C159.927 101.264 159.786 101.402 159.646 101.54C159.418 101.827 159.148 102.05 158.866 102.326C158.315 102.825 157.741 103.431 157.156 104.09C158.349 102.664 157.33 103.791 157.31 103.619C156.964 103.938 156.413 104.436 156.511 104.233C155.915 104.946 155.408 105.231 154.584 106.231C154.53 106.22 153.892 106.868 153.99 106.665C153.2 107.505 154.238 106.55 154.215 106.657C153.034 108.029 151.058 109.457 149.314 111.382C147.961 112.774 147.635 113.264 146.574 114.327C146.369 114.507 146.152 114.741 145.946 114.921C145.817 115.006 146.413 114.293 146.413 114.293C145.538 115.003 144.964 115.609 144.196 116.341C144.348 116.15 144.154 116.276 143.884 116.499C143.256 117.093 143.558 116.989 142.683 117.699C142.77 117.55 142.933 117.305 143.214 117.029C142.511 117.719 141.85 118.474 141.082 119.207C140.834 119.322 141.461 118.728 141.689 118.44C140.845 119.269 139.514 120.553 139.34 120.852L139.751 120.492C139.621 120.576 139.709 120.427 139.86 120.235C140.522 119.48 140.952 119.291 141.006 119.303L140.508 119.813C141.251 119.466 142.671 117.753 143.774 116.755L143.524 117.15C141.003 119.582 138.223 122.182 135.401 124.718ZM95.8649 75.3509C95.6173 75.4664 95.2937 75.6776 94.7759 76.0156C95.2289 75.7199 95.606 75.5199 95.8649 75.3509ZM92.2431 77.4378C92.426 77.3647 92.2854 77.5027 91.8323 77.7985C92.0912 77.6295 91.0134 78.2406 90.3239 78.5982C90.7882 78.2489 91.4889 77.8377 92.2431 77.4378ZM151.996 114.579C152.418 114.164 152.829 113.804 153.251 113.389C153.175 113.485 152.882 113.815 152.103 114.601C152.038 114.643 151.931 114.621 151.996 114.579ZM188.093 77.2369C187.952 77.375 187.747 77.5553 187.606 77.6934C188.05 77.172 188.441 76.6394 188.886 76.118C188.81 76.2139 188.571 76.5549 188.093 77.2369ZM195.662 65.9155C195.487 66.2143 195.336 66.4059 195.358 66.2988C195.729 65.5941 196.112 64.8359 196.483 64.1312C196.188 64.7401 195.946 65.3602 195.662 65.9155Z" fill="#121418"/>
<path d="M189.955 35.5312C190.062 35.5539 190.18 35.5228 190.287 35.5455C190.115 35.5652 190.008 35.5425 189.955 35.5312Z" fill="#121418"/>
<path d="M90.4047 200.562C90.3624 200.497 90.3088 200.485 90.2129 200.409C90.2665 200.421 90.3088 200.485 90.4047 200.562Z" fill="#121418"/>
<path d="M13.3288 86.1186C13.523 85.9919 13.7819 85.8229 14.1055 85.6116C13.8466 85.7806 13.5877 85.9496 13.3288 86.1186Z" fill="#121418"/>
<path d="M26.853 79.6831L26.8953 79.748L27.273 79.5478L26.853 79.6831Z" fill="#121418"/>
<path d="M161.555 105.6C161.62 105.558 161.685 105.515 161.825 105.377C161.825 105.377 161.696 105.462 161.555 105.6Z" fill="#121418"/>
<path d="M170.29 96.9766C170.636 96.6582 170.993 96.2862 171.545 95.7874L170.29 96.9766Z" fill="#121418"/>
<path d="M176.906 90.2021C176.982 90.1062 176.993 90.0526 176.993 90.0526L176.906 90.2021Z" fill="#121418"/>
<path d="M103.458 200.351C103.34 200.382 103.211 200.467 103.146 200.509C102.338 200.897 102.898 200.624 103.458 200.351Z" fill="#121418"/>
<path d="M135.097 169.082C134.793 169.466 134.543 169.86 134.239 170.244C134.76 169.626 135.139 169.147 135.097 169.082Z" fill="#121418"/>
<path d="M96.2622 164.97C96.2847 164.862 96.3608 164.767 96.372 164.713L96.2622 164.97Z" fill="#121418"/>
<path d="M134.239 170.244C133.848 170.777 133.338 171.341 132.947 171.874C133.468 171.256 133.913 170.735 134.239 170.244Z" fill="#121418"/>
<path d="M199.687 56.4478L199.83 56.0302C199.83 56.0302 199.83 56.0302 199.842 55.9766C199.754 56.1262 199.721 56.287 199.687 56.4478Z" fill="#121418"/>
<path d="M194.638 68.2557L194.66 68.1486C194.43 68.7153 193.104 70.5055 192.668 71.2526C193.222 70.4745 194.016 69.3553 194.638 68.2557Z" fill="#121418"/>
<path d="M146.152 151.546L146.275 150.957C146.044 151.524 145.802 152.144 145.518 152.7C145.769 152.305 145.954 151.953 146.152 151.546Z" fill="#121418"/>
</svg>
