<svg width="284" height="253" viewBox="0 0 284 253" fill="none" xmlns="http://www.w3.org/2000/svg">
<path d="M93.5644 212.778C93.474 212.756 93.474 212.756 93.474 212.756C93.4515 212.847 93.2935 213.096 93.5644 212.778Z" fill="#E22D2D"/>
<path d="M105.76 202.259L105.884 201.953C105.861 202.044 105.839 202.134 105.76 202.259Z" fill="#E22D2D"/>
<path d="M106.232 201.127C106.289 201.093 106.311 201.002 106.402 201.024C106.402 201.024 106.402 201.024 106.424 200.934L106.232 201.127Z" fill="#E22D2D"/>
<path d="M102.219 203.009L102.127 202.987L102.162 203.044L102.219 203.009Z" fill="#E22D2D"/>
<path d="M94.6617 215.891L94.4245 215.88C94.5488 215.959 94.6053 215.925 94.6617 215.891Z" fill="#E22D2D"/>
<path d="M93.6924 216.32C93.669 216.414 93.669 216.414 93.6924 216.32V216.32Z" fill="#E22D2D"/>
<path d="M103.455 210.198C103.478 210.108 103.478 210.108 103.534 210.074C103.534 210.074 103.421 210.142 103.455 210.198Z" fill="#E22D2D"/>
<path d="M89.5199 218.455L89.5989 218.33C89.5763 218.421 89.4859 218.398 89.5199 218.455Z" fill="#E22D2D"/>
<path d="M91.2795 217.547C91.223 217.581 90.9857 217.57 90.9067 217.695L90.8842 217.786C90.9292 217.604 91.2909 217.694 91.2795 217.547Z" fill="#E22D2D"/>
<path d="M101.742 211.309L101.538 211.355L101.55 211.502L101.742 211.309Z" fill="#E22D2D"/>
<path d="M114.96 196.476C114.869 196.453 114.869 196.453 114.813 196.487C114.903 196.51 114.858 196.691 114.96 196.476Z" fill="#E22D2D"/>
<path d="M125.551 184.305C125.642 184.328 125.608 184.271 125.721 184.203C125.721 184.203 125.721 184.203 125.743 184.112L125.551 184.305Z" fill="#E22D2D"/>
<path d="M120.84 187.842L120.749 187.82L120.727 187.91L120.84 187.842Z" fill="#E22D2D"/>
<path d="M120.957 192.394C120.98 192.301 120.98 192.301 120.98 192.301C120.922 192.336 120.922 192.336 120.957 192.394Z" fill="#E22D2D"/>
<path d="M113.283 201.108C113.306 201.017 113.577 201.085 113.543 201.028C113.509 200.972 113.362 200.983 113.283 201.108Z" fill="#E22D2D"/>
<path d="M119.875 193.663L119.728 193.674L119.74 193.822L119.875 193.663Z" fill="#E22D2D"/>
<path d="M151.941 152.508C151.907 152.067 151.895 151.919 151.963 152.032C151.884 151.772 151.669 151.286 151.229 150.935C150.789 150.585 150.236 150.303 149.886 150.36C150.337 150.472 150.766 150.675 151.116 151.003C151.432 151.275 151.85 151.716 151.918 152.214C152.076 152.734 151.998 153.244 151.739 153.708C151.479 154.173 151.22 154.638 150.995 155.159C150.702 155.567 150.905 155.136 150.983 155.011C150.319 156.337 149.496 157.912 150.172 157.118C150.747 155.77 151.051 155.51 151.705 154.037C151.75 153.471 152.031 152.916 151.941 152.508Z" fill="#E22D2D"/>
<path d="M142.47 170.011C142.707 169.637 142.887 169.297 142.988 169.082C142.831 169.331 142.616 169.615 142.47 170.011C142.493 169.92 142.493 169.92 142.47 170.011Z" fill="#E22D2D"/>
<path d="M142.155 170.509C141.997 170.759 141.839 171.008 141.603 171.382C141.794 171.189 141.941 170.793 142.155 170.509Z" fill="#E22D2D"/>
<path d="M81.9032 216.504C82.3203 216.175 82.5458 216.039 82.7713 215.903C82.4331 216.107 84.8229 213.818 81.9032 216.504Z" fill="#E22D2D"/>
<path d="M142.402 169.898C142.38 169.988 142.279 170.204 142.155 170.51C142.312 170.26 142.357 170.079 142.515 169.83C142.515 169.83 142.481 169.773 142.402 169.898Z" fill="#E22D2D"/>
<path d="M95.9062 128.165C97.0564 127.779 98.1164 127.37 99.2667 126.983C98.3194 127.324 97.1128 127.744 95.9062 128.165Z" fill="#E22D2D"/>
<path d="M45.2513 205.037C45.4429 204.844 45.6007 204.595 45.7923 204.402L45.2513 205.037Z" fill="#E22D2D"/>
<path d="M109.281 123.713C109.924 123.633 110.555 123.406 111.221 123.235C111.367 123.224 111.537 123.122 111.593 123.088L109.281 123.713Z" fill="#E22D2D"/>
<path d="M148.135 159.735C148.112 159.826 147.999 159.894 147.898 160.11L148.135 159.735Z" fill="#E22D2D"/>
<path d="M148.794 158.63L148.107 159.661C148.298 159.468 148.118 159.808 147.915 160.238C146.913 162.153 146.326 162.969 146.123 163.014L146.957 161.587C145.875 162.856 143.701 167.172 142.033 170.027L142.393 168.962C145.368 163.932 148.366 158.811 151.341 153.781C152.884 151.232 148.901 148.94 147.357 151.489C147.334 151.579 147.222 151.647 147.233 151.794C147.278 151.613 147.323 151.432 147.255 151.319C147.278 151.228 147.334 151.194 147.391 151.16C147.526 151.002 147.774 150.775 148.022 150.548C148.191 150.446 148.27 150.321 148.439 150.219C148.608 150.117 148.777 150.015 148.924 150.004C148.134 150.095 147.469 150.651 147.131 151.24C146.883 151.467 146.32 152.192 145.148 154.208L143.446 157.392L142.747 158.276L144.257 155.67C143.333 157.075 142.883 158.117 142.229 159.205C142.037 159.397 141.744 159.805 141.35 160.428L139.761 163.543C139.491 163.861 140.415 162.071 139.152 164.065C138.409 165.515 140.178 162.83 138.826 165.186C137.902 166.591 138.014 166.138 137.057 167.871C136.865 168.064 137.011 167.668 137.406 167.044C137.203 167.475 136.888 167.973 136.549 168.563C136.392 168.812 136.234 169.061 136.076 169.31C136.054 169.401 135.941 169.469 135.918 169.56C135.884 169.503 135.794 169.48 135.76 169.424L135.67 169.401C135.58 169.379 135.58 169.379 135.49 169.356C135.399 169.334 135.309 169.311 135.129 169.266C134.677 169.154 134.35 169.12 134.125 169.256C133.831 169.279 133.538 169.302 133.222 169.416C133.166 169.45 133.053 169.518 132.997 169.552L132.737 169.632C132.568 169.734 132.512 169.768 132.343 169.87C131.779 170.21 131.192 170.641 130.685 170.948C129.648 171.651 128.779 172.252 128.768 172.105C128.351 172.434 126.299 174.134 125.059 175.268C126.152 174.146 124.934 175.189 123.581 176.391C122.172 177.627 120.661 179.078 120.898 178.704C120.199 179.588 118.745 181.005 117.347 182.772C116.648 183.656 115.893 184.574 115.194 185.458C114.879 185.957 114.552 186.308 114.236 186.807C114.078 187.056 113.921 187.305 113.819 187.52C113.898 187.396 113.966 187.124 114.078 187.056C114 187.18 113.943 187.214 113.887 187.248C113.864 187.339 113.83 187.283 113.808 187.373L113.83 187.283C113.853 187.192 113.797 187.226 113.819 187.135L113.785 187.079L113.751 187.022L113.717 186.966L113.593 186.887C113.559 186.83 113.469 186.808 113.401 186.694C113.277 186.615 113.209 186.502 113.085 186.423C112.589 186.107 112.092 185.791 111.359 185.848C111.303 185.882 110.953 185.939 110.468 186.155C110.039 186.337 109.487 186.824 109.16 187.176C108.337 187.98 107.435 188.91 106.781 189.613C104.729 191.313 107.773 188.321 107.097 188.729C107.3 188.684 103.816 192.096 104.572 191.563C103.027 192.957 103.252 192.821 102.418 193.479C102.306 193.932 101.054 194.918 99.9719 196.187C97.8073 198.341 99.2614 196.539 97.0068 199.055C95.8794 200.121 97.8071 197.956 97.8071 197.956C95.5186 200.416 96.8716 199.214 96.4208 199.871C93.704 202.897 95.0453 201.164 94.087 202.127C92.4638 204.031 91.3141 205.572 90.0742 207.091C89.9953 207.215 89.6909 207.476 89.9276 207.102C89.1273 208.201 87.8196 209.607 86.6588 211.386C86.3658 211.793 86.0164 212.235 85.8136 212.666L85.5769 213.04C85.5544 213.13 85.5544 213.13 85.5544 213.13L85.4755 213.255C85.2839 213.448 85.1147 213.55 84.957 213.799C84.3031 214.502 83.6718 215.114 83.1307 215.749C82.939 215.941 82.8827 215.975 82.8263 216.009C83.2435 215.68 83.3676 215.76 83.3451 215.85C82.2741 216.882 81.3722 217.811 80.8309 218.061C81.4961 217.505 81.5411 217.324 81.8116 217.007L80.6842 218.072C79.5341 218.844 82.2852 216.644 82.1836 216.474C79.9851 218.571 77.189 220.952 75.2834 222.257C75.0239 222.336 76.1402 221.509 77.0085 220.907C77.8767 220.306 78.3389 219.796 77.1437 220.749C78.1247 220.08 79.038 219.297 79.9851 218.571C77.7187 220.171 81.6764 217.165 79.5452 218.606C77.6848 220.114 76.6588 220.964 75.565 221.702C74.4487 222.53 73.4452 223.289 71.3816 224.458C70.5133 225.059 71.7312 224.401 70.8969 225.059C67.9988 226.885 66.6904 227.136 65.6189 227.398C65.1001 227.557 64.6038 227.626 64.0172 227.672C63.3742 227.752 62.5621 227.934 61.4679 227.901C60.8474 227.891 60.4639 227.891 59.8884 227.7C59.6401 227.542 59.3919 227.384 59.29 226.829C59.1995 226.422 59.3795 225.697 59.7062 224.961C59.6162 225.323 59.56 225.742 59.5264 226.07C59.7176 225.108 60.1006 224.337 60.3373 223.964C60.5964 223.499 60.6865 223.137 60.8104 222.831C61.0581 222.219 61.4187 221.54 62.8614 219.591C62.3881 220.338 60.9456 222.672 61.2837 222.083C62.1289 220.803 62.4784 220.361 62.6811 219.931C62.8164 219.772 62.8839 219.5 63.0417 219.251C63.1206 219.126 63.2558 218.968 63.3572 218.752C63.4361 218.628 63.4361 218.628 63.4925 218.594C63.5489 218.56 63.6842 218.401 63.7969 218.333L64.3157 218.174C68.3976 215.248 72.5805 211.721 76.628 207.969C76.4363 208.162 75.8164 208.921 76.7521 208.048C79.3113 205.656 81.9381 202.992 84.4182 200.34L85.3426 199.32L85.8048 198.81C85.9964 198.617 86.1881 198.425 86.312 198.119C86.9431 197.122 86.6602 195.753 86.0054 194.916C85.373 193.988 84.0416 193.56 83.004 193.878C82.7446 193.958 82.519 194.094 82.2596 194.174L81.6958 194.514C81.3236 194.662 80.929 194.9 80.5907 195.104C79.8916 195.603 79.215 196.012 78.437 196.635C77.9634 196.998 77.4785 197.214 78.0084 196.817C75.787 198.235 77.9859 196.908 76.926 197.701C75.6631 198.541 75.2684 198.779 75.99 198.189C74.1521 199.607 71.5363 201.648 69.1123 203.881C66.6883 206.115 64.3435 208.608 62.7428 210.422C62.9344 210.229 63.1147 209.889 63.3064 209.696C62.0325 211.158 61.4803 212.031 60.8379 212.881C60.5448 213.289 60.2518 213.696 59.8798 214.229C59.801 214.354 59.6882 214.422 59.6093 214.546C59.5529 214.58 59.5304 214.671 59.4177 214.739L59.3613 214.773C59.3613 214.773 59.3388 214.864 59.3049 214.807C58.9666 215.011 58.6847 215.181 58.3239 215.476L58.8538 215.079C55.4936 217.416 51.8287 219.628 48.2314 221.569C46.4496 222.567 44.7129 223.385 43.0664 224.225C41.4538 225.121 39.954 225.949 38.5103 226.359C38.2848 226.495 37.6871 226.779 36.8975 226.87C36.1981 226.985 35.273 226.85 34.7537 226.239C34.3247 225.651 34.1661 224.746 34.1995 224.033C34.2668 223.376 34.3116 222.81 34.2438 222.697C34.5139 221.61 34.8405 220.874 35.0319 220.296C35.2233 219.718 35.46 219.345 35.6853 218.824C35.8542 218.337 36.1359 217.781 36.5528 217.068C36.6992 216.671 36.9584 216.207 37.3078 215.765C37.4656 215.516 37.6233 215.266 37.8036 214.927C38.0178 214.643 38.1417 214.337 38.3783 213.964C39.2686 212.502 39.6178 211.675 40.8688 209.919L40.9591 209.941C41.4888 209.16 42.1313 208.31 42.6949 207.585C43.0782 207.199 43.4953 206.87 43.8223 206.519C44.2845 206.009 44.6903 205.533 45.1525 205.023C44.6339 205.567 43.9462 206.213 44.025 206.089C45.0508 204.853 46.4488 203.47 47.5537 202.495C48.6811 201.43 49.538 200.681 49.6282 200.704C50.5076 199.865 51.4433 198.992 52.3791 198.119C53.2585 197.28 54.262 196.521 55.2316 195.704C55.1527 195.829 54.6003 196.316 53.9915 196.838C56.1224 195.013 54.2847 196.815 56.8554 194.57C56.4382 194.899 57.0131 194.321 57.0695 194.287C57.3739 194.026 57.9378 193.686 58.4902 193.198C58.7382 192.971 59.0765 192.767 59.3246 192.54L59.381 192.506L59.4373 192.472L59.6629 192.336C59.832 192.234 60.035 192.189 60.2042 192.087C61.6476 191.292 63.2602 190.396 64.5232 189.556L64.0835 189.976C68.9663 187.105 74.0291 183.51 78.9225 179.632C77.0847 181.049 77.4002 180.551 78.8434 179.372L78.8209 179.462L79.1931 179.315L79.2156 179.224C79.272 179.19 79.475 179.144 79.5877 179.076C80.0724 178.476 79.6103 178.986 79.3283 179.156C79.272 179.19 79.272 179.19 79.1592 179.258C79.1817 179.167 79.2156 179.224 79.3508 179.065C79.4072 179.031 79.4861 178.907 79.5425 178.873C79.6214 178.748 79.7342 178.68 79.8355 178.465C80.2639 177.898 80.2522 177.366 80.2295 177.072C80.2067 176.777 80.1954 176.63 80.2631 176.743C80.3534 176.766 80.3422 177.004 80.4214 177.264C80.4328 177.411 80.3877 177.592 80.3991 177.739C80.4891 177.377 80.4775 176.845 80.3645 176.528C80.1724 175.951 79.8675 175.442 79.4273 175.092C79.3257 174.922 79.8675 175.442 80.0594 175.634C79.8561 175.295 79.5062 174.967 78.9419 174.538C78.355 174.199 77.5427 173.996 76.6178 174.247C76.3584 174.326 76.2456 174.394 76.0201 174.53C75.851 174.633 75.6818 174.735 75.6254 174.769C75.3999 174.905 75.0616 175.109 74.8361 175.245C74.3625 175.608 73.8551 175.914 73.5168 176.119L73.3701 176.13C68.0815 179.477 65.6684 181.087 61.4625 183.934C61.5077 184.138 59.7937 185.25 58.5986 186.202C57.8431 186.735 57.0312 187.302 56.2194 187.869C55.8247 188.108 55.3961 188.289 55.0014 188.528C54.5165 188.743 54.0655 189.016 53.6369 189.197C51.7874 190.083 49.7912 190.98 47.7387 191.911C44.8855 193.171 46.9494 192.387 45.6412 193.023C45.5509 193.001 44.4005 193.387 43.5659 193.66C42.7313 193.933 42.2125 194.092 43.2726 193.683C42.6749 193.967 42.1222 194.069 41.6259 194.138C41.3665 194.217 41.1296 194.206 40.9491 194.161C40.8588 194.139 40.7685 194.116 40.6783 194.094C40.588 194.071 40.588 194.071 40.588 194.071C40.588 194.071 40.4978 194.049 40.5541 194.015C40.5766 193.924 40.5766 193.924 40.5428 193.868C40.4975 193.664 40.5989 193.449 40.6439 193.267C40.7 192.849 40.869 192.362 40.959 191.999C41.2518 191.206 41.6798 190.255 42.2545 189.292C42.8856 188.295 43.6181 187.083 44.5084 185.621C44.0237 186.222 43.5729 186.879 43.8095 186.505C44.497 185.474 45.3986 184.16 45.3536 184.341L45.1395 184.624C47.2244 181.44 49.9635 177.939 52.8832 174.867C55.7692 171.739 58.7456 169.018 60.944 166.921L60.696 167.148C62.2067 165.697 63.8416 164.325 65.4764 162.953C67.8217 161.229 64.1798 164.121 65.8825 162.862C66.5816 162.363 67.1565 161.785 67.8331 161.376C68.1375 161.115 68.4194 160.945 68.7577 160.741C68.8141 160.707 68.8141 160.707 68.8366 160.616L69.096 160.537C69.2427 160.525 69.4682 160.389 69.6148 160.378C71.0247 159.912 72.2201 159.344 73.3477 158.663C74.4754 157.983 75.5014 157.132 76.4372 156.259C76.8994 155.749 77.3615 155.239 77.7673 154.763C78.252 154.163 78.5674 153.279 78.4427 152.43C78.4197 151.751 78.0357 150.982 77.3134 150.417C76.9071 150.123 76.4219 149.954 75.9142 149.876C75.384 149.888 74.7974 149.934 74.3464 150.206C72.7338 151.102 71.0987 152.089 69.3283 153.235C68.4262 153.78 67.6143 154.347 66.7799 155.004L66.4416 155.209L66.2725 155.311L66.0131 155.39L65.6634 155.447C65.1671 155.516 64.7272 155.551 64.2872 155.585C63.8473 155.62 63.4299 155.564 62.9561 155.542C62.7755 155.497 62.4822 155.52 62.3017 155.475L62.2115 155.452L62.1212 155.43C62.0309 155.407 62.0873 155.373 62.1437 155.339C62.1437 155.339 62.1437 155.339 62.1662 155.248L62.324 154.999C62.4593 154.84 62.4479 154.693 62.5831 154.535L62.369 154.818C62.5829 154.15 63.0001 153.821 63.1804 153.481C63.417 153.107 63.6651 152.88 63.9581 152.473C63.789 152.575 63.0001 153.821 63.4959 152.983C65.2089 150.331 67.6668 148.155 70.3279 146.317C72.989 144.48 76 142.97 79.0224 141.608C82.0449 140.245 85.2028 139.109 88.3268 137.916C91.4509 136.723 94.5749 135.531 97.6764 134.428C102.188 132.86 100.078 133.055 105.932 131.293L104.331 131.952C108.955 130.315 113.68 128.849 118.508 127.552C120.91 126.948 123.279 126.289 125.681 125.685C126.866 125.356 128.027 125.116 129.212 124.786C129.764 124.684 130.373 124.547 130.949 124.354L131.817 124.138C132.077 124.058 132.37 124.035 132.742 123.887C132.573 123.99 132.426 124.001 132.37 124.035C132.313 124.069 132.223 124.047 132.11 124.115C131.941 124.217 131.704 124.206 131.242 124.331C131.501 124.251 131.795 124.228 132.11 124.115C132.167 124.081 132.257 124.103 132.37 124.035C132.426 124.001 132.629 123.955 132.742 123.887C132.889 123.876 133.001 123.808 133.114 123.74C133.171 123.706 133.34 123.604 133.452 123.536C133.599 123.524 133.678 123.399 133.757 123.275C133.836 123.15 133.949 123.082 134.027 122.957C134.219 122.765 134.343 122.459 134.41 122.187C134.602 121.61 134.59 121.078 134.432 120.557C134.206 119.539 133.472 118.826 132.885 118.488C132.603 118.273 132.276 118.239 132.095 118.194C131.915 118.149 131.768 118.161 131.768 118.161C131.294 118.139 131.091 118.184 130.911 118.139C130.764 118.151 130.708 118.185 130.708 118.185C130.708 118.185 130.73 118.094 130.268 118.219C128.26 118.584 125.35 119.494 124.301 119.665C124.155 119.677 124.561 119.585 124.82 119.506C123.139 119.904 119.35 120.883 120.489 120.734C116.981 121.543 113.846 122.588 111.071 123.339C109.323 124.009 105.127 125.079 104.654 125.442C104.732 125.317 103.232 125.761 101.45 126.375C99.6684 126.988 97.5481 127.806 96.5444 128.181C97.1985 127.863 94.706 128.829 95.439 128.386C92.969 129.261 90.7699 130.204 91.2662 130.135C86.7209 131.647 82.4695 133.905 79.819 134.735C76.3117 136.314 72.8946 137.914 69.7935 139.786C66.6925 141.658 63.7608 143.813 61.3935 146.397C61.3482 146.193 62.7462 144.811 64.2796 143.654C65.7228 142.475 67.2677 141.465 67.0872 141.42C64.4035 143.348 62.329 145.139 60.6269 147.168C58.9811 149.162 57.4145 151.417 56.1756 154.475C55.8828 155.268 55.9842 155.053 56.1192 154.509C56.2542 153.966 56.6148 153.286 56.7048 152.924C56.502 153.354 56.2992 153.785 56.0964 154.215C55.8937 154.646 55.7811 155.099 55.6347 155.495L55.387 156.107L55.2969 156.469C55.2744 156.559 55.2294 156.741 55.2069 156.831C55.1283 157.341 55.264 157.952 55.5351 158.404C55.7497 158.891 56.111 159.366 56.6639 159.648C57.0927 159.851 57.4877 159.998 57.8826 160.144L58.4919 160.393L58.9432 160.505C59.0335 160.528 59.214 160.573 59.3043 160.595C59.2818 160.686 59.1126 160.788 59.0562 160.822L58.5263 161.219C57.9963 161.616 57.4778 162.16 57.0042 162.523C55.9557 163.464 55.0199 164.337 54.118 165.266C54.118 165.266 54.5802 164.756 54.9974 164.427C54.118 165.266 53.0131 166.241 53.2162 166.196L54.0392 165.391C54.7946 164.858 53.9716 165.663 53.0472 166.683C52.1229 167.703 50.9504 168.949 50.9618 169.097C51.4915 168.315 50.4769 169.312 49.575 170.242C48.6731 171.171 47.9179 172.089 48.7857 170.718C48.301 171.319 47.681 172.078 47.8501 171.976C47.1174 172.803 46.813 173.064 47.5118 172.18C46.1591 173.767 45.8211 174.356 45.4153 174.832C45.0997 175.331 44.6939 175.806 43.6006 177.314C43.5104 177.291 44.0515 176.656 44.2317 176.317C43.1723 177.88 42.1129 179.444 40.2194 182.05C40.2419 181.959 40.1291 182.027 40.3433 181.744C38.9119 183.84 37.6948 185.653 36.7034 187.715C36.14 188.825 35.7572 189.98 35.4083 191.192C35.0932 192.46 34.9362 193.864 35.3207 195.403C35.1058 194.531 35.061 195.098 35.2646 195.822C35.4114 196.195 35.5358 196.659 35.6827 197.032C35.4233 197.112 35.5927 197.395 35.6266 197.451C35.954 197.87 36.4619 198.333 36.8682 198.627C37.3648 198.943 37.8613 199.26 38.4593 199.361C38.2788 199.316 38.0305 199.157 37.85 199.112C37.692 198.977 37.4212 198.909 37.2631 198.774C38.2563 199.406 39.328 199.529 40.3095 199.63C40.6028 199.607 40.8397 199.618 41.0766 199.629C41.2233 199.617 41.336 199.549 41.5166 199.594C41.776 199.515 42.0693 199.492 42.3851 199.378L42.5317 199.366L42.4528 199.491L42.1709 199.661L41.7312 200.081L42.0243 199.673L42.1595 199.514L42.2159 199.48C42.2159 199.48 42.1595 199.514 42.0693 199.492C42.3287 199.412 42.0468 199.582 42.0468 199.582L41.889 199.831L41.4268 200.341L40.5813 201.237L39.7697 202.189L40.8068 201.101L41.3254 200.557L41.7087 200.171C41.4043 200.432 41.1112 200.84 41.1226 200.987C41.0437 201.112 41.1001 201.078 41.0776 201.168C41.0551 201.259 40.9423 201.327 39.7249 202.755C40.2096 202.154 37.91 204.852 36.9406 206.053C36.1743 207.208 35.3515 208.398 34.1568 210.12C33.7735 210.506 34.1791 209.645 33.9649 209.928C33.7172 210.54 32.793 211.945 31.9366 213.463C31.0803 214.981 30.4044 216.544 30.1455 217.393C30.3369 216.816 30.2127 216.737 30.1677 216.918C30.0777 217.28 29.9313 217.677 29.8413 218.039C29.3457 219.262 29.3007 219.443 29.3118 219.206C28.6926 221.12 28.8729 220.78 28.9518 220.655C28.9743 220.565 29.087 220.496 28.9857 220.712C28.9181 220.983 28.8056 221.436 28.5131 222.614C28.6031 222.252 28.4678 222.41 28.7042 221.652C28.4117 222.829 28.2658 223.995 28.2665 225.15C28.2672 226.305 28.4146 227.448 28.9117 228.534C29.1263 229.02 29.4651 229.586 29.8489 229.97C30.1763 230.389 30.6504 230.796 31.1469 231.112C32.0837 231.779 33.1104 232.083 34.2499 232.319C34.5093 232.239 34.3966 232.307 34.1822 232.206C34.0919 232.183 33.8211 232.116 33.6745 232.127C33.494 232.082 33.2232 232.015 33.0426 231.97C32.1625 231.654 31.3613 231.213 31.982 231.609C32.7155 231.936 33.4714 232.173 34.3402 232.341C35.0284 232.465 35.9196 232.543 36.6754 232.395C38.3109 232.178 39.8335 231.644 41.2883 230.996C42.7432 230.349 44.1302 229.589 45.4609 228.863C46.848 228.102 48.2125 227.433 49.4868 226.74L48.4945 227.262C48.7989 227.002 49.5318 226.559 50.5581 226.094C51.0092 225.821 51.6069 225.538 52.2046 225.254C52.464 225.174 52.5993 225.015 52.8587 224.936L53.1745 224.822L53.3436 224.72C53.3436 224.72 53.5128 224.618 53.4339 224.743C53.3664 225.014 53.2988 225.286 53.2538 225.467C53.3325 224.958 53.2197 225.026 53.1972 225.117C53.1747 225.207 53.1297 225.388 53.1072 225.479L53.0622 225.66L53.006 226.079C52.9274 226.589 52.939 227.121 52.9845 227.709C53.1319 228.852 53.5726 229.972 54.4418 230.911C54.8595 231.352 55.2771 231.793 55.9203 232.097C56.225 232.221 56.4169 232.414 56.7554 232.594C57.0601 232.718 57.3648 232.843 57.6694 232.967C58.9445 233.429 60.4337 233.608 61.9904 233.516C61.7309 233.595 61.494 233.584 61.2008 233.607C62.4417 233.628 64.0209 233.445 65.6337 232.933C67.1902 232.456 68.7014 231.775 69.9307 231.263C70.6411 230.912 71.8816 230.163 71.0808 230.492C73.5844 229.289 75.8961 227.893 78.0159 226.306C79.1097 225.568 80.1357 224.718 81.0714 223.845C81.6014 223.448 82.0072 222.972 82.5372 222.575L83.2024 222.02L83.4504 221.793L83.5293 221.668L83.5857 221.634C83.5857 221.634 83.6082 221.544 83.6759 221.657C83.7551 221.917 83.8228 222.03 83.9245 222.2C83.9583 222.256 84.06 222.426 84.1277 222.539C84.2294 222.709 84.2632 222.765 84.3649 222.935C84.7262 223.41 84.9972 223.862 85.4374 224.213C85.8776 224.563 86.4869 224.811 87.1073 224.822C87.3104 224.776 87.4909 224.821 87.66 224.719C87.8067 224.708 87.9758 224.606 88.0886 224.538L88.8329 224.242C88.5735 224.322 88.4608 224.39 88.2352 224.526C87.9758 224.606 87.8631 224.674 87.6375 224.81C87.2654 224.957 87.1412 224.878 87.4909 224.821C87.6375 224.81 87.8067 224.708 87.9194 224.64L88.2916 224.492L88.9457 224.174C89.4306 223.958 89.8817 223.686 90.3103 223.504C91.2463 223.016 92.1598 222.619 93.0394 222.165C92.5431 222.234 92.295 222.46 91.0657 222.971C91.404 222.767 91.9454 222.517 92.5656 222.143C93.2197 221.825 93.8963 221.417 94.5165 221.042C92.1145 222.415 94.6181 221.212 95.6669 220.656C95.4075 220.735 95.8585 220.463 95.6894 220.565C98.5313 219.158 96.0388 220.123 99.8278 217.99L99.6362 218.183C101.012 217.275 102.151 216.357 103.639 215.381C104.293 215.063 102.331 216.402 102.23 216.617C104.248 215.245 106.041 213.623 107.856 212.297C107.056 213.011 105.917 213.929 105.049 214.53C106.064 213.918 106.594 213.521 107.067 213.158C107.541 212.795 107.992 212.523 108.623 211.911L108.454 212.013C109.536 211.128 110.619 210.244 111.701 209.36C111.453 209.586 111.149 209.847 110.867 210.017C111.926 208.838 113.054 207.773 114.294 206.639C114.565 206.322 114.925 206.027 115.196 205.71C115.387 205.517 115.466 205.392 115.658 205.2C115.737 205.075 115.85 205.007 115.906 204.973L116.244 204.769C117.034 204.292 117.812 203.669 118.612 202.954C117.812 203.669 117.451 203.963 117.225 204.1C117.034 204.292 117.034 204.292 117.203 204.19C117.428 204.054 118.071 203.589 117.97 203.804C118.838 203.203 120.146 202.183 119.785 202.477C121.149 201.038 122.277 200.357 123.956 198.034C124.103 198.023 125.275 196.391 125.072 196.822C126.594 194.748 124.633 197.241 124.768 197.082C127.09 193.91 130.11 189.468 132.803 184.608C135.012 180.734 135.553 179.714 137.254 176.531C137.457 176.1 137.727 175.783 137.93 175.353C138.381 174.696 137.299 176.735 137.299 176.735C138.618 174.707 139.553 173.064 140.669 171.081C140.466 171.512 140.759 171.104 141.153 170.481C142.122 168.895 141.683 169.314 142.911 167.263C142.765 167.66 142.539 168.181 142.156 168.951C143.249 167.059 144.252 165.145 145.368 163.162C145.717 162.72 144.782 164.363 144.399 165.133C146.529 162.923 148.558 159.388 148.794 158.63ZM90.7018 218.263L90.8032 218.047C90.8934 218.07 90.8934 218.07 90.9273 218.127C90.8484 218.251 90.7581 218.229 90.7018 218.263ZM92.0663 217.593C92.0888 217.502 92.0888 217.502 92.2016 217.434L92.3257 217.513C92.1791 217.525 92.1227 217.559 92.0663 217.593ZM97.0169 214.836C97.0394 214.745 97.0394 214.745 97.1521 214.677L97.186 214.733C97.0958 214.711 97.0394 214.745 97.0169 214.836ZM96.9002 208.746C96.8438 208.78 96.8213 208.87 96.7085 208.938C96.6183 208.916 96.6747 208.882 96.6747 208.882C96.6183 208.916 96.7874 208.814 96.9002 208.746ZM96.4605 209.165C96.438 209.256 96.4041 209.199 96.3816 209.29C96.3816 209.29 96.438 209.256 96.4605 209.165ZM89.2469 218.91C89.2131 218.853 89.1453 218.74 89.1678 218.65L89.2467 218.525C89.2581 218.672 89.2356 218.763 89.2469 218.91ZM88.7395 219.216C88.6831 219.25 88.6831 219.25 88.7395 219.216V219.216ZM89.2469 218.91L89.3033 218.876C89.3936 218.898 89.3372 218.932 89.3372 218.932C89.4161 218.808 89.4611 218.627 89.3933 218.514C89.3708 218.604 89.3708 218.604 89.2581 218.672C89.2806 218.582 89.2467 218.525 89.1789 218.412C89.2692 218.434 89.2353 218.378 89.3481 218.31C89.3142 218.253 89.2465 218.14 89.1448 217.97C89.2012 217.936 89.3367 218.163 89.3478 217.925C89.2462 217.755 89.0884 218.005 89.0996 217.767C89.2687 217.665 89.3026 217.721 89.2912 217.574C89.3815 217.597 89.3815 217.597 89.4154 217.653C89.404 217.506 89.5054 217.291 89.4376 217.178C89.6068 217.076 89.5501 216.725 89.8209 216.792C89.8209 216.792 89.8095 216.645 89.7757 216.589C89.6854 216.566 89.7418 216.532 89.7643 216.441C89.8884 216.521 89.7757 216.589 89.9673 216.396C90.0462 216.271 90.2154 216.169 90.2831 216.282C90.204 216.022 90.7114 215.716 90.8353 215.41L90.8128 215.5C90.982 215.398 91.0383 215.364 91.185 215.353C91.0834 215.183 91.2411 214.934 91.2861 214.753C91.5455 214.673 91.3653 215.013 91.5458 215.058C91.4217 214.979 91.7486 214.628 91.6019 214.639C91.8613 214.559 91.7711 214.537 91.9516 214.582C91.7597 214.39 92.0869 214.423 92.0416 214.22C92.2672 214.083 92.1996 214.355 92.4138 214.072C92.5604 214.06 92.459 214.276 92.459 214.276C92.6507 214.083 92.4138 214.072 92.4024 213.925C92.6166 213.642 92.6054 213.879 92.7521 213.868C92.8874 213.709 92.8646 213.415 92.9435 213.29L93.0338 213.313C93.1013 213.041 93.4959 212.803 93.5296 212.474L93.6198 212.497C93.5296 212.474 93.4618 212.361 93.3716 212.339C93.4505 212.214 93.4391 212.067 93.5632 212.146C93.5068 212.18 93.5407 212.237 93.5407 212.237L93.5632 212.146C93.7437 212.191 93.4279 212.305 93.586 212.44C93.7437 212.191 93.8676 211.885 94.0368 211.783C94.1948 211.919 93.7437 212.191 94.0595 212.077L93.6649 212.316C93.992 212.349 93.4957 212.418 93.8567 212.508C94.1612 212.247 94.0595 212.077 94.4542 211.839C94.4428 211.692 94.3301 211.76 94.2623 211.647C94.544 211.092 94.8489 211.601 95.0178 211.114C95.0064 210.967 94.9048 210.797 95.1528 210.57L95.2319 210.831C95.5364 210.57 95.1753 210.48 95.57 210.242C95.5475 210.332 95.4461 210.547 95.4122 210.491C95.728 210.377 95.4572 210.31 95.5586 210.094L95.7167 210.23C95.9872 209.913 96.19 209.482 96.483 209.074C96.4605 209.165 96.4944 209.221 96.6072 209.153C96.9227 208.655 97.4188 208.201 97.8923 207.839L97.9598 207.567C97.9824 207.476 98.1065 207.555 98.0501 207.589C98.2418 207.397 98.0162 207.533 98.0049 207.386C98.0837 207.261 98.174 207.284 98.0951 207.408C98.2415 207.012 98.636 206.389 99.0306 206.15L99.0081 206.241C99.2562 206.014 99.0304 205.765 99.2559 205.629L99.2334 205.72C99.7859 205.232 100.146 204.553 100.688 204.303C100.609 204.043 101.24 203.815 100.992 203.657C101.364 203.51 101.364 203.51 101.759 203.271C101.838 203.147 101.736 202.977 101.871 202.818L101.995 202.898L102.085 202.535L102.288 202.49L102.424 202.331C102.367 202.365 102.255 202.433 102.277 202.342C102.435 202.093 102.807 201.946 102.863 201.911L103.201 201.322C103.235 201.379 103.179 201.413 103.134 201.594C103.224 201.232 103.314 201.639 103.438 201.333C103.348 201.311 103.405 201.277 103.405 201.277C103.551 201.265 103.822 200.948 103.923 200.733L103.957 200.789C104.318 200.495 104.543 199.973 104.926 199.588C104.757 199.69 104.656 199.521 104.734 199.396L104.915 199.441C104.904 199.294 104.746 199.543 104.813 199.271C105.005 199.079 104.994 199.316 104.971 199.407L105.129 199.158C105.219 199.18 105.163 199.214 105.141 199.305C105.129 199.158 105.513 199.157 105.49 198.863L105.58 198.885C105.964 198.5 106.065 198.285 106.392 197.933C106.268 197.854 106.437 197.752 106.448 197.514C106.696 197.288 107.034 197.084 107.282 196.857C107.44 196.608 107.271 196.71 107.26 196.563C107.384 196.642 107.654 196.324 107.553 196.539C107.823 196.222 107.902 196.098 108.274 195.565C108.184 195.542 108.128 195.576 108.184 195.542C108.263 195.418 108.409 195.406 108.443 195.463C108.466 195.372 108.601 195.214 108.658 195.18C108.635 195.27 108.522 195.338 108.5 195.429C108.263 195.803 108.827 195.847 108.354 196.21L108.274 195.95C108.072 196.765 107.542 197.547 107.34 198.362C107.362 198.272 107.306 198.306 107.328 198.215C107.159 198.317 107.081 198.827 107.171 198.849C107.092 198.974 107.081 198.827 107.024 198.861C106.855 198.963 107.002 199.336 106.855 199.348C106.855 199.348 106.878 199.257 106.821 199.291C106.833 199.438 106.562 199.756 106.799 199.767C106.585 200.05 106.664 200.31 106.45 200.594C106.529 200.854 106.191 201.058 106.349 201.194C106.191 201.058 105.999 201.636 105.988 201.873C105.954 201.817 105.909 201.998 105.785 201.919C105.74 202.1 105.673 202.372 105.819 202.36C105.402 202.689 105.741 203.255 105.301 203.289C105.211 203.652 105.234 203.946 105.11 204.252C105.02 204.614 105.054 205.056 105.167 205.372C105.02 205.384 104.975 205.18 105.02 204.999C104.975 204.795 105.076 204.58 104.93 204.592C104.964 205.418 105.28 205.689 105.596 206.345C105.698 206.515 105.506 206.323 105.416 206.3C105.641 206.549 105.811 206.832 106.037 207.08C106.071 207.137 106.161 207.16 106.341 207.205L106.251 207.182C106.251 207.182 106.251 207.182 106.341 207.205C106.398 207.171 106.488 207.193 106.635 207.182C106.928 207.159 106.883 207.34 106.939 207.306C106.578 207.216 106.545 207.544 106.15 207.397C106.15 207.397 106.184 207.454 106.274 207.476C106.217 207.51 106.127 207.488 106.093 207.431C106.071 207.522 106.195 207.601 106.026 207.703C105.935 207.681 105.992 207.647 105.992 207.647C106.026 207.703 106.037 207.85 105.789 208.077C105.789 208.077 105.699 208.054 105.812 207.986C105.451 208.281 105.395 208.7 104.91 208.916C104.887 208.622 104.763 208.927 104.549 208.826L104.357 209.018L104.447 209.041C104.256 209.234 104.154 209.449 103.985 209.551L104.12 209.392L103.76 209.687L104.019 209.608C103.861 209.857 104.211 209.8 103.895 209.913C103.918 209.823 103.703 210.106 103.523 210.061C103.5 210.152 103.365 210.31 103.252 210.378C103.162 210.356 103.151 210.209 103.06 210.186C103.106 210.39 102.643 210.515 102.632 210.753C102.655 210.662 102.621 210.606 102.621 210.606L102.598 210.696C102.452 210.708 102.452 210.708 102.418 210.651C102.079 210.855 102.666 210.809 102.294 210.957C102.294 210.957 102.294 210.957 102.316 210.866C101.944 211.014 101.708 211.388 101.392 211.502C101.234 211.366 101.64 211.275 101.459 211.23C101.042 211.559 100.727 212.057 100.242 212.273L100.298 212.239C100.377 212.499 99.9258 212.386 99.7341 212.579C99.7566 212.489 99.7228 212.432 99.7228 212.432C99.3845 212.636 99.1364 212.863 98.8095 213.214L98.832 213.124C98.5726 213.203 98.3809 213.396 98.1215 213.476C98.099 213.566 97.9863 213.634 98.0765 213.657C97.3094 213.658 97.028 214.598 96.3512 214.621C96.4075 214.587 96.4301 214.497 96.4301 214.497L96.0129 214.826C96.092 215.086 96.0581 215.029 96.2386 215.074C96.2161 215.165 96.0809 215.324 96.0245 215.358C96.2161 215.165 95.9229 215.188 95.8326 215.165C95.9229 215.188 95.8665 215.222 95.8665 215.222C95.5393 215.188 95.9117 215.426 95.5621 215.483L95.5282 215.426C95.4493 215.551 95.3365 215.619 95.2238 215.687C95.0996 215.608 95.3026 215.562 95.2913 215.415C95.1221 215.517 95.0885 215.846 94.8516 215.835C94.908 215.801 95.0432 215.642 95.0996 215.608C94.8288 215.54 94.8063 215.631 94.6372 215.733L94.265 215.881L94.3553 215.903C94.333 216.379 93.9381 216.232 93.7578 216.572C93.9945 216.198 93.7464 216.425 93.6787 216.312C93.5884 216.289 93.4756 216.357 93.4981 216.267C93.3629 216.425 93.2387 216.346 93.081 216.595C92.9907 216.573 92.9118 216.698 92.9004 216.55C92.7088 216.743 92.9907 216.573 93.0246 216.629C92.8104 216.913 92.2125 216.812 91.9194 217.22C91.615 217.48 91.6264 217.628 91.322 217.888L91.2656 217.922C91.1753 217.9 91.3106 217.741 91.3106 217.741C91.1076 217.787 90.9384 217.889 90.7693 217.991C90.7918 217.9 90.7354 217.934 90.6451 217.912C90.476 218.014 90.6001 218.093 90.3971 218.139C90.4196 218.048 90.4196 218.048 90.4646 217.867C90.2955 217.969 90.1602 218.128 90.0249 218.286C89.9347 218.264 90.0699 218.105 90.0924 218.014C89.9008 218.207 89.6414 218.287 89.6302 218.525L89.7769 218.513C89.7205 218.547 89.6528 218.434 89.7655 218.366C89.9008 218.207 90.0249 218.286 90.0249 218.286L89.946 218.411C90.1379 218.603 90.3971 218.139 90.6565 218.059L90.5776 218.184C90.0927 218.399 89.6416 218.672 89.2469 218.91ZM117.131 197.534C117.131 197.534 117.097 197.478 117.176 197.353C117.176 197.353 117.266 197.375 117.21 197.409C117.21 197.409 117.187 197.5 117.131 197.534ZM113.783 200.787C113.659 201.093 113.76 201.263 113.535 201.399L113.478 201.433C113.388 201.411 113.523 201.252 113.523 201.252C113.32 201.297 113.264 201.331 113.151 201.4C113.174 201.309 113.117 201.343 113.027 201.32C112.971 201.355 113.072 201.524 112.835 201.513C112.858 201.423 112.824 201.366 112.88 201.332C112.802 201.457 112.689 201.525 112.52 201.627C112.486 201.57 112.542 201.536 112.587 201.355C112.531 201.389 112.531 201.389 112.418 201.457C112.384 201.401 112.215 201.503 112.226 201.265C112.373 201.253 112.429 201.219 112.418 201.072C112.508 201.095 112.508 201.095 112.542 201.151C112.531 201.004 112.632 200.789 112.598 200.732C112.745 200.721 112.744 200.336 112.959 200.438C112.925 200.381 112.88 200.177 112.902 200.087C113.015 200.404 113.049 199.69 113.297 199.849C113.161 199.622 113.432 199.305 113.409 199.011C113.409 199.011 113.443 199.067 113.387 199.101C113.466 198.977 113.578 198.909 113.635 198.875C113.477 198.739 113.488 198.501 113.476 198.354C113.736 198.274 113.668 198.546 113.849 198.591C113.759 198.569 113.883 198.263 113.702 198.218C113.871 198.116 113.781 198.093 113.961 198.138C113.803 198.003 113.984 198.048 113.882 197.878C114.074 197.685 114.153 197.946 114.13 197.651C114.187 197.617 114.232 197.821 114.232 197.821C114.367 197.662 114.13 197.651 114.006 197.572C114.074 197.3 114.153 197.561 114.266 197.493C114.311 197.311 114.209 197.142 114.288 197.017L114.378 197.04C114.333 196.836 114.637 196.575 114.558 196.315L114.648 196.337C114.558 196.315 114.468 196.292 114.4 196.179C114.423 196.089 114.355 195.976 114.535 196.021C114.513 196.111 114.513 196.111 114.547 196.168L114.569 196.077C114.772 196.032 114.547 196.168 114.648 196.337C114.693 196.156 114.727 195.828 114.806 195.703C114.986 195.748 114.66 196.1 114.885 195.964L114.693 196.156C115.043 196.099 114.615 196.281 114.942 196.314C115.156 196.031 115.032 195.952 115.189 195.703C115.156 195.646 115.099 195.68 114.998 195.511C115.133 194.967 115.55 195.408 115.516 194.967C115.505 194.819 115.29 194.718 115.572 194.548L115.674 194.717C115.888 194.434 115.561 194.401 115.809 194.174C115.843 194.23 115.741 194.446 115.764 194.355C116.023 194.275 115.719 194.151 115.854 193.993L116.034 194.038C116.158 193.732 116.248 193.369 116.485 192.996C116.519 193.052 116.496 193.143 116.609 193.075C116.812 192.644 117.139 192.293 117.522 191.907L117.477 191.704C117.499 191.613 117.533 191.67 117.567 191.726C117.736 191.624 117.533 191.67 117.466 191.557C117.488 191.466 117.612 191.545 117.556 191.579C117.646 191.217 117.871 190.696 118.153 190.526L118.131 190.616C118.322 190.423 118.04 190.209 118.299 190.129L118.277 190.22C118.626 189.778 118.908 189.223 119.393 189.007C119.291 188.837 119.81 188.678 119.584 188.429C119.923 188.225 119.844 188.35 120.205 188.055C120.283 187.93 120.182 187.761 120.261 187.636L120.385 187.715L120.362 187.421L120.543 187.466L120.565 187.375C120.543 187.466 120.419 187.387 120.419 187.387C120.554 187.228 120.836 187.058 120.87 187.115L121.129 186.65C121.163 186.707 121.106 186.741 121.174 186.854C121.264 186.491 121.355 186.899 121.366 186.661C121.275 186.639 121.332 186.605 121.332 186.605C121.478 186.593 121.636 186.344 121.771 186.185L121.805 186.242C122.11 185.981 122.29 185.641 122.617 185.29C122.448 185.392 122.346 185.222 122.425 185.098L122.606 185.143C122.594 184.995 122.459 185.154 122.504 184.973C122.583 184.848 122.684 185.018 122.662 185.109L122.797 184.95C122.887 184.972 122.831 185.006 122.809 185.097C122.797 184.95 123.181 184.949 123.079 184.78L123.169 184.802C123.44 184.485 123.541 184.27 123.733 184.077C123.609 183.998 123.778 183.896 123.767 183.749C123.992 183.612 124.218 183.476 124.466 183.25C124.601 183.091 124.454 183.102 124.443 182.955C124.567 183.034 124.759 182.842 124.736 182.932C125.041 182.672 125.007 182.615 125.3 182.207C125.21 182.185 125.153 182.219 125.21 182.185C125.232 182.094 125.379 182.082 125.413 182.139C125.672 181.674 126.574 181.515 126.687 181.062L126.889 180.631C127.059 180.529 126.867 180.722 127.014 180.71L127.036 180.62C126.879 181.254 126.439 181.673 126.281 182.308C126.304 182.217 126.247 182.251 126.27 182.16C126.101 182.263 126.011 182.625 126.101 182.647C126.045 182.681 126.011 182.625 125.954 182.659C125.785 182.761 125.898 183.078 125.808 183.055L125.831 182.965C125.808 183.055 125.594 183.339 125.741 183.327C125.549 183.52 125.538 183.758 125.402 183.916C125.482 184.176 125.132 184.234 125.29 184.369C125.132 184.234 124.929 184.664 124.941 184.811C124.907 184.755 124.771 184.913 124.76 184.766C124.625 184.925 124.636 185.072 124.726 185.094C124.354 185.242 124.546 185.819 124.129 185.763C123.96 186.25 123.735 186.771 123.588 187.168C123.43 187.032 123.847 186.703 123.689 186.567C123.487 186.998 123.543 187.349 123.273 187.666C123.194 187.791 123.239 187.609 123.261 187.519C123.059 187.949 122.844 188.233 122.642 188.663L122.664 188.572C122.642 188.663 122.585 188.697 122.619 188.754L122.642 188.663C122.845 188.617 122.732 189.07 122.8 189.184C122.664 188.957 122.496 189.444 122.349 189.071C122.326 189.162 122.326 189.162 122.36 189.218C122.304 189.252 122.304 189.252 122.27 189.196C122.112 189.445 122.315 189.399 122.157 189.649C122.067 189.626 122.123 189.592 122.146 189.501C122.157 189.649 122.112 189.83 122.011 190.045C122.011 190.045 121.921 190.022 121.977 189.988C121.763 190.272 121.819 190.623 121.549 190.94C121.47 190.68 121.38 191.042 121.256 190.963L121.211 191.144L121.357 191.133C121.222 191.291 121.267 191.495 121.098 191.597L121.121 191.506L120.906 191.79L121.076 191.688C121.031 191.869 121.234 191.823 121.098 191.982C121.121 191.891 120.963 192.141 120.85 192.209C120.828 192.299 120.896 192.412 120.726 192.514C120.636 192.492 120.534 192.322 120.568 192.379C120.67 192.548 120.366 192.809 120.433 192.922C120.456 192.832 120.309 192.843 120.309 192.843L120.321 192.99C120.264 193.024 120.264 193.024 120.23 192.968C120.039 193.161 120.501 193.035 120.163 193.24C120.163 193.24 120.163 193.24 120.185 193.149C119.937 193.376 119.87 193.648 119.656 193.931C119.475 193.886 119.813 193.682 119.576 193.671C119.34 194.045 119.227 194.497 118.957 194.815L119.013 194.781C119.205 194.973 118.697 194.894 118.72 195.189C118.743 195.098 118.618 195.019 118.686 195.132C118.495 195.325 118.371 195.631 118.224 196.027L118.19 195.97C118.021 196.073 117.92 196.288 117.751 196.39C117.785 196.446 117.706 196.571 117.762 196.537C117.097 196.708 117.244 197.466 116.669 197.659C116.691 197.569 116.691 197.569 116.691 197.569L116.454 197.942C116.545 197.965 116.545 197.965 116.657 197.897C116.691 197.953 116.612 198.078 116.567 198.259C116.612 198.078 116.443 198.18 116.319 198.101C116.409 198.124 116.353 198.158 116.353 198.158C116.094 198.237 116.545 198.35 116.229 198.464L116.195 198.407C116.173 198.498 116.128 198.679 116.071 198.713C115.981 198.69 116.094 198.622 116.026 198.509C115.947 198.634 115.97 198.928 115.823 198.94C115.846 198.849 115.959 198.781 115.981 198.69C115.778 198.736 115.722 198.77 115.665 198.804L115.44 198.94L115.496 198.906C115.643 199.279 115.259 199.28 115.26 199.665C115.293 199.336 115.248 199.518 115.124 199.439C115.068 199.473 114.955 199.541 114.921 199.484C114.966 199.688 114.662 199.564 114.684 199.858C114.594 199.835 114.606 199.983 114.481 199.904C114.346 200.062 114.572 199.926 114.606 199.983C114.459 200.379 113.895 200.334 113.783 200.787ZM112.249 201.559C112.339 201.582 112.339 201.582 112.373 201.638L112.317 201.672L112.249 201.559ZM112.136 202.012C112.136 202.012 112.08 202.046 111.99 202.024L112.012 201.933L112.136 202.012ZM127.589 180.902L127.578 180.755C127.634 180.721 127.657 180.63 127.769 180.562C127.747 180.653 127.724 180.743 127.589 180.902ZM116.767 192.825C116.744 192.916 116.823 192.791 116.936 192.723C116.914 192.814 116.857 192.848 116.801 192.882C116.688 192.95 116.711 192.859 116.767 192.825ZM116.643 193.131C116.621 193.222 116.621 193.222 116.621 193.222C116.654 193.278 116.677 193.188 116.643 193.131ZM112.227 202.035C112.249 201.944 112.193 201.978 112.215 201.888C112.306 201.91 112.362 201.876 112.362 201.876L112.328 201.82C112.351 201.729 112.384 201.785 112.384 201.785C112.475 201.808 112.475 201.808 112.509 201.865L112.452 201.899C112.644 202.091 112.847 201.66 113.106 201.581L113.152 201.784C112.734 201.728 112.509 201.865 112.227 202.035ZM113.185 201.456C113.242 201.422 113.242 201.422 113.309 201.535C113.253 201.569 113.163 201.547 113.14 201.637L113.185 201.456ZM114.087 200.912C114.087 200.912 114.053 200.855 114.076 200.764L114.166 200.787C114.2 200.843 114.144 200.877 114.087 200.912ZM75.2975 209.08C75.5456 208.853 75.9064 208.559 76.5377 207.947C75.9853 208.434 75.5456 208.853 75.2975 209.08ZM79.1758 205.43C78.9842 205.623 79.142 205.373 79.6041 204.863C79.39 205.147 80.4835 204.025 81.2276 203.344C80.6527 203.922 79.9424 204.659 79.1758 205.43ZM84.2173 221.407C84.0256 221.6 83.6762 222.042 82.7854 222.733C82.7291 222.767 82.6388 222.745 82.6952 222.711C83.2815 222.28 83.8001 221.736 84.3525 221.248C84.3525 221.248 84.33 221.339 84.2173 221.407ZM132.139 186.703L131.575 187.428C132.049 186.681 132.488 185.876 132.961 185.129C132.86 185.344 132.657 185.774 132.139 186.703ZM141.075 171.76C140.838 172.134 140.59 172.361 140.635 172.179C141.21 171.216 141.672 170.322 142.281 169.415L141.075 171.76Z" fill="#E22D2D"/>
<path d="M80.5903 177.545C80.5677 177.635 80.5452 177.726 80.5227 177.817C80.5452 177.726 80.6017 177.692 80.5903 177.545Z" fill="#E22D2D"/>
<path d="M124.912 119.44C125.059 119.429 125.172 119.36 125.285 119.292C125.228 119.326 125.059 119.429 124.912 119.44Z" fill="#E22D2D"/>
<path d="M53.8628 196.989C53.7838 197.114 53.6143 197.216 53.5014 197.284C53.7047 197.239 53.7838 197.114 53.8628 196.989Z" fill="#E22D2D"/>
<path d="M40.4449 181.514C40.524 181.389 40.6369 181.321 40.7384 181.105C40.5804 181.355 40.5014 181.48 40.4449 181.514Z" fill="#E22D2D"/>
<path d="M54.1443 196.819C54.0878 196.853 54.0653 196.944 53.9523 197.012C53.9749 196.921 54.0313 196.887 54.1443 196.819Z" fill="#E22D2D"/>
<path d="M80.5793 177.782C80.5568 177.873 80.5342 177.964 80.4552 178.089C80.5117 178.055 80.5003 177.907 80.5793 177.782Z" fill="#E22D2D"/>
<path d="M41.0942 210.011L41.0603 209.954L40.7443 210.453L41.0942 210.011Z" fill="#E22D2D"/>
<path d="M96.4825 220.724C96.5389 220.69 96.7419 220.644 96.9674 220.508C96.8771 220.486 96.708 220.588 96.4825 220.724Z" fill="#E22D2D"/>
<path d="M109.548 211.914C109.965 211.585 110.552 211.154 111.33 210.53C110.687 210.995 110.101 211.426 109.548 211.914Z" fill="#E22D2D"/>
<path d="M118.644 204.035C118.723 203.911 118.836 203.842 118.836 203.842L118.644 204.035Z" fill="#E22D2D"/>
<path d="M55.1834 164.221C55.2623 164.097 55.4314 163.995 55.5442 163.927C56.3107 163.156 55.7583 163.643 55.1834 164.221Z" fill="#E22D2D"/>
<path d="M37.6262 206.018C37.9417 205.52 38.3475 205.044 38.7194 204.511C38.0995 205.27 37.5584 205.905 37.6262 206.018Z" fill="#E22D2D"/>
<path d="M95.5903 128.278C95.7372 128.267 95.8502 128.198 95.9631 128.13L95.5903 128.278Z" fill="#E22D2D"/>
<path d="M38.685 204.455C39.226 203.82 39.846 203.061 40.387 202.426C39.7671 203.185 39.1697 203.854 38.685 204.455Z" fill="#E22D2D"/>
<path d="M148.563 159.554C148.405 159.803 148.304 160.019 148.247 160.053L148.563 159.554Z" fill="#E22D2D"/>
<path d="M149.239 158.376L148.597 159.611C148.856 159.146 149.081 158.625 149.239 158.376Z" fill="#E22D2D"/>
<path d="M139.7 174.611C139.722 174.52 139.745 174.429 139.745 174.429L139.7 174.611Z" fill="#E22D2D"/>
<path d="M139.655 174.792L139.678 174.701C139.374 175.347 137.762 177.783 137.244 178.712C137.897 177.624 138.878 176.185 139.655 174.792Z" fill="#E22D2D"/>
<path d="M30.6899 230.311C30.8819 230.504 31.1866 230.628 31.4011 230.729C30.7124 230.221 30.1026 229.587 29.7184 228.818C30.0009 229.418 30.272 229.87 30.6899 230.311Z" fill="#E22D2D"/>
<path d="M151.45 154.975C151.41 154.631 151.391 154.459 151.422 154.578C151.348 154.394 151.159 153.963 150.765 153.711C150.382 153.406 149.911 153.251 149.621 153.302C149.996 153.381 150.359 153.514 150.635 153.796C150.923 154.025 151.241 154.372 151.323 154.781C151.459 155.201 151.422 155.641 151.225 156.047C151.028 156.453 150.831 156.859 150.634 157.265C150.395 157.606 150.581 157.254 150.603 157.147C150.089 158.269 149.475 159.594 150.007 158.923C150.469 157.79 150.685 157.556 151.169 156.315C151.335 155.79 151.49 155.32 151.45 154.975Z" fill="#E22D2D"/>
<path d="M144.099 169.766C144.273 169.467 144.394 169.157 144.493 168.954C144.383 169.21 144.22 169.456 144.11 169.713C144.11 169.713 144.11 169.713 144.099 169.766Z" fill="#E22D2D"/>
<path d="M132.845 172.036C132.976 171.951 132.976 171.951 132.845 172.036V172.036Z" fill="#E22D2D"/>
<path d="M143.837 170.215C143.739 170.418 143.586 170.61 143.401 170.962C143.553 170.77 143.674 170.46 143.837 170.215Z" fill="#E22D2D"/>
<path d="M144.056 169.701C144.034 169.808 143.947 169.958 143.837 170.215C143.935 170.012 144.023 169.862 144.121 169.659C144.121 169.659 144.079 169.594 144.056 169.701Z" fill="#E22D2D"/>
<path d="M104.188 136.489C105.102 136.123 106.017 135.757 106.931 135.391C106.189 135.737 105.167 136.081 104.188 136.489Z" fill="#E22D2D"/>
<path d="M115.16 132.369C115.686 132.256 116.223 132.09 116.761 131.924C116.879 131.893 117.008 131.809 117.073 131.767L115.16 132.369Z" fill="#E22D2D"/>
<path d="M148.495 161.067C148.483 161.121 148.407 161.217 148.32 161.366L148.495 161.067Z" fill="#E22D2D"/>
<path d="M132.054 179.252L132.023 179.134C132.088 179.091 132.099 179.038 132.164 178.995C132.206 179.06 132.195 179.114 132.054 179.252ZM143.002 171.273C142.827 171.572 142.611 171.806 142.645 171.645C143.092 170.845 143.474 170.086 143.921 169.286L143.002 171.273Z" fill="#E22D2D"/>
<path d="M128.005 128.365C128.124 128.334 128.242 128.303 128.307 128.261C128.253 128.249 128.124 128.334 128.005 128.365Z" fill="#E22D2D"/>
<path d="M103.94 136.606C104.058 136.575 104.123 136.532 104.242 136.501L103.94 136.606Z" fill="#E22D2D"/>
<path d="M148.587 161.423C148.587 161.423 148.587 161.423 148.599 161.369L148.326 161.871L148.587 161.423Z" fill="#E22D2D"/>
<path d="M148.86 160.92C148.762 161.124 148.663 161.327 148.599 161.369L148.86 160.92Z" fill="#E22D2D"/>
<path d="M149.353 159.905L148.86 160.921C149.046 160.568 149.243 160.162 149.353 159.905Z" fill="#E22D2D"/>
<path d="M141.904 173.837L141.926 173.73C141.695 174.296 140.432 176.324 140.038 177.136C140.508 176.228 141.324 175.001 141.904 173.837Z" fill="#E22D2D"/>
<path d="M235.791 81.2114C235.768 81.3186 235.704 81.3609 235.65 81.3496C235.692 81.4145 235.563 81.4991 235.605 81.5641C235.735 81.4795 235.822 81.3299 235.791 81.2114C235.867 81.1155 235.856 81.1691 235.909 81.1804C235.878 81.0619 235.805 80.8784 235.686 80.9093C235.717 81.0279 235.664 81.0166 235.791 81.2114Z" fill="#121418"/>
<path d="M235.923 79.7839C235.912 79.8378 235.912 79.8378 235.954 79.903L235.923 79.7839Z" fill="#121418"/>
<path d="M230.396 86.9568C230.45 86.9681 230.503 86.9795 230.492 87.0331C230.461 86.9145 230.655 86.7876 230.396 86.9568Z" fill="#121418"/>
<path d="M219.426 71.9357C219.372 71.9244 219.319 71.9131 219.265 71.9017C219.265 71.9017 219.265 71.9017 219.254 71.9554L219.426 71.9357Z" fill="#121418"/>
<path d="M219.242 87.9602L219.23 88.015L219.296 87.9718L219.242 87.9602Z" fill="#121418"/>
<path d="M225.276 70.9318C225.223 70.9205 225.223 70.9205 225.276 70.9318C225.104 70.9516 225.157 70.9629 225.276 70.9318Z" fill="#121418"/>
<path d="M229.68 70.966C229.626 70.9547 229.561 70.997 229.508 70.9857C229.615 71.0083 229.722 71.031 229.68 70.966Z" fill="#121418"/>
<path d="M229.336 71.0053C229.39 71.0167 229.497 71.0393 229.551 71.0507C229.508 70.9857 229.401 70.963 229.336 71.0053Z" fill="#121418"/>
<path d="M235.709 80.8027L235.732 80.695C235.732 80.695 235.667 80.7375 235.709 80.8027Z" fill="#121418"/>
<path d="M236.013 79.3553C235.971 79.2904 236.176 79.1099 236.092 78.9801C236.123 79.0986 235.982 79.2368 236.013 79.3553Z" fill="#121418"/>
<path d="M231.779 71.0738C231.79 71.0199 231.79 71.0199 231.802 70.9661C231.748 70.9547 231.748 70.9547 231.748 70.9547L231.779 71.0738C231.725 71.0624 231.736 71.0086 231.779 71.0738Z" fill="#121418"/>
<path d="M218.809 121.116C218.418 121.649 218.235 121.722 217.821 122.362C217.399 122.777 217.011 123.03 217.087 122.934C216.946 123.072 216.406 123.518 216.231 123.816C216.879 123.394 217.571 122.757 218.286 122.013C218.48 121.886 218.328 122.078 218.317 122.131C218.719 121.545 219.186 120.916 218.809 121.116Z" fill="#121418"/>
<path d="M223.796 116.515C223.655 116.653 223.514 116.792 223.438 116.887C223.579 116.749 223.655 116.653 223.796 116.515Z" fill="#121418"/>
<path d="M204.614 133.4C204.681 133.357 204.747 133.314 204.614 133.4V133.4Z" fill="#121418"/>
<path d="M224.012 116.281C224.142 116.197 224.229 116.047 224.359 115.962C224.218 116.101 224.077 116.239 224.012 116.281Z" fill="#121418"/>
<path d="M180.765 153.103C180.96 152.977 181.078 152.946 181.196 152.915C181.024 152.934 182.171 152.001 180.765 153.103Z" fill="#121418"/>
<path d="M223.849 116.526C223.86 116.473 223.936 116.377 224.012 116.281C223.936 116.377 223.872 116.419 223.849 116.526C223.784 116.569 223.784 116.569 223.849 116.526Z" fill="#121418"/>
<path d="M173.017 82.3446L171.616 83.167C171.993 82.967 172.511 82.629 173.017 82.3446Z" fill="#121418"/>
<path d="M174.743 120.376C174.819 120.28 174.906 120.131 174.917 120.077L174.743 120.376Z" fill="#121418"/>
<path d="M167.476 85.5965C167.229 85.7119 166.928 85.816 166.669 85.985C166.604 86.0273 166.539 86.0695 166.528 86.1231L167.476 85.5965Z" fill="#121418"/>
<path d="M207.94 63.3542C207.875 63.3965 207.875 63.3965 207.81 63.4388C207.821 63.3852 207.875 63.3965 207.94 63.3542Z" fill="#121418"/>
<path d="M219.985 120.3C220.039 120.312 220.05 120.258 220.126 120.162L219.985 120.3Z" fill="#121418"/>
<path d="M160.911 89.4714C160.976 89.4291 161.041 89.3868 161.106 89.3445C161.03 89.4405 160.965 89.4828 160.911 89.4714Z" fill="#121418"/>
<path d="M177.996 115.522C177.909 115.672 177.821 115.821 177.723 116.024C177.757 115.864 177.909 115.672 177.996 115.522Z" fill="#121418"/>
<path d="M172.95 122.797L172.787 123.042L172.95 122.797Z" fill="#121418"/>
<path d="M235.112 94.2772C235.112 94.2772 235.07 94.2122 234.985 94.0823C235.027 94.1472 235.016 94.2009 235.112 94.2772Z" fill="#121418"/>
<path d="M198.783 68.1378C198.718 68.1801 198.653 68.2224 198.589 68.2647C198.146 68.5072 198.47 68.2957 198.783 68.1378Z" fill="#121418"/>
<path d="M216.635 68.2124C216.7 68.1701 216.7 68.1701 216.764 68.1278C216.646 68.1588 216.452 68.2857 216.322 68.3703C216.192 68.4549 216.128 68.4972 216.116 68.5508C216.246 68.4662 216.376 68.3816 216.494 68.3507L216.635 68.2124Z" fill="#121418"/>
<path d="M173.2 82.271C173.135 82.3133 173.082 82.3019 173.071 82.3556L173.2 82.271Z" fill="#121418"/>
<path d="M217.076 67.9698C216.992 67.8399 216.907 67.71 216.823 67.5801C216.896 67.7636 216.981 67.8935 217.076 67.9698C217.012 68.0121 216.84 68.0317 216.764 68.1276C216.882 68.0966 217 68.0657 217.076 67.9698Z" fill="#121418"/>
<path d="M219.707 120.297C219.783 120.201 219.912 120.117 219.924 120.063L219.707 120.297Z" fill="#121418"/>
<path d="M219.285 120.712L219.718 120.244C219.566 120.436 219.361 120.616 219.285 120.712Z" fill="#121418"/>
<path d="M225.625 114.718L225.614 114.771C225.841 114.484 226.9 113.7 227.203 113.317C226.781 113.731 226.123 114.208 225.625 114.718Z" fill="#121418"/>
<path d="M209.478 77.5594C209.421 77.8274 209.323 78.0305 209.267 78.2986L209.295 78.6964C209.32 78.3099 209.399 77.9346 209.478 77.5594Z" fill="#121418"/>
<path d="M280.504 52.0305C280.53 51.644 280.555 51.2576 280.518 50.6342C280.613 49.6469 280.663 48.8741 280.683 49.0462C280.663 48.8741 280.689 48.4876 280.66 48.0899C280.632 47.6921 280.615 47.2408 280.552 47.0038C280.562 48.2929 280.492 49.9572 280.358 51.6637C280.279 52.0388 280.304 51.6523 280.262 51.5874C280.186 52.7468 280.012 54.1091 280.277 53.3815C280.412 52.7384 280.491 52.3633 280.504 52.0305Z" fill="#121418"/>
<path d="M261.142 36.0218C261.261 35.9907 261.261 35.9907 261.142 36.0218V36.0218Z" fill="#121418"/>
<path d="M276.419 64.8251C276.343 64.921 276.31 65.0819 276.222 65.2314C276.298 65.1355 276.332 64.9746 276.419 64.8251Z" fill="#121418"/>
<path d="M212.268 56.0396C212.634 55.8932 212.87 55.8314 213.053 55.7582C212.763 55.8087 215.014 54.6628 212.268 56.0396Z" fill="#121418"/>
<path d="M276.628 64.3654C276.605 64.4726 276.571 64.6334 276.473 64.8366C276.571 64.6334 276.659 64.4839 276.692 64.3231C276.65 64.2582 276.65 64.2582 276.628 64.3654Z" fill="#121418"/>
<path d="M176.372 164.713C176.724 163.836 177.118 163.023 177.47 162.146C177.152 162.863 176.789 163.793 176.372 164.713Z" fill="#121418"/>
<path d="M102.118 81.7619C101.87 81.8775 101.687 81.9507 101.557 82.0353L102.118 81.7619Z" fill="#121418"/>
<path d="M175.047 162.251C174.574 162.375 174.037 162.541 173.51 162.653C173.392 162.684 173.274 162.715 173.209 162.757C173.8 162.603 174.445 162.459 175.047 162.251Z" fill="#121418"/>
<path d="M227.67 136.083C227.585 135.953 227.565 135.781 227.48 135.651C227.565 135.781 227.596 135.9 227.67 136.083Z" fill="#121418"/>
<path d="M279.628 55.7902C279.738 55.5337 279.724 55.8664 279.634 56.2949C279.286 57.9554 278.862 58.6488 278.786 58.7446C278.929 58.3274 279.008 57.9524 279.151 57.5352C278.856 58.144 278.437 59.3421 277.996 60.6473C277.543 62.0061 276.961 63.4493 276.382 64.6134L276.615 63.7677C276.823 63.3082 277.031 62.8488 277.239 62.3893C279.455 57.1519 281.295 50.7723 280.214 45.0055C280.183 44.887 280.194 44.8335 280.152 44.7686C280.236 44.8983 280.321 45.0281 280.417 45.1043C280.436 45.2763 280.445 45.5019 280.538 45.8572C280.6 46.0941 280.662 46.331 280.778 46.5792C280.718 46.0632 280.605 45.5358 280.546 45.0198C280.568 44.9127 280.56 44.6871 280.467 44.3317C280.458 44.1062 280.407 43.8157 280.314 43.4604C280.221 43.105 280.139 42.6961 279.908 42.1997C279.531 41.3367 278.928 40.4819 278.302 39.7343C278.133 39.4748 277.964 39.2153 277.742 38.9444C278.018 39.2266 278.283 39.5623 278.559 39.8444C278.77 40.1688 279.035 40.5045 279.235 40.8825C278.603 39.6302 277.891 39.0319 277.125 38.4224C276.933 38.27 276.669 37.9343 276.179 37.6069C275.337 37.0931 274.45 36.7937 273.552 36.5478C273.253 36.3727 274.835 36.8193 273.019 36.1555C271.736 35.8839 274.205 36.63 272.076 36.1238C270.75 35.7874 271.147 35.7595 269.551 35.6456C269.39 35.6117 269.562 35.5921 270.013 35.5754C269.348 35.5468 268.523 35.4842 267.794 35.4978C266.958 35.4888 266.164 35.5447 265.81 35.6375C265.092 35.5975 263.89 35.7349 262.902 35.9175C261.925 36.0465 261.109 36.2095 261.185 36.1137C260.765 36.2488 258.767 36.7211 257.52 37.0728C258.66 36.6985 257.489 36.9543 256.071 37.3256C254.705 37.7081 253.146 38.2174 253.363 37.9835C251.759 38.7071 247.393 40.0774 244.562 41.3246C244.691 41.2401 245.004 41.0824 245.294 41.0318C243.659 41.6369 243.186 41.7607 242.153 42.1576C241.99 42.4028 239.535 43.45 238.221 44.123C236.231 44.821 239.31 43.4583 238.677 43.5481C238.826 43.6356 235.328 45.1333 236.037 44.9477C234.52 45.5219 234.757 45.46 233.929 45.6766C233.755 45.9754 232.561 46.3383 231.365 46.9804C229.17 47.8586 230.732 47.0702 228.427 48.2049C227.265 48.6863 229.333 47.6134 229.333 47.6134C226.921 48.7256 228.298 48.2894 227.791 48.5739C224.991 49.9395 226.457 49.0749 225.424 49.4718C223.679 50.3334 222.396 51.1249 221.039 51.733C220.921 51.7639 220.674 51.8794 220.932 51.7104C219.1 52.7214 215.397 54.3994 213.306 55.5794C213.123 55.6526 213.058 55.6949 213.005 55.6836C213.413 55.6021 213.466 55.6134 213.444 55.7205C212.388 56.2245 211.493 56.7625 211.074 56.8975C211.699 56.5822 211.764 56.5399 212.034 56.3173L210.956 56.9285C209.881 57.2605 212.464 56.1287 212.422 56.0638C210.289 57.179 207.832 58.5054 206.152 59.3248C205.755 59.3527 209.976 57.3367 207.748 58.3756L210.354 57.1367C208.299 57.8769 211.904 56.4018 210.033 57.0688C206.619 58.6963 206.273 59.0147 202.913 60.6535C202.201 61.1182 203.202 60.6029 202.49 61.0677C197.825 63.605 198.584 62.6469 195.21 64.6184C194.368 65.1676 194.076 65.4973 191.588 66.7053L192.376 66.1447C189.176 67.8174 190.628 67.2855 187.246 69.0314C187.828 68.6511 189.714 67.6514 189.272 67.8936C187.043 68.9326 187.794 68.8118 186.103 69.6848L185.695 69.7663C182.29 71.6193 178.592 73.8021 174.905 75.9312C175.1 75.8045 175.693 75.3707 174.81 75.855C173.473 76.6352 172.136 77.4153 170.735 78.2377C170.034 78.6489 169.333 79.0601 168.644 79.4178L167.566 80.0289L167.124 80.2711C167.059 80.3133 167.006 80.302 166.995 80.3556C167.006 80.302 166.952 80.2907 166.964 80.2371L166.806 79.9241L166.363 79.1033C166.025 78.5842 165.752 78.0229 165.414 77.5039C164.791 76.4771 164.115 75.439 163.416 74.5081C162.971 73.9664 162.515 73.4783 161.994 73.0325C161.676 72.6855 161.411 72.3497 161.783 72.7081C160.318 71.1676 161.676 72.6855 160.921 72.0223C160.028 71.2181 159.752 70.936 160.38 71.4045C159.668 70.8062 158.741 70.1627 157.632 69.5924C156.522 69.0221 155.272 68.5899 153.977 68.3719C151.356 67.8175 148.696 67.9821 146.807 68.1979C147.043 68.1361 147.28 68.0742 147.559 68.0772C146.078 68.2115 145.239 68.4817 144.476 68.656C143.714 68.8303 142.94 69.0582 141.555 69.2687L142.081 69.1563C135.585 70.2995 128.801 72.2772 124.061 73.5682C123.243 74.0103 118.03 75.4251 117.726 75.8084C114.253 76.9198 115.179 76.5003 110.349 78.2199C109.068 78.7322 108.486 79.1125 106.904 79.7289L106.809 79.6527L104.698 80.6607L103.504 81.0237L102.03 81.6627C102.643 81.4009 103.299 81.204 103.234 81.2462C102.114 81.7925 100.715 82.3357 99.6065 82.8284C98.4976 83.3211 97.6477 83.6448 97.5942 83.6335C95.8381 84.5487 94.082 85.4639 92.4414 86.6273C92.5062 86.5851 92.841 86.3203 93.2406 86.0132C92.5934 86.4357 92.5286 86.478 92.4639 86.5202C92.3457 86.5511 92.2387 86.5285 91.0935 87.461C91.4171 87.2498 90.9951 87.664 90.9304 87.7062C90.3366 88.1401 89.3968 88.8923 88.519 89.8814C87.6413 90.8705 86.7721 92.0852 86.204 93.1957L86.3586 92.7249C85.813 93.7284 85.3632 94.808 85.0626 95.9751C84.8156 97.1536 84.7712 98.4308 85.059 99.7224C85.3469 101.014 86.1611 102.193 87.2256 102.978C88.2901 103.762 89.4643 104.29 90.6721 104.658C89.7852 104.358 89.4867 104.183 89.6049 104.152C89.6584 104.164 90.1399 104.265 90.824 104.466L91.3788 104.751C92.2881 104.944 89.9147 104.274 91.8292 104.735C93.6367 105.173 93.0258 105.156 91.9447 104.983C92.6936 105.141 93.4425 105.3 94.1491 105.393C94.2449 105.469 93.7634 105.367 93.5917 105.387C94.0309 105.424 94.9938 105.628 95.9566 105.831C96.9195 106.035 97.9893 106.261 98.6537 106.29L98.7494 106.366C101.168 106.822 102.978 106.981 104.616 107.16C106.255 107.338 107.851 107.452 109.833 107.592C109.909 107.496 111.505 107.61 112.696 107.526C115.632 107.643 118.912 107.722 122.441 107.406C124.899 107.142 123.14 107.273 124.299 107.071C124.502 107.17 127.99 106.789 126.208 107.027C127.185 106.898 127.99 106.789 128.73 106.722C129.192 106.652 129.653 106.581 130.115 106.511L130.081 106.672C130.059 106.779 130.025 106.94 129.991 107.1C129.901 107.529 129.865 107.969 129.817 108.462C129.722 109.449 129.7 110.619 129.687 112.015C129.757 111.414 129.785 110.749 129.813 111.146C129.783 112.091 129.739 113.368 129.654 113.239L129.657 112.959C129.672 115.816 129.941 119.061 130.577 122.16C130.873 123.678 131.276 125.217 131.767 126.608C132.007 127.33 132.257 127.998 132.466 128.602C132.57 128.904 132.728 129.217 132.833 129.518C132.864 129.637 132.948 129.767 132.979 129.885L133.021 129.95L132.945 130.046C132.881 130.088 132.816 130.13 132.751 130.172C131.434 131.125 130.106 132.13 128.832 133.147C126.974 134.545 129.859 132.246 128.477 133.24C124.296 136.663 121.822 138.602 118.843 141.887C117.546 143.011 115.498 145.319 113.661 147.952C112.716 149.262 111.813 150.637 111.082 151.993C110.35 153.349 109.737 154.674 109.288 155.753L109.451 155.508C109.097 156.664 108.934 156.909 108.7 157.755C108.776 157.659 109.13 156.503 108.92 157.242C108.597 158.516 108.381 159.813 108.379 161.155C108.351 161.821 108.483 162.52 108.734 163.188C108.985 163.857 109.408 164.506 109.929 164.951C111.067 165.919 112.511 166.225 113.851 166.229C114.515 166.257 115.256 166.19 115.9 166.047C116.545 165.903 117.232 165.825 117.876 165.681C123.086 164.546 127.975 162.279 132.491 159.654C134.152 158.663 134.509 158.291 135.049 157.846C135.59 157.401 136.183 156.967 138.201 155.604L137.174 156.505C140.272 154.252 143.35 151.826 146.344 149.27L146.82 148.868L146.885 148.825C146.885 148.825 146.885 148.825 146.896 148.772L146.949 148.783L147.67 149.607C148.296 150.355 148.986 151.06 149.622 151.754C150.949 153.153 152.34 154.511 153.754 155.761C153.425 155.467 153.36 155.509 152.797 154.999C153.349 155.563 154.475 156.584 155.486 157.358C156.019 157.75 156.509 158.077 156.849 158.317C157.19 158.557 157.446 158.667 157.5 158.679C158.48 159.333 157.68 158.885 158.255 159.342C158.936 159.822 159.843 160.293 160.654 160.688C161.465 161.084 162.245 161.36 162.639 161.612C162.788 161.699 162.222 161.468 161.912 161.346C162.425 161.566 163.568 161.976 164.52 162.233C165.001 162.335 165.418 162.479 165.643 162.471C165.857 162.516 165.922 162.474 165.708 162.429C167.087 162.776 168.523 162.856 169.821 162.795C171.118 162.734 172.332 162.543 173.449 162.276C174.17 162.037 175.363 161.674 176.354 161.212C176.849 160.981 177.344 160.75 177.657 160.593L177.721 160.55L177.786 160.508L177.851 160.466C177.916 160.424 177.927 160.37 177.991 160.328C177.969 160.435 178.087 160.404 178.217 160.319C178.194 160.427 178.118 160.522 178.042 160.618C177.933 160.875 177.812 161.185 177.691 161.495C177.275 162.414 176.912 163.344 176.735 163.922C176.912 163.344 176.1 165.354 176.299 164.669C175.509 166.572 174.925 168.294 175.099 167.995C173.544 171.414 172.758 175.164 171.903 177.109C171.072 180.01 170.423 182.837 169.839 185.623C169.547 187.016 169.266 188.355 169.027 189.759C168.8 191.109 168.573 192.46 168.506 193.844C168.422 193.714 168.511 192.223 168.814 190.776C169.064 189.319 169.345 187.98 169.215 188.064C168.741 190.593 168.367 192.64 168.433 194.724C168.445 195.733 168.606 196.83 169.004 197.865C169.401 198.9 170.184 199.961 171.325 200.65C171.922 201 171.773 200.912 171.367 200.715C171.164 200.616 170.919 200.452 170.728 200.3C170.632 200.223 170.536 200.147 170.483 200.136C171.483 200.963 172.668 201.437 173.845 201.686C175.129 201.958 176.404 202.004 177.671 201.824C180.139 201.507 182.357 200.522 184.372 199.437C184.372 199.437 183.93 199.68 183.488 199.922C184.296 199.533 185.363 198.976 185.256 198.953L184.49 199.407C183.823 199.657 184.589 199.204 185.548 198.623C186.001 198.328 186.519 197.99 186.907 197.736C187.296 197.483 187.566 197.26 187.631 197.218C187.079 197.716 187.985 197.125 188.88 196.587C189.721 196.038 190.498 195.531 189.601 196.348C190.065 195.998 190.67 195.511 190.552 195.542C191.275 195.024 191.523 194.908 190.842 195.491C192.116 194.474 192.516 194.167 192.873 193.795C193.219 193.477 193.565 193.159 194.657 192.215C194.646 192.268 194.224 192.683 194.072 192.874C195.121 191.865 196.235 190.814 198 189.062C197.924 189.158 198.053 189.073 197.772 189.349C200.672 186.439 202.56 184.097 205.562 180.704C204.811 181.888 206.645 179.534 206.893 179.419L208.423 177.449L207.708 178.193C209.129 176.48 210.237 174.924 211.43 173.498L210.432 174.797L212.949 171.582L211.464 173.337C212.789 171.548 211.174 173.388 213.039 171.153C212.713 171.644 214.406 169.428 215.143 168.577C215.773 167.704 216.415 166.777 217.36 165.466C217.653 165.136 217.281 165.841 217.487 165.661C217.748 165.213 218.477 164.136 219.259 163.071C219.987 161.994 220.738 160.81 221.034 160.201C220.837 160.607 220.879 160.672 220.966 160.523L221.36 159.711C221.925 158.88 222.012 158.73 221.979 158.891C223.537 156.256 221.318 159.646 223.255 156.532C223.146 156.788 223.222 156.692 222.949 157.194C224.78 154.057 226.16 150.937 227.327 147.771C227.588 147.323 227.324 148.05 227.071 148.724C226.872 149.409 226.565 150.071 226.838 149.57C227.246 148.425 227.653 147.281 228.018 146.071C228.384 144.862 228.642 143.63 228.793 142.375C229.009 140.015 228.667 137.649 227.754 135.61C227.785 135.729 227.869 135.858 227.9 135.977C227.678 135.706 227.407 134.866 226.816 133.957C226.289 133.007 225.452 131.935 224.548 131.184C224.973 131.554 225.176 131.653 225.038 131.512C224.114 130.589 223.007 129.739 221.695 129.07C221.033 128.763 220.318 128.443 219.527 128.22C219.164 128.087 218.736 127.997 218.308 127.906C218.04 127.85 217.773 127.793 217.441 127.779L217.506 127.737L217.582 127.641L217.722 127.503C217.852 127.418 217.939 127.269 218.068 127.184C218.35 126.908 218.62 126.686 218.901 126.41L218.479 126.824C219.906 125.615 222.188 123.524 223.701 122.166C224.135 121.699 224.967 120.924 224.374 121.358C229.182 117.34 232.986 113.054 237.159 109.405C236.672 109.862 236.022 110.563 236.433 110.203L239.809 106.889C239.486 107.1 239.334 107.292 238.588 107.917C238.968 107.438 239.888 106.514 240.732 105.686C239.238 107.216 240.828 105.762 241.562 105.19C241.433 105.275 241.649 105.041 241.531 105.072C243.433 103.46 241.674 104.654 244.162 102.383L244.074 102.533C244.941 101.597 245.732 100.758 246.716 99.7911C247.181 99.4417 245.785 100.769 245.816 100.887C247.158 99.5489 248.362 98.0694 249.659 96.9452C249.085 97.551 248.295 98.3908 247.732 98.943C249.17 97.6808 249.311 97.5427 250.306 96.5227L250.231 96.6185L252.546 94.3672L251.93 94.9081C253.395 92.9805 255.298 91.3689 257.379 88.9003C255.362 91.3267 257.118 89.3485 257.008 89.605C257.582 88.9991 258.491 88.1285 258.263 88.4159C259.239 87.2239 260.038 86.6097 261.406 84.885C261.524 84.8541 262.5 83.662 262.314 84.0144C263.583 82.4926 261.968 84.3328 262.002 84.1721C263.901 81.7767 266.909 78.8885 269.451 75.2868C270.56 73.7311 271.201 72.8038 271.789 71.8653C272.29 71.0761 272.725 70.3292 273.412 69.1877C273.586 68.889 273.76 68.5902 273.935 68.2914C274.087 68.0998 273.988 68.3027 273.879 68.5593C273.693 68.9116 273.431 69.3597 273.431 69.3597C274.498 67.7392 275.206 66.4905 275.994 64.867C275.861 65.2306 276.047 64.8783 276.362 64.4414C276.975 63.1166 276.671 63.4999 277.481 61.7692C277.414 62.0906 277.27 62.5078 277.017 63.1815C277.686 61.5888 278.249 59.9736 278.822 58.3047C279.019 57.8988 278.597 59.376 278.367 59.9426C278.729 59.0124 279.106 57.7495 279.438 56.7008C279.727 55.5872 279.918 54.6766 279.932 54.3439C279.817 55.1587 279.749 55.4801 279.628 55.7902ZM224.042 116.812L224.768 116.015C224.897 115.93 225.027 115.846 225.069 115.911C224.68 116.164 224.334 116.482 224.042 116.812ZM230.035 111.143C230.111 111.047 230.251 110.909 230.544 110.579L230.868 110.368C230.598 110.591 230.316 110.867 230.035 111.143ZM156.401 152.461C156.689 152.689 157.007 153.036 157.39 153.341C157.421 153.459 157.325 153.383 157.08 153.22C157.187 153.242 156.666 152.796 156.401 152.461ZM159.167 154.724C159.22 154.735 159.263 154.8 159.263 154.8C159.263 154.8 159.209 154.789 159.167 154.724ZM214.21 77.6437C214.179 77.5252 214.286 77.5479 214.362 77.452C214.309 77.4407 214.286 77.5479 214.244 77.483C214.345 77.0009 214.606 76.5527 214.868 76.1046L215.054 75.7523L215.281 75.4648C215.433 75.2732 215.585 75.0815 215.737 74.8899C215.965 74.6025 215.537 74.5119 215.979 74.2698L215.999 74.4418C216.086 74.2924 216.173 74.143 216.26 73.9936C216.401 73.8556 216.542 73.7175 216.671 73.633C216.812 73.4949 216.941 73.4104 217.082 73.2723C217.211 73.1878 217.352 73.0498 217.493 72.9117C217.481 72.9653 217.481 72.9653 217.47 73.0188C217.642 72.9992 217.923 72.7231 217.881 72.6582C217.999 72.6273 217.923 72.7231 218.042 72.6921C218.213 72.6725 218.323 72.416 218.43 72.4386C218.43 72.4386 218.419 72.4922 218.365 72.4809C218.441 72.3851 218.742 72.2809 218.646 72.2047C218.883 72.1429 219.088 71.9626 219.314 71.9542C219.401 71.8049 219.733 71.8192 219.767 71.6585C219.786 71.8305 220.27 71.6532 220.411 71.5151C220.4 71.5687 220.572 71.5491 220.507 71.5913C220.69 71.5181 220.873 71.4449 220.777 71.3687C221.194 71.5128 221.455 71.0647 221.689 71.2819C222.227 71.1159 222.764 70.9499 223.333 70.9024C223.353 71.0744 222.764 70.9499 222.773 71.1755C223.246 71.0518 223.558 70.8941 224.062 70.8888C224.169 70.9114 223.986 70.9846 223.932 70.9733C224.448 70.9144 224.887 70.9514 225.348 70.8812C225.348 70.8812 225.284 70.9234 225.23 70.9121C225.337 70.9348 225.444 70.9574 225.413 70.8389L225.348 70.8812C225.21 70.7401 225.683 70.6164 225.748 70.5741C225.585 70.8193 226.176 70.6646 225.948 70.9521C226.002 70.9634 226.066 70.9211 226.077 70.8676C226.184 70.8902 226.184 70.8902 226.109 70.986C226.452 70.9468 226.303 70.8593 226.635 70.8736C226.624 70.9272 226.57 70.9158 226.559 70.9694C226.688 70.8849 226.871 70.8117 227.085 70.857C227.085 70.857 227.074 70.9105 227.021 70.8992C227.46 70.9362 227.783 70.7249 228.2 70.869C228.048 71.0606 228.349 70.9565 228.38 71.075L228.606 71.0666L228.51 70.9904C228.724 71.0357 228.918 70.909 229.121 71.0078L228.949 71.0274L229.335 71.053L229.132 70.9542C229.368 70.8923 229.112 70.7822 229.433 70.8501C229.38 70.8388 229.647 70.8953 229.743 70.9715C229.861 70.9406 229.979 70.9097 230.14 70.9436C230.182 71.0085 230.106 71.1043 230.095 71.1579C230.235 71.0198 230.587 71.2061 230.782 71.0794C230.717 71.1216 230.706 71.1752 230.759 71.1865L230.835 71.0907C230.942 71.1133 230.942 71.1133 230.92 71.2204C231.263 71.1812 230.793 71.0258 231.178 71.0514C231.178 71.0514 231.167 71.105 231.114 71.0937C231.339 71.0854 231.587 70.9699 231.716 70.8854C231.77 70.8968 231.823 70.9081 231.877 70.9194C231.93 70.9307 232.037 70.9533 232.09 70.9646C232.164 71.148 231.812 70.9616 231.896 71.0914C232.389 71.1397 232.893 71.1344 233.31 71.2784L233.203 71.2558C233.355 71.0642 233.49 71.4844 233.715 71.4761C233.662 71.4648 233.586 71.5606 233.639 71.5719C233.884 71.7356 234.216 71.7499 234.664 72.0124L234.599 72.0547C234.737 72.1958 234.929 72.3482 235.056 72.5428C235.109 72.5541 235.205 72.6303 235.227 72.5232C235.32 72.8785 235.458 73.0196 235.627 73.2791C235.808 73.4851 235.923 73.7333 235.909 74.066C235.867 74.0011 235.825 73.9362 235.814 73.9898C235.898 74.1195 235.918 74.2916 236.002 74.4213C236.067 74.3791 236.014 74.3677 236.101 74.2184C236.154 74.2297 236.239 74.3594 236.27 74.4779C236.143 74.2832 236.152 74.5088 236.076 74.6046C236.076 74.6046 236.129 74.6159 236.194 74.5737C236.084 74.8302 236.366 74.5541 236.341 74.9403L236.287 74.929C236.318 75.0475 236.414 75.1237 236.434 75.2957C236.358 75.3915 236.349 75.1659 236.284 75.2082C236.304 75.3802 236.549 75.5439 236.451 75.7468C236.409 75.682 236.378 75.5635 236.335 75.4986C236.237 75.7016 236.29 75.7129 236.257 75.8736L236.243 76.2063L236.265 76.0992C236.552 76.3277 236.389 76.5729 236.547 76.886C236.389 76.5729 236.44 76.8634 236.333 76.8408C236.311 76.9479 236.288 77.055 236.246 76.9902C236.33 77.1199 236.19 77.258 236.317 77.4526C236.263 77.4413 236.283 77.6133 236.229 77.602C236.249 77.774 236.294 77.5598 236.348 77.5711C236.505 77.8842 236.148 78.2561 236.272 78.7299C236.312 79.0739 236.396 79.2037 236.394 79.4828C236.382 79.5364 236.371 79.5899 236.371 79.5899C236.307 79.6322 236.287 79.4602 236.287 79.4602C236.188 79.6631 236.166 79.7703 236.186 79.9423C236.143 79.8774 236.132 79.931 236.067 79.9732C236.034 80.1339 236.205 80.1143 236.065 80.2524C236.022 80.1875 235.969 80.1762 235.938 80.0577C235.958 80.2297 235.978 80.4017 235.944 80.5624C235.879 80.6047 235.859 80.4327 235.817 80.3678C235.772 80.582 235.716 80.8499 235.801 80.9796L235.876 80.8838C235.865 80.9374 235.758 80.9148 235.77 80.8612C235.75 80.6892 235.868 80.6582 235.921 80.6696L235.899 80.7767C236.189 80.7261 236 80.2946 236.056 80.0268L236.141 80.1565C236.006 80.7993 235.818 81.4308 235.534 81.9861C235.48 81.9748 235.438 81.9099 235.384 81.8986L235.449 81.8563L235.365 81.7265L235.331 81.8872C235.224 81.8646 235.159 81.9069 235.019 82.0449L235.016 82.3241L234.898 82.355L234.996 82.1521C234.867 82.2366 234.898 82.355 234.875 82.4621C234.822 82.4508 234.757 82.4931 234.746 82.5466L234.785 82.8907C234.678 82.868 234.712 82.7073 234.571 82.8454C234.591 83.0174 234.797 82.8371 234.698 83.0401C234.569 83.1246 234.526 83.0597 234.493 83.2204C234.439 83.2091 234.451 83.1555 234.462 83.1019C234.428 83.2626 234.287 83.4007 234.372 83.5305C234.242 83.615 234.175 83.9363 233.972 83.8375C233.961 83.8911 233.97 84.1167 233.894 84.2125C233.843 83.922 233.59 84.5957 233.463 84.4011C233.525 84.638 233.137 84.8915 233.016 85.2016C233.016 85.2016 233.027 85.148 233.038 85.0944C232.909 85.179 232.844 85.2212 232.726 85.2521C232.811 85.3819 232.659 85.5735 232.625 85.7342C232.4 85.7425 232.616 85.5087 232.456 85.4747C232.552 85.5509 232.27 85.827 232.431 85.861C232.259 85.8806 232.301 85.9455 232.152 85.858C232.279 86.0526 232.065 86.0074 232.031 86.1681C231.795 86.2299 231.882 86.0806 231.73 86.2722C231.612 86.3031 231.71 86.1002 231.71 86.1002C231.516 86.2269 231.73 86.2722 231.708 86.3793C231.491 86.6132 231.536 86.3989 231.429 86.3763C231.288 86.5144 231.243 86.7286 231.125 86.7596C231.125 86.7596 231.072 86.7483 231.083 86.6947C230.984 86.8976 230.565 87.0327 230.455 87.2892L230.402 87.2779C230.444 87.3428 230.486 87.4077 230.54 87.419C230.422 87.4499 230.388 87.6106 230.292 87.5344C230.357 87.4922 230.357 87.4922 230.368 87.4386L230.292 87.5344C230.143 87.4469 230.433 87.3963 230.337 87.3202C230.143 87.4469 229.98 87.6921 229.797 87.7653C229.712 87.6355 230.132 87.5005 229.907 87.5088L230.208 87.4047C229.898 87.2832 230.391 87.3315 230.081 87.21C229.715 87.3564 229.746 87.4748 229.391 87.5676C229.369 87.6748 229.487 87.6438 229.411 87.7397C229 88.1003 228.888 87.573 228.595 87.9027C228.519 87.9985 228.539 88.1705 228.249 88.221L228.283 88.0603C227.928 88.1532 228.173 88.3169 227.776 88.3448C227.798 88.2377 228.024 88.2293 227.97 88.218C227.703 88.1615 227.83 88.3561 227.647 88.4293L227.714 88.1079C227.359 88.2007 226.971 88.4542 226.563 88.5357C226.574 88.4821 226.639 88.4399 226.532 88.4173C226.295 88.4791 226.005 88.5297 225.716 88.5803C225.437 88.5773 225.158 88.5742 224.879 88.5712L224.685 88.698C224.632 88.6867 224.59 88.6218 224.643 88.6331C224.429 88.5879 224.632 88.6867 224.556 88.7825C224.438 88.8134 224.407 88.695 224.46 88.7063C224.105 88.7991 223.45 88.996 223.098 88.8097L223.162 88.7675C222.895 88.7109 222.828 89.0323 222.583 88.8686L222.647 88.8263C222.059 88.7019 221.319 88.7691 220.871 88.5065C220.73 88.6446 220.294 88.3285 220.195 88.5315C219.897 88.3564 219.961 88.3142 219.502 88.1052C219.395 88.0826 219.266 88.1671 219.094 88.1867L219.117 88.0796L218.88 88.1415L218.807 87.9581L218.647 87.9242C218.7 87.9355 218.742 88.0004 218.731 88.054C218.464 87.9974 218.23 87.7801 218.252 87.673C218.092 87.639 217.878 87.5938 217.717 87.5598C217.729 87.5063 217.836 87.5289 217.943 87.5515C217.61 87.5372 217.976 87.3908 217.644 87.3765C217.686 87.4414 217.579 87.4188 217.568 87.4723C217.484 87.3426 217.239 87.1789 216.982 87.0687L217.047 87.0265C216.706 86.7866 216.301 86.5889 215.971 86.2955C216.056 86.4252 215.926 86.5097 215.831 86.4335L215.864 86.2728C215.746 86.3038 215.949 86.4026 215.735 86.3574C215.597 86.2163 215.769 86.1967 215.822 86.208L215.619 86.1091C215.631 86.0556 215.684 86.0669 215.738 86.0782C215.619 86.1091 215.591 85.7116 215.366 85.7199L215.377 85.6663C215.059 85.3193 214.91 85.2318 214.698 84.9074C214.633 84.9496 214.549 84.8199 214.389 84.7859C214.304 84.6562 214.273 84.5377 214.2 84.3544C214.169 84.2359 214.095 84.0526 214.011 83.9229C213.884 83.7282 213.904 83.9002 213.808 83.824C213.873 83.7818 213.768 83.48 213.907 83.6211C213.76 83.2544 213.718 83.1896 213.487 82.6931C213.475 82.7467 213.464 82.8003 213.411 82.789C213.368 82.7241 213.402 82.5634 213.456 82.5747C213.182 82.0134 213.565 81.2552 213.376 80.8237C213.356 80.6516 213.325 80.5332 213.305 80.3612C213.35 80.1469 213.39 80.4909 213.477 80.3416C213.364 79.8142 213.592 79.5268 213.563 79.1292C213.898 78.8644 213.799 78.0043 214.21 77.6437ZM226.09 88.6595C226.143 88.6708 226.208 88.6285 226.315 88.6511C226.357 88.716 226.357 88.716 226.293 88.7583C226.304 88.7047 226.197 88.6821 226.09 88.6595ZM226.616 88.547C226.67 88.5583 226.735 88.5161 226.735 88.5161C226.67 88.5583 226.67 88.5583 226.616 88.547ZM236.304 79.9113C236.262 79.8465 236.273 79.7929 236.242 79.6744C236.253 79.6209 236.307 79.6322 236.36 79.6435C236.338 79.7506 236.315 79.8578 236.304 79.9113ZM236.542 78.5073C236.489 78.496 236.5 78.4424 236.458 78.3776L236.523 78.3353C236.511 78.3889 236.554 78.4538 236.542 78.5073ZM235.788 73.3131L235.853 73.2708C235.895 73.3357 235.884 73.3892 235.926 73.4541C235.872 73.4428 235.83 73.3779 235.788 73.3131ZM229.284 92.0762C229.585 91.972 229.94 91.8792 230.252 91.7215C230.241 91.7751 229.993 91.8905 229.38 92.1524C229.315 92.1946 229.273 92.1297 229.284 92.0762ZM215.401 124.718C215.336 124.76 215.336 124.76 215.272 124.803C215.294 124.696 215.317 124.588 215.274 124.524C215.339 124.481 215.468 124.397 215.609 124.259L215.806 123.853L215.167 124.501C214.996 124.521 214.661 124.785 213.797 125.442L212.66 126.6L212.207 126.896L213.234 125.994C212.576 126.47 212.272 126.853 211.915 127.225C211.796 127.256 211.602 127.383 211.332 127.606L210.238 128.829C210.055 128.902 210.693 128.254 209.83 128.91C209.32 129.474 210.466 128.541 209.61 129.423C208.952 129.899 209.115 129.654 208.465 130.356C208.347 130.387 208.488 130.249 208.704 130.015C208.13 130.62 207.061 131.457 206.822 131.798C206.11 132.263 204.757 133.655 204.695 133.418C204.543 133.61 203.687 134.492 203.136 134.99C204.025 133.948 200.964 136.825 201.107 136.407C200.435 137.216 198.361 138.847 197.041 140.079C197.117 139.983 197.258 139.845 197.387 139.76C196.588 140.374 196.329 140.543 195.8 140.935C195.809 141.16 194.588 142.189 194.014 142.795C192.978 143.471 194.481 142.166 194.061 142.301C194.211 142.389 192.472 143.755 192.891 143.62C192.114 144.127 192.232 144.096 191.737 144.327C191.734 144.606 191.056 144.91 190.536 145.527C189.424 146.299 190.128 145.609 189.025 146.606C188.442 146.987 189.404 146.127 189.404 146.127C188.195 147.102 188.949 146.702 188.721 146.99C187.294 148.198 188.009 147.454 187.438 147.781C186.551 148.545 185.966 149.204 185.296 149.734C185.232 149.776 185.102 149.86 185.243 149.722C184.388 150.604 182.423 151.979 181.385 152.934C181.321 152.976 181.256 153.019 181.202 153.007C181.439 152.945 181.492 152.957 181.481 153.01C180.941 153.455 180.519 153.87 180.282 153.931C180.617 153.667 180.628 153.613 180.769 153.475L180.229 153.92C179.615 154.182 180.974 153.295 180.932 153.23C179.852 154.12 178.566 155.191 177.617 155.717C177.392 155.726 179.646 154.3 178.439 154.996C178.892 154.7 179.345 154.405 179.809 154.055C178.625 154.644 180.651 153.506 179.553 153.945C178.636 154.59 178.172 154.94 177.654 155.278C177.136 155.616 176.672 155.965 175.681 156.427C175.281 156.734 175.895 156.472 175.507 156.725C174.17 157.506 173.548 157.542 173.021 157.654C172.785 157.716 172.56 157.724 172.27 157.775C171.98 157.825 171.625 157.918 171.088 158.084C170.787 158.188 170.646 158.326 170.303 158.366C169.959 158.405 169.54 158.54 168.726 158.424L169.264 158.258C168.76 158.263 168.428 158.249 168.202 158.257C167.977 158.265 167.817 158.232 167.645 158.251C167.473 158.271 167.313 158.237 167.088 158.245C166.82 158.189 166.499 158.121 165.964 158.008C166.19 157.999 166.564 158.078 166.885 158.146C167.206 158.214 167.431 158.206 167.271 158.172C166.575 158.025 166.372 157.926 166.147 157.934C165.922 157.943 165.75 157.962 165.227 157.796L165.046 157.59C162.94 156.976 160.71 155.889 158.688 154.343C158.849 154.377 159.189 154.617 158.764 154.247C156.241 152.427 153.855 149.684 151.948 147.323L151.109 146.53C150.928 146.324 150.802 146.13 151.035 146.347C150.855 146.141 150.728 145.946 150.728 145.946C150.728 145.946 150.728 145.946 150.675 145.935L150.664 145.989C150.664 145.989 150.664 145.989 150.61 145.977L150.557 145.966C150.514 145.901 150.461 145.89 150.472 145.836C150.483 145.783 150.537 145.794 150.537 145.794C150.59 145.805 150.59 145.805 150.579 145.859C150.579 145.859 150.59 145.805 150.644 145.817C150.644 145.817 150.644 145.816 150.655 145.763C150.72 145.721 150.731 145.667 150.807 145.571C151.024 145.337 151.24 145.104 151.51 144.881C152.008 144.371 152.506 143.861 153.069 143.309C154.13 142.246 155.244 141.195 156.077 140.421L155.784 140.75C157.093 139.573 156.999 139.217 158.274 138.2L158.057 138.434C160.784 135.822 163.642 132.846 165.73 130.883C166.003 130.381 168.349 128.248 168.31 127.904C169.078 127.171 169.359 126.895 169.717 126.523C170.074 126.151 170.496 125.737 171.514 124.61C172.035 123.993 172.178 123.576 172.786 122.809L172.882 122.885C173.132 122.491 173.382 122.096 173.621 121.755L174.173 121.256C174.336 121.011 174.564 120.724 174.727 120.478C174.499 120.766 174.206 121.096 174.218 121.042C174.62 120.456 175.163 119.732 175.619 119.157C176.021 118.57 176.389 118.145 176.443 118.156C177.042 117.164 177.641 116.172 178.24 115.18C178.229 115.233 178.13 115.436 178.021 115.693C178.468 114.892 178.17 115.78 178.836 114.467C178.685 114.659 178.817 114.295 178.817 114.295C179.056 113.954 179.404 113.356 179.722 112.64C180.04 111.924 180.38 111.101 180.526 110.405C180.557 110.523 180.535 110.631 180.523 110.684C180.9 109.421 181.161 107.91 180.651 106.348C180.369 105.561 179.786 104.878 179.028 104.494C178.271 104.11 177.522 103.952 176.75 103.9C177.297 103.96 177.499 104.059 177.435 104.101C177.37 104.143 177.091 104.14 176.652 104.103C176.556 104.027 176.449 104.005 176.289 103.971C175.709 104.072 177.221 104.056 176.03 104.14C174.904 104.181 175.27 104.035 175.903 103.945C175.453 103.962 174.991 104.032 174.529 104.102C174.422 104.079 174.777 103.986 174.842 103.944C174.552 103.995 173.983 104.042 173.392 104.197C172.812 104.298 172.157 104.495 171.791 104.641L171.684 104.619C170.974 104.804 170.361 105.066 169.823 105.232C169.274 105.452 168.844 105.64 168.36 105.818C167.929 106.006 167.487 106.249 167.003 106.426C166.561 106.668 166.066 106.899 165.56 107.183C165.591 107.302 164.772 107.744 164.178 108.178C162.658 109.031 161.009 109.969 159.293 111.228C158.147 112.161 159 111.558 158.513 112.014C158.353 111.98 156.69 113.251 157.511 112.53C155.514 114.065 154.973 114.51 152.596 116.525C152.908 116.367 153.189 116.091 153.037 116.282C152.627 116.643 151.979 117.066 152.055 116.97L152.185 116.885C149.568 119.241 145.727 121.841 143.693 123.816L143.822 123.731L143.552 123.954L143.487 123.996L143.358 124.081L142.764 124.515L141.534 125.317C140.381 126.024 142.193 124.841 141.32 125.272C140.015 126.171 138.937 126.782 137.913 127.404C137.718 127.531 137.535 127.604 137.341 127.731L137.223 127.762C137.17 127.751 137.192 127.643 137.139 127.632C136.95 127.201 136.772 126.715 136.595 126.23C136.411 125.241 135.858 123.613 135.404 121.783C134.939 120.006 134.667 118.103 134.67 116.761L134.636 116.921C134.503 116.222 134.59 116.073 134.584 115.568C134.508 115.664 134.599 116.298 134.517 115.889C134.449 115.148 134.435 114.418 134.42 113.687C134.406 112.957 134.402 112.173 134.388 111.443C134.424 109.94 134.513 108.448 135.03 107.047C135.151 106.737 135.283 106.374 135.458 106.075C135.545 105.926 135.632 105.776 135.761 105.692C135.849 105.542 135.978 105.458 136.119 105.32C136.617 104.81 137.21 104.376 137.858 103.953C139.099 103.097 140.424 102.37 141.75 101.644C143.711 100.548 142.681 100.666 145.138 99.3397L144.521 99.8806C148.191 97.3003 152.255 94.9712 155.944 92.5628C155.738 92.7432 155.738 92.7432 155.404 93.008C156.265 92.6307 158.347 91.2251 158.305 91.1602C158.876 90.8335 158.477 91.1406 158.854 90.9407C159.673 90.4985 160.807 89.6196 161.237 89.431C161.302 89.3887 161.172 89.4732 161.043 89.5577C161.69 89.1352 163.275 88.2396 162.737 88.4056C164.192 87.5945 165.433 86.7382 166.564 86.1384C167.234 85.6087 169.032 84.7584 169.153 84.4483C169.162 84.6739 171.717 83.1445 172.57 82.5417C172.3 82.7643 173.377 82.1531 173.043 82.418C174.056 81.8491 175.015 81.2689 174.79 81.2772C176.825 80.365 178.522 78.9337 179.768 78.5821C182.777 76.757 185.633 75.1235 188.414 73.5859C188.422 73.8115 185.321 75.2812 185.577 75.3914C188.186 73.8733 189.621 72.8902 192.303 71.5555C192.992 71.1979 191.968 71.8204 191.709 71.9894C194.307 70.5249 196.859 69.2747 199.198 67.9792C199.198 67.9792 198.939 68.1482 198.745 68.275C199.187 68.0328 199.865 67.7287 199.758 67.7061L199.316 67.9483C198.531 68.2297 201.075 66.7539 201.097 66.6468C200.405 67.2836 203.467 65.4698 202.375 66.4136C202.688 66.2559 203.022 65.9911 202.969 65.9798C203.464 65.7489 203.582 65.718 203.183 66.0251C204.821 65.1408 204.218 65.349 205.716 64.6028C205.704 64.6564 205.446 64.8254 205.305 64.9635C206.017 64.4987 206.782 64.0453 208.085 63.4258C208.021 63.4681 208.139 63.4371 207.945 63.5639C208.828 63.0795 209.636 62.6909 210.401 62.2375C210.832 62.0488 211.22 61.7953 211.662 61.5531C211.856 61.4264 212.104 61.311 212.298 61.1842C212.481 61.111 212.664 61.0378 212.805 60.8998C212.92 61.148 213.089 61.4075 213.258 61.667C212.718 61.0491 213.701 62.4878 213.602 62.6908L214.405 63.9235L214.185 63.3735C214.85 64.4651 215.496 65.3848 216.011 66.3889L215.451 65.599L216.696 67.6526L216.054 66.4538C216.783 67.5032 216.152 66.2508 216.963 67.7091C216.879 67.5794 216.994 67.8276 217.217 68.0984C217.271 68.1097 217.206 68.152 217.206 68.152L217.141 68.1942L217.012 68.2787C216.893 68.3097 216.829 68.3519 216.71 68.3829C216.474 68.4447 216.28 68.5715 216.097 68.6447C215.526 68.9714 214.997 69.3629 214.209 69.9235C213.961 70.039 214.265 69.6557 214.135 69.7402C213.919 69.9741 213.314 70.4615 212.793 71.0786C212.284 71.6422 211.806 72.3242 211.663 72.7414C211.772 72.4849 211.73 72.4201 211.654 72.5159C211.567 72.6652 211.522 72.8795 211.435 73.0289C211.108 73.5193 211.033 73.6151 211.055 73.508C210.608 74.3085 210.737 74.224 210.813 74.1281C210.889 74.0323 210.954 73.9901 210.473 74.9512C210.507 74.7905 210.496 74.8441 210.616 74.534C209.697 76.5213 209.281 78.5032 209.091 80.4768C208.97 80.7869 209.007 80.347 209.043 79.9072C209.079 79.4674 209.158 79.0924 209.037 79.4025C208.852 80.8178 208.912 82.3968 209.284 83.8182C209.645 85.2931 210.319 86.6103 211.144 87.7359C211.06 87.6061 210.987 87.4228 210.849 87.2817C211.051 87.3806 211.294 87.8234 211.685 88.3538C212.077 88.8841 212.575 89.4371 213.15 89.8943C212.863 89.6657 212.744 89.6966 212.798 89.7079C213.499 90.3597 214.33 90.927 215.29 91.4098C216.25 91.8926 217.436 92.3671 218.815 92.7149C218.708 92.6922 218.59 92.7232 218.43 92.6892C219.466 93.0762 221.307 93.3538 222.529 93.3884C222.872 93.3492 223.59 93.3891 223.162 93.2986C224.919 93.4464 226.582 93.2389 228.13 92.7831C228.904 92.5553 229.678 92.3274 230.357 92.0233C230.722 91.8769 231.088 91.7306 231.401 91.5729L231.831 91.3842L232.014 91.3111C232.068 91.3224 232.144 91.2266 232.121 91.3337C232.11 91.3872 232.141 91.5057 232.183 91.5706L232.214 91.689C232.214 91.689 232.257 91.7539 232.245 91.8075C232.203 91.7426 232.203 91.7426 232.161 91.6777C232.172 91.6241 232.119 91.6128 232.13 91.5593C232.088 91.4944 232.099 91.4408 232.099 91.4408C232.11 91.3873 232.11 91.3873 232.099 91.4408C232.088 91.4944 232.13 91.5593 232.172 91.6241L232.214 91.689C232.203 91.7426 232.299 91.8188 232.299 91.8188C232.426 92.0134 232.659 92.2307 232.851 92.3831C233.18 92.6765 233.563 92.9813 233.882 93.3283C233.82 93.0915 233.659 93.0575 233.256 92.5807C233.555 92.7557 234.172 93.2778 234.628 93.7659C233.682 92.9504 234.552 93.8617 234.848 94.3159C234.806 94.251 234.955 94.3385 234.966 94.2849C235.845 95.4218 235.298 94.2992 236.538 95.8481L236.431 95.8254C236.929 96.3784 237.45 96.8243 237.926 97.4844C238.031 97.7861 237.374 96.9201 237.267 96.8974C237.988 97.7213 238.828 98.5141 239.312 99.3998C238.994 99.0528 238.614 98.4689 238.296 98.1219C238.876 99.0837 238.972 99.1599 239.448 99.82C239.617 100.08 239.828 100.404 239.997 100.663C239.786 100.339 239.628 100.026 239.448 99.82C239.701 100.209 240.039 100.728 240.124 100.858L240.082 100.793L240.177 100.869C240.155 100.977 240.079 101.072 240.003 101.168C239.927 101.264 239.786 101.402 239.646 101.54C239.418 101.828 239.148 102.05 238.866 102.326C238.315 102.825 237.741 103.431 237.156 104.09C238.349 102.664 237.33 103.791 237.31 103.619C236.964 103.938 236.413 104.437 236.511 104.234C235.915 104.947 235.408 105.231 234.584 106.231C234.531 106.22 233.892 106.868 233.99 106.665C233.2 107.505 234.238 106.55 234.216 106.657C233.034 108.029 231.059 109.458 229.314 111.382C227.961 112.774 227.635 113.265 226.574 114.327C226.369 114.507 226.152 114.741 225.947 114.921C225.817 115.006 226.414 114.293 226.414 114.293C225.538 115.003 224.965 115.609 224.196 116.341C224.348 116.15 224.154 116.276 223.884 116.499C223.257 117.094 223.558 116.989 222.683 117.699C222.77 117.55 222.933 117.305 223.214 117.029C222.511 117.719 221.85 118.474 221.082 119.207C220.834 119.322 221.461 118.728 221.689 118.44C220.845 119.269 219.514 120.554 219.34 120.852L219.751 120.492C219.621 120.576 219.709 120.427 219.861 120.235C220.522 119.48 220.952 119.291 221.006 119.303L220.508 119.813C221.251 119.466 222.671 117.753 223.774 116.756L223.524 117.15C221.003 119.582 218.223 122.182 215.401 124.718ZM175.865 75.351C175.617 75.4665 175.294 75.6777 174.776 76.0157C175.229 75.72 175.606 75.52 175.865 75.351ZM172.243 77.438C172.426 77.3648 172.285 77.5028 171.832 77.7986C172.091 77.6296 171.013 78.2407 170.324 78.5984C170.788 78.249 171.489 77.8378 172.243 77.438ZM231.996 114.579C232.418 114.164 232.829 113.804 233.251 113.39C233.175 113.485 232.882 113.815 232.103 114.601C232.038 114.644 231.931 114.621 231.996 114.579ZM268.093 77.237C267.952 77.3751 267.747 77.5554 267.606 77.6935C268.051 77.1722 268.442 76.6395 268.886 76.1182C268.81 76.214 268.571 76.555 268.093 77.237ZM275.662 65.9156C275.488 66.2144 275.336 66.406 275.358 66.2989C275.729 65.5942 276.112 64.836 276.483 64.1314C276.188 64.7402 275.946 65.3604 275.662 65.9156Z" fill="#121418"/>
<path d="M269.955 35.5312C270.062 35.5539 270.18 35.5228 270.288 35.5455C270.116 35.5652 270.008 35.5425 269.955 35.5312Z" fill="#121418"/>
<path d="M170.405 200.562C170.362 200.497 170.309 200.485 170.213 200.409C170.267 200.421 170.309 200.485 170.405 200.562Z" fill="#121418"/>
<path d="M93.3289 86.1186C93.5231 85.9919 93.782 85.8229 94.1056 85.6116C93.8467 85.7806 93.5878 85.9496 93.3289 86.1186Z" fill="#121418"/>
<path d="M106.853 79.6831L106.895 79.748L107.273 79.5478L106.853 79.6831Z" fill="#121418"/>
<path d="M241.555 105.6C241.62 105.558 241.685 105.515 241.825 105.377C241.825 105.377 241.696 105.462 241.555 105.6Z" fill="#121418"/>
<path d="M250.29 96.9766C250.636 96.6582 250.994 96.2862 251.545 95.7874L250.29 96.9766Z" fill="#121418"/>
<path d="M256.906 90.2021C256.982 90.1062 256.993 90.0526 256.993 90.0526L256.906 90.2021Z" fill="#121418"/>
<path d="M183.458 200.351C183.34 200.382 183.211 200.467 183.146 200.509C182.338 200.897 182.898 200.624 183.458 200.351Z" fill="#121418"/>
<path d="M215.097 169.082C214.793 169.466 214.543 169.86 214.239 170.244C214.76 169.626 215.14 169.147 215.097 169.082Z" fill="#121418"/>
<path d="M176.262 164.97C176.285 164.862 176.361 164.767 176.372 164.713L176.262 164.97Z" fill="#121418"/>
<path d="M214.239 170.244C213.848 170.777 213.338 171.341 212.947 171.874C213.468 171.256 213.913 170.735 214.239 170.244Z" fill="#121418"/>
<path d="M279.687 56.4478L279.83 56.0302C279.83 56.0302 279.83 56.0302 279.842 55.9766C279.754 56.1262 279.721 56.287 279.687 56.4478Z" fill="#121418"/>
<path d="M274.638 68.2557L274.661 68.1486C274.43 68.7153 273.104 70.5055 272.668 71.2526C273.223 70.4745 274.016 69.3553 274.638 68.2557Z" fill="#121418"/>
<path d="M226.152 151.546L226.275 150.957C226.044 151.524 225.802 152.144 225.518 152.7C225.769 152.305 225.955 151.953 226.152 151.546Z" fill="#121418"/>
</svg>
