<svg width="171" height="164" viewBox="0 0 171 164" fill="none" xmlns="http://www.w3.org/2000/svg">
<path d="M154.663 92.659C146.033 55.8721 104.422 34.5419 69.2839 30.8323C67.7428 29.2866 65.5852 28.0501 62.8111 28.0501C22.4333 26.5044 -5.30723 64.837 0.857326 103.479C7.33011 144.593 44.0092 164.687 83.1542 159.123C115.518 154.486 164.526 134.392 154.663 92.659Z" fill="#E22D2D"/>
<path d="M158.731 110.23C159.425 109.017 159.945 107.631 160.638 106.591C160.359 107.261 160.011 107.9 159.598 108.497C160.241 107.905 160.77 107.2 161.159 106.417V106.591L162.546 104.511L162.199 105.031C162.546 103.124 163.759 101.738 164.453 99.3113C163.412 102.431 165.32 98.4447 165.32 98.9646C167.4 95.6716 169.481 83.5393 169.827 81.1129C170.114 79.8633 170.231 78.5807 170.174 77.2999C170.868 76.9532 169.827 76.0866 170.174 74.7001C170.262 75.0555 170.378 75.4032 170.521 75.74C170.694 74.8734 169.827 69.8472 170.521 72.9669C170.5 71.5084 170.325 70.0561 170.001 68.634V69.6739C170.174 68.8073 170.348 72.2736 170.174 71.7537V70.8871C169.654 71.927 170.348 74.7001 170.174 76.6066C170.174 73.4869 168.094 60.3147 169.481 62.5678C169.307 61.1813 168.787 58.4082 168.44 56.5017L168.96 58.2349C168.44 55.1152 166.013 50.6089 166.533 50.7822C164.626 47.3158 164.279 45.0627 162.199 42.1163C163.412 43.3295 160.292 38.6499 160.985 39.1699C160.465 39.1699 156.477 32.9304 156.997 33.9703C155.539 31.7778 153.853 29.7446 151.969 27.9042C151.276 26.691 146.595 22.0114 148.502 23.3979C146.551 22.0251 144.697 20.5194 142.954 18.8917C141.567 17.5051 134.458 14.0388 136.712 14.9054C134.805 14.0388 136.365 14.732 137.059 14.9054C135.499 14.0388 133.591 12.9989 132.378 12.3056C132.204 11.9589 135.152 14.0388 133.765 12.8255L135.499 14.0388C133.591 11.439 126.656 8.49259 121.282 6.58609H122.149C119.548 5.54618 120.588 6.23945 117.814 5.19954C121.802 5.89282 110.359 2.59977 107.585 2.25313C105.331 0.86659 96.3152 0.346636 93.1945 0C91.9808 0.173318 91.1139 0.173318 91.8074 0C89.0334 0.173318 84.0054 0.693272 81.2314 0.693272L81.7515 0.519954C79.4976 0.693272 79.3242 1.38654 77.2437 1.38654L77.5905 1.21323C65.9742 2.77309 57.3053 6.41277 47.7695 11.439C48.0516 11.307 48.341 11.1913 48.6364 11.0924C47.2648 11.9766 45.8137 12.7309 44.3019 13.3455C42.9149 12.9989 39.274 17.1585 41.8747 14.5587C40.3143 16.2919 41.3545 14.5587 39.7941 16.1186C39.9675 16.8119 37.7136 17.6784 37.0201 18.7184L37.1935 18.545L35.8064 19.9316L35.9798 19.5849C33.3791 21.8381 30.9519 24.6112 28.3512 27.2109C29.7382 25.8244 29.0447 27.5576 28.1778 27.7309C29.0447 27.3843 26.7908 29.984 27.8311 28.0775C22.6297 32.2372 16.2148 43.8495 12.9206 49.049C11.5591 51.4084 10.4547 53.9069 9.62641 56.5017C11.0134 54.5952 9.10627 58.2349 9.27965 57.195C8.06601 61.1813 5.11859 66.5541 4.59845 70.5405V70.3671C0.264011 87.699 0.610766 107.284 10.4933 125.309L9.79978 124.442C12.4637 129.694 15.7845 134.586 19.6823 139.001C19.4126 138.886 19.1746 138.708 18.9888 138.481C20.5492 140.908 25.057 144.721 24.3635 144.721C24.7103 144.721 26.7908 147.147 26.444 146.627C28.8713 148.534 31.6454 151.653 34.246 152.52C34.246 153.213 37.887 155.12 38.5805 155.293C38.0603 155.12 39.4474 155.986 38.9272 155.813C40.3143 156.68 41.5279 157.2 41.3545 156.853C55.0514 164.306 59.7326 162.052 65.2806 163.786C68.9209 163.994 72.5716 163.936 76.2034 163.612C75.9863 163.716 75.7504 163.775 75.5099 163.786C77.5905 163.266 75.5099 163.612 79.1509 162.572C78.1106 163.266 82.6184 162.226 80.8846 163.092C81.7515 162.746 82.9652 162.572 81.9249 162.919C84.3522 162.399 83.4853 162.399 85.5658 161.879L84.8723 162.226C85.3925 162.052 87.9931 161.012 88.6866 161.359C91.634 160.493 93.888 159.626 96.8354 158.759C96.1419 159.279 99.4361 158.239 99.9562 158.066L99.2627 158.239C100.65 157.719 102.21 157.026 103.424 156.506L102.383 157.199L105.158 155.813L103.424 156.333C104.811 155.466 103.077 155.986 105.158 155.293C108.367 154.11 111.446 152.6 114.347 150.787C113.653 151.827 115.907 149.747 115.56 150.44C117.641 149.227 114.693 150.44 117.121 149.227C116.947 149.4 117.121 149.4 116.6 149.574C121.747 146.821 126.573 143.508 130.991 139.694C129.43 140.561 132.725 138.308 133.765 137.268C134.112 138.308 138.273 133.282 139.833 131.722L139.66 132.068C140.7 131.202 143.821 128.429 143.821 127.735C147.462 124.962 149.542 120.976 152.49 117.683C150.929 120.109 154.05 115.776 154.223 115.603C153.877 115.776 153.877 115.95 153.183 116.47C153.357 116.123 153.877 115.257 154.397 114.39C154.05 116.47 155.784 111.79 156.477 111.617C156.651 110.23 159.425 107.804 158.731 110.23ZM42.9149 22.1847C43.4351 22.0114 42.3948 23.5713 43.2617 22.7047C43.7818 23.0513 46.2091 20.4515 44.6487 22.0114C46.2091 21.3181 47.7695 18.8917 47.7695 19.7583C49.1565 18.1984 50.3702 18.0251 51.5838 16.8119C51.0637 17.6784 53.1442 15.9453 53.1442 16.4652C53.491 15.7719 55.2247 15.252 56.0916 14.3854L55.9182 14.5587C56.9585 14.5587 58.8657 11.9589 58.3455 13.6921C58.1722 13.5188 59.5592 12.8255 59.2124 12.8255C59.9059 12.8255 63.0267 11.439 61.8131 12.3056C62.7367 11.5793 63.7985 11.0486 64.9339 10.7457C65.454 10.2258 68.5748 9.70581 67.7079 9.01254C68.0242 8.82034 68.3798 8.70186 68.7482 8.6659C68.0547 8.83922 68.5748 8.83922 68.7482 8.6659C69.2683 8.83922 68.2281 9.01254 68.2281 9.18586C69.0186 8.79745 69.8288 8.45034 70.6553 8.14595C70.8287 8.31927 69.0949 8.6659 70.1352 8.6659L69.095 8.83922C76.2034 7.45268 81.5781 5.54618 91.2873 6.41277C91.634 6.41277 92.1542 6.06613 91.9808 6.41277C93.7088 6.12369 95.4772 6.18262 97.1821 6.58609H96.8354C97.8756 6.75941 98.2224 6.23945 99.0893 6.58609H98.9159C102.037 10.2258 103.077 16.2919 102.73 20.4515C103.424 18.8917 101.863 26.171 102.21 23.5713C101.624 26.4953 100.444 29.2679 98.7425 31.7172C100.13 30.6773 98.2224 33.797 98.5692 32.2372C98.5692 32.4105 98.049 33.4504 98.2224 32.5838C95.6217 35.5302 91.8074 39.3432 88.6866 39.6898C87.2996 40.2098 86.7795 40.3831 84.8723 41.2497C86.2593 41.423 83.6587 41.7697 84.5256 41.423C82.445 42.2896 79.3242 41.943 77.5905 42.9829H77.7638C73.276 44.2418 69.1283 46.4926 65.6274 49.569C62.5179 53.6064 59.9531 58.0351 57.9988 62.7411C57.3053 65.6876 56.265 68.4606 55.7449 71.4071C55.7449 71.2337 55.5715 71.2337 55.7449 70.8871C55.0514 72.1003 54.7046 75.22 54.3578 74.7001C54.3578 75.0467 53.6643 76.4333 54.0111 76.0866C53.2628 77.4788 52.6251 78.9276 52.1039 80.4196C51.7572 80.073 50.8903 81.8061 50.5435 82.3261C50.5435 82.1528 50.0234 82.6727 50.1968 82.3261C43.4351 89.0855 41.1811 88.2189 34.4194 84.0593C34.5525 84.0719 34.6762 84.1337 34.7662 84.2326C33.8993 83.7126 34.5928 84.5792 33.0324 83.5393C33.7259 83.5393 31.9921 82.3261 33.0324 82.4994C32.6856 82.3261 31.9921 81.9795 32.6856 82.1528C31.9921 81.2862 31.9921 81.8061 31.472 80.7662C32.5123 81.6328 29.9116 79.0331 30.7785 79.553C29.5287 77.8448 28.6435 75.898 28.1778 73.8335V74.1801C27.7625 73.5233 27.414 72.8265 27.1376 72.1003L27.4843 72.6203L26.7908 71.2337L26.9642 72.1003C26.444 71.4071 26.6174 72.2736 26.2707 71.2337C25.5772 69.8472 25.5772 67.7674 24.1901 66.3808C24.7103 66.7275 23.8434 65.5142 23.4966 64.821C23.4966 64.9943 23.4966 64.821 23.67 64.9943C21.7628 61.1813 22.1096 61.008 18.642 57.5416C18.9888 58.7548 17.7752 56.8483 17.0816 56.3284C17.4284 56.1551 15.5212 55.2885 16.9083 53.7286V53.9019C17.0816 53.382 18.4687 51.6488 18.2953 51.1288C20.0291 49.3957 20.2024 46.9692 21.9362 45.4093C21.7628 45.5827 21.7628 45.9293 21.7628 45.756C23.1499 43.8495 21.7628 44.8894 22.6297 43.5028C22.1096 44.3694 23.67 43.5028 22.9765 43.3295C23.67 43.1562 22.9765 42.2896 23.67 42.2896C24.5369 40.7298 24.3635 41.943 25.4038 39.8632C25.2699 40.1739 25.095 40.4654 24.8836 40.7298C25.5985 40.2455 26.2407 39.6619 26.7908 38.9966C26.0973 38.9966 27.8311 37.2634 28.1778 36.3968C27.3109 37.9567 28.8713 36.2235 28.8713 36.5701C29.7382 35.5302 33.7259 29.984 34.4194 29.4641C34.9242 29.0463 35.3886 28.5821 35.8064 28.0775C36.1532 28.5975 37.1935 26.171 36.6733 27.9042C37.3668 26.5177 39.6207 25.6511 38.7539 25.6511C38.9272 26.691 37.3668 25.8244 36.3266 28.0775C38.4071 25.4778 41.1811 23.9179 42.9149 22.1847ZM161.159 92.8985C161.159 92.8985 161.159 92.2052 161.505 92.2052C161.332 92.5519 161.332 92.7252 161.159 92.8985ZM163.933 75.74C164.279 75.74 164.106 76.0866 164.106 76.26C164.085 76.0766 164.026 75.8996 163.933 75.74ZM129.43 113.697C129.604 113.87 130.124 114.563 129.777 114.217C129.684 114.029 129.567 113.855 129.43 113.697ZM130.644 114.737C130.817 114.91 130.817 114.91 130.991 114.91C130.858 114.897 130.734 114.835 130.644 114.737ZM124.749 138.308C124.749 138.135 124.402 137.788 124.749 137.615C124.229 137.615 122.669 134.841 122.149 133.975L123.189 135.361C121.628 132.068 117.641 130.162 117.987 128.949C114.693 126.696 113.306 124.616 110.012 123.229C111.746 123.576 106.371 121.323 107.411 121.323C106.024 121.149 102.904 119.589 100.476 119.243H101.17C98.6949 118.509 96.1223 118.159 93.5412 118.203C92.3276 117.856 85.0457 118.723 87.9931 118.03C85.0457 118.896 82.9652 119.416 81.2314 119.763C79.671 120.456 76.5502 121.149 74.8164 121.669C75.8567 122.189 71.869 122.883 74.1229 122.189C72.2158 122.883 73.6028 122.536 74.4697 121.843C72.8294 122.471 71.1499 122.993 69.4417 123.402C69.0949 123.229 72.5625 122.536 70.6553 122.709L72.7359 122.363C69.7885 122.189 63.0267 124.616 57.4786 122.536H58.1722C55.7449 121.669 56.6118 122.536 54.0111 121.149C57.4786 122.536 47.076 117.336 44.8221 115.603C43.0883 113.697 34.246 108.67 31.2986 109.71C29.0447 109.537 29.9116 109.364 29.9116 109.364C26.2574 108.989 22.5663 109.223 18.9888 110.057L19.5089 109.884C18.0176 110.424 16.6152 111.183 15.3479 112.137L15.6946 111.963C10.6667 115.43 9.79978 91.512 10.3199 87.3523C9.79978 89.7788 11.7069 75.9133 11.1868 80.5929C11.1868 78.1665 11.5336 80.2463 11.5336 77.9931C12.0537 73.8335 14.1342 68.4606 15.868 62.9145C14.6544 65.3409 16.0414 60.488 16.0414 62.7411V62.3945C20.7226 67.4207 24.7103 77.4732 26.6174 82.4994C27.7691 85.0532 29.4196 87.3514 31.472 89.2588C30.085 87.179 33.0324 90.472 31.9921 89.6055C35.2863 92.5519 41.3545 95.8449 45.689 94.4584H45.5156C53.3176 93.4184 60.2527 84.5792 63.7202 75.5667L63.5469 75.74C65.6274 69.1539 68.5748 55.6351 77.5905 51.1288L76.8969 51.8221C81.7515 49.049 88.1665 49.049 93.3678 46.7959C93.0211 46.9692 93.0211 47.1425 92.5009 47.3158C96.2489 46.0371 99.6782 43.9684 102.557 41.2497C104.992 38.9457 106.937 36.1754 108.278 33.1038C108.972 32.9304 110.185 29.1174 110.185 28.2508C110.185 28.7708 110.532 27.0376 110.706 27.7309C111.226 26.171 111.226 24.7845 111.052 24.9578C112.236 19.3919 111.503 13.5893 108.972 8.49259C111.155 8.89096 113.3 9.4707 115.387 10.2258C116.254 10.5724 114.867 10.2258 114.52 10.2258C118.161 11.2657 121.455 12.8255 124.576 14.0388C124.359 13.935 124.123 13.8761 123.882 13.8654C125.113 14.1493 126.328 14.4964 127.523 14.9054C126.31 14.732 130.471 16.6385 128.563 16.2919C129.257 16.4652 130.644 16.9852 129.43 16.8119C130.565 17.3173 131.665 17.8962 132.725 18.545C132.507 18.4413 132.272 18.3824 132.031 18.3717C132.378 18.545 135.845 20.4515 135.152 20.2782C137.406 21.3181 133.418 23.9179 132.898 26.171C132.898 25.3044 131.338 28.4242 131.164 28.9441L131.511 28.2508C130.991 29.8107 130.817 31.3706 130.471 32.7571L130.644 31.5439C130.387 32.568 130.213 33.6114 130.124 34.6636C130.124 34.4903 130.471 32.9304 130.471 32.9304C130.297 34.6636 130.817 32.7571 130.471 35.0103C129.808 38.3769 129.518 41.806 129.604 45.236C129.257 44.3694 129.604 45.4093 129.604 45.5827C129.43 46.2759 129.43 46.4492 129.257 46.2759C128.91 48.5291 129.777 45.5827 129.257 48.1824V47.6625C127.697 55.2885 127.003 55.8084 123.536 63.9544C124.749 62.5678 122.495 66.0342 121.975 67.4207C121.628 66.7275 119.721 72.1003 118.854 74.8734V74.3535C118.508 75.74 116.774 79.3797 117.121 80.2463C115.387 84.7525 115.907 89.2588 115.734 93.4184C115.213 90.2987 115.907 95.8449 115.907 96.0182C116.08 95.6716 115.907 95.4983 116.08 94.805C116.292 95.5467 116.466 96.2987 116.6 97.0581C116.254 95.4983 116.254 97.0581 116.254 97.7514C116.254 97.5781 116.427 97.9247 116.427 97.7514C116.254 99.3113 117.294 98.7913 116.947 100.351C117.987 103.471 116.947 102.431 118.681 106.071C118.321 105.47 118.03 104.83 117.814 104.164C117.919 105.06 118.153 105.935 118.508 106.764V106.591L119.548 109.017L119.374 108.497C120.761 109.884 121.282 111.79 123.189 113.35C120.935 110.924 123.536 114.563 123.189 114.39C125.096 117.683 136.019 124.616 138.099 125.482C139.313 126.349 138.966 126.176 137.926 127.562C137.232 127.215 137.059 128.602 136.019 129.295C136.192 129.122 136.192 128.775 136.539 128.255C135.845 128.949 132.725 132.588 134.632 129.989C133.591 131.028 131.858 132.588 131.511 133.108L132.378 132.588C133.071 130.509 134.458 132.068 137.406 128.082C133.402 131.749 129.175 135.164 124.749 138.308ZM78.6307 157.546C78.4574 157.2 79.8444 156.68 78.6307 157.026C78.284 156.333 76.8969 157.2 76.3768 156.853H77.2437C75.5099 156.506 74.4697 158.066 73.7761 157.199C71.869 157.546 71.0021 157.026 69.2683 157.373C69.9618 157.026 67.3612 157.373 67.8813 156.853C66.7902 157.027 65.6783 157.027 64.5871 156.853H64.9339C64.2404 156.16 61.293 157.546 62.68 156.16C62.68 156.506 61.4663 156.16 61.6397 156.506C61.1196 155.986 58.3455 155.986 59.2124 155.466C58.13 155.505 57.0557 155.267 56.0916 154.773C55.3981 154.773 54.0111 154.253 53.1442 154.253V154.08C53.491 154.946 51.5838 154.426 52.6241 154.253C51.7572 154.08 52.2773 154.253 52.7974 154.08C51.9571 153.977 51.138 153.743 50.3702 153.387C50.3702 153.04 51.7572 153.733 51.0637 153.213L51.9306 153.733C52.2773 153.213 49.6767 152 48.9831 152.693C47.264 151.635 45.4673 150.708 43.6084 149.92C45.3422 150.613 40.4876 148.187 39.274 147.494C38.9272 146.627 34.9395 144.201 34.246 143.507C33.8993 143.507 33.0324 143.334 33.7259 143.161C32.3603 142.312 31.1325 141.26 30.085 140.041L30.2583 140.214C29.5648 139.348 29.0447 139.694 28.5246 138.828L28.698 139.001C25.3369 135.569 22.4241 131.726 20.0291 127.562C20.3758 129.122 17.0816 122.883 18.4687 124.962C17.7172 123.778 17.1337 122.494 16.7349 121.149C17.0601 120.422 17.6061 119.816 18.2953 119.416C17.4284 119.936 17.9485 118.723 18.4687 119.243C17.7752 119.07 19.1622 118.376 18.642 119.243C18.8154 119.243 19.3356 118.203 19.1622 119.07C19.3356 118.723 20.3758 118.723 20.5492 118.203C22.9765 116.816 27.6577 116.643 29.2181 117.856C30.6051 118.203 30.9519 118.376 32.6856 118.896C31.8187 118.03 33.7259 119.07 32.859 119.07C34.9395 119.589 36.8467 121.843 38.4071 122.363H38.2337C44.4753 126.696 55.0514 132.935 62.1598 132.762C64.9664 132.625 67.7533 132.219 70.482 131.548C70.3086 131.722 70.3086 131.722 70.1352 131.722C71.6956 131.722 73.6028 130.509 73.9495 130.855C74.2963 130.682 75.6833 130.335 75.1632 130.335C76.6465 130.003 78.0971 129.539 79.4976 128.949C79.4976 129.295 81.2314 128.775 81.7515 128.429C81.5781 128.602 82.2717 128.429 82.0983 128.602C89.0334 126.696 91.634 126.349 94.4081 127.215C96.0387 127.349 97.6598 127.581 99.2627 127.909H98.9159C98.9159 127.909 101.343 127.215 101.17 128.602C101.517 128.602 102.383 128.429 101.69 128.602C102.73 128.949 102.383 128.602 103.424 128.949H103.077C103.25 128.775 105.158 129.295 104.637 129.469C106.545 129.469 108.798 132.415 109.145 131.895C109.751 132.258 110.33 132.664 110.879 133.108L110.359 132.935C110.532 132.935 111.399 133.802 111.399 133.802L110.879 133.108C111.572 133.455 111.052 132.762 111.746 133.455C112.002 133.723 112.234 134.013 112.439 134.322C113.653 134.841 113.306 136.228 115.04 136.921C114 136.921 115.734 137.268 115.04 137.441C115.734 138.308 115.213 136.921 115.734 137.961L115.56 137.788C116.947 140.561 119.721 141.254 117.467 143.161C118.508 142.814 116.6 143.681 116.08 144.027C116.08 143.161 114 145.241 112.786 145.934L112.96 145.761C112.439 146.107 110.359 146.8 110.532 147.147C108.276 147.999 106.124 149.104 104.117 150.44C102.904 149.92 100.13 152.347 99.4361 151.48L98.3958 151.827C99.2627 152.173 96.8354 152.693 96.3152 153.213C98.2224 151.653 92.3276 153.906 93.888 153.56C92.6743 153.387 87.2996 156.333 87.8197 155.64C87.2261 155.654 86.6395 155.771 86.086 155.986C86.086 155.466 84.5256 156.68 85.3924 155.64C85.0457 155.813 82.7918 156.68 84.1788 155.986C83.4853 156.16 81.4048 156.68 82.7918 156.68C83.3119 155.813 84.0054 157.373 85.9126 156.16C83.8321 157.373 80.7113 157.2 78.6307 157.546ZM21.7628 47.6625C21.7628 47.3158 22.1096 46.7959 21.7628 47.6625V47.6625ZM86.6061 6.58609C86.6061 6.58609 85.3924 6.75941 85.9126 6.41277C86.138 6.49146 86.3701 6.54947 86.6061 6.58609ZM41.0078 114.217C41.1811 114.217 43.2617 115.603 41.8747 115.083C42.2214 115.083 41.3545 114.563 41.0078 114.217ZM107.411 148.88C107.411 148.707 107.585 148.707 107.758 148.36C108.105 148.707 107.585 148.707 107.411 148.88ZM114.693 90.1254C114.577 89.7315 114.519 89.3229 114.52 88.9122C115.04 88.9122 114.693 89.7788 114.693 90.1254ZM131.858 123.056C131.684 122.883 130.817 122.883 130.471 122.189C130.991 122.373 131.464 122.669 131.858 123.056ZM37.887 146.28C38.0845 146.495 38.3196 146.671 38.5805 146.8C38.4071 147.147 38.0603 146.454 37.887 146.28ZM39.274 147.32C39.364 147.419 39.4876 147.481 39.6207 147.494C39.5273 147.399 39.4055 147.339 39.274 147.32ZM86.2593 156.16C86.7795 156.333 85.7392 156.506 85.5658 156.506L86.2593 156.16ZM90.4204 155.293C90.4204 155.12 90.9405 154.773 91.1139 155.12C90.9405 155.12 90.5938 155.293 90.4204 155.293ZM124.056 138.481H124.402C124.229 138.481 124.229 138.654 124.056 138.654C124.229 138.654 124.229 138.654 124.056 138.481C124.229 138.654 124.056 138.654 124.056 138.481ZM136.539 128.082C136.629 127.983 136.753 127.921 136.886 127.909C136.365 128.255 136.019 128.775 135.499 129.122L136.539 128.082ZM37.3668 27.3843C37.1935 27.5576 37.0201 28.2508 36.6733 28.0775L37.3668 27.3843ZM33.7259 31.3706C33.5525 32.0638 33.7259 31.5439 33.7259 31.3706V31.3706ZM156.651 103.124C156.131 103.124 156.651 102.604 156.304 102.431C156.131 102.778 156.131 102.951 155.957 102.951C155.264 103.124 154.57 105.551 155.09 103.818C154.223 104.857 153.183 107.457 153.183 106.591C152.836 107.457 152.143 109.017 151.623 109.017C151.566 109.436 151.449 109.845 151.276 110.23C150.409 110.057 149.369 112.483 148.675 113.87C148.502 114.39 146.768 116.123 146.942 116.47C146.421 116.643 144.688 119.07 145.034 117.856C144.004 119.56 142.844 121.182 141.567 122.709C141.74 122.709 141.914 122.883 141.567 122.709C142.26 122.189 140.873 122.536 140.353 121.843C140.353 121.496 141.567 122.536 141.047 121.843C139.486 119.243 130.991 116.296 127.176 110.057C126.656 109.71 126.483 109.537 126.83 109.537C126.136 109.19 124.056 106.244 124.576 106.071C124.229 105.204 123.709 105.377 123.536 104.511L123.709 104.684C121.976 100.522 121.262 96.0057 121.628 91.5119C121.108 92.5519 122.149 86.4857 121.975 88.9122C121.802 87.8723 122.322 88.7389 122.149 87.8723C121.975 86.3124 123.362 83.5393 123.709 81.2862C123.362 82.1528 123.015 80.9395 123.709 80.9395C123.189 81.1129 123.536 79.8996 123.709 80.7662C125.269 78.3398 126.31 72.447 128.043 70.5405C128.563 69.3272 128.737 68.9806 129.43 67.2474C128.91 67.0741 132.378 62.7411 132.551 61.3546V61.5279C135.845 55.2885 136.365 43.6762 136.886 37.7833C136.995 35.3593 137.462 32.9647 138.273 30.6773C138.273 30.8506 138.446 30.8506 138.273 31.0239C138.966 30.1573 139.313 27.9042 139.833 28.0775C139.833 27.7309 140.7 26.8643 140.353 27.0376C141.047 26.171 141.047 25.8244 141.914 26.171C141.567 26.3444 142.78 27.5576 143.474 27.7309C143.301 28.0775 144.514 29.1174 144.514 28.5975C148.849 34.1437 149.889 33.9703 151.276 36.7434C152.316 37.9567 153.01 39.3432 154.05 40.5564C153.53 40.0365 154.05 40.9031 154.223 40.9031C153.53 40.0365 155.09 41.2497 155.264 41.423C154.57 41.2497 155.957 42.8096 154.917 42.4629C155.09 42.6362 155.264 42.8096 155.264 42.6362C155.437 42.9829 155.437 42.9829 155.09 42.8096C155.61 43.6762 155.61 43.3295 156.131 44.0228C155.09 43.1562 157.344 45.756 156.651 45.0627C157.698 46.4402 158.41 48.0423 158.731 49.7423V49.3957C159.078 50.0889 159.598 50.4356 159.598 51.1288L159.251 50.6089L159.771 51.8221L159.598 51.1288C159.945 51.8221 159.945 50.9555 160.118 51.8221C160.343 53.2768 160.812 54.6831 161.505 55.9817C161.679 58.0616 162.546 60.488 163.239 64.4743C163.412 63.4344 163.412 65.5142 163.586 66.0342C163.066 65.8609 163.933 68.2873 164.106 69.5005C163.933 69.1539 163.759 71.927 164.279 71.927C163.586 74.0068 164.799 75.74 163.933 77.6465V78.8597C164.453 77.9931 164.453 78.6864 164.453 79.3797C163.586 79.2064 164.279 82.4994 163.586 83.366V82.4994C163.224 83.1599 162.933 83.8571 162.719 84.5792C163.586 84.4059 162.719 86.3124 162.892 87.179C162.719 85.7924 162.372 87.5256 162.199 87.3523C161.679 88.5655 160.812 94.4584 160.292 95.1516C159.989 95.6369 159.756 96.1619 159.598 96.7115C158.905 96.3649 159.425 97.2314 159.078 97.5781C159.078 97.4048 158.905 97.2314 158.905 97.0581C158.731 97.4048 158.384 99.8312 158.558 98.098C158.384 98.618 157.518 100.698 158.384 99.6579C157.864 98.7913 159.598 98.9646 159.598 96.8848C159.251 98.9646 157.344 101.218 156.651 103.124ZM159.425 96.5382C159.945 96.0182 159.598 97.0581 159.425 97.2314V96.5382ZM168.44 87.699L168.094 88.2189C168.267 87.3523 168.787 85.7924 168.44 87.699ZM170.174 77.6465C169.654 78.8597 169.827 76.6066 170.001 76.0866L170.174 77.6465ZM107.932 1.9065C108.203 2.03216 108.5 2.09157 108.798 2.07982C108.503 2.06466 108.211 2.00627 107.932 1.9065ZM105.851 1.55986C106.024 1.73318 105.851 1.73318 105.504 1.73318C105.678 1.73318 104.811 1.55986 104.291 1.38654C104.637 1.38654 105.158 1.55986 105.851 1.55986ZM149.889 121.669C150.409 120.976 151.276 120.109 149.889 121.669V121.669Z" fill="#121418"/>
</svg>
