<svg xmlns="http://www.w3.org/2000/svg" height="40" viewBox="0 -960 960 960" width="40"><path d="M796-120q-124.333 0-245.5-59.167-121.167-59.166-216.667-154.666T179.167-550.5Q120-671.667 120-796q0-18.667 12.667-31.333Q145.333-840 164-840h147.333q14 0 24.667 9.333 10.666 9.334 13.333 24.667L376-675.334q2 14-.5 25.5T364.666-630L266-530q51.333 86 118.667 153Q452-310 536-262.666l94.667-96.667q9.667-10.333 23.167-14.833 13.5-4.5 26.833-1.834L806-349.333q14.667 3 24.333 14.5Q840-323.333 840-308v144q0 18.667-12.667 31.333Q814.667-120 796-120Z"/></svg>