<svg width="105" height="33" viewBox="0 0 105 33" fill="none" xmlns="http://www.w3.org/2000/svg">
<path d="M10.3988 21.1538H13.8176C13.782 23.3509 13.5683 25.251 13.1766 26.8542C12.7848 28.4575 12.3397 29.6896 11.8411 30.5506C10.9033 32.1835 9.40166 33 7.33615 33C6.17281 33 5.14005 32.7179 4.23787 32.1538C3.33569 31.5897 2.52254 30.4318 1.79842 28.6802C0.599475 25.8893 0 21.8812 0 16.6559C0 11.6977 0.575733 7.7193 1.7272 4.72065C2.97363 1.60324 4.74831 0.0445338 7.05125 0.0445338C9.2236 0.0445338 10.8499 0.964912 11.9301 2.80567C12.3694 3.51822 12.773 4.58704 13.141 6.01215C13.509 7.43725 13.7048 9.21862 13.7286 11.3563H10.3098C10.2504 9.69366 9.94179 8.417 9.38386 7.52632C8.84967 6.69501 8.1493 6.27935 7.28273 6.27935C6.11939 6.27935 5.22315 7.09582 4.594 8.72874C3.90549 10.6289 3.56124 13.2564 3.56124 16.6113C3.56124 20.085 3.91736 22.7125 4.62961 24.4939C5.25876 26.0081 6.14907 26.7652 7.30053 26.7652C8.28581 26.7652 9.00993 26.3644 9.47289 25.5628C10.0427 24.583 10.3513 23.1134 10.3988 21.1538Z" fill="#121418"/>
<path d="M24.7032 8.63968C24.0503 7.03644 23.1481 6.23482 21.9966 6.23482C20.8451 6.23482 19.943 7.03644 19.2901 8.63968C18.5303 10.4507 18.1505 13.0634 18.1505 16.4777C18.1505 19.892 18.5303 22.5047 19.2901 24.3158C19.943 25.919 20.8451 26.7206 21.9966 26.7206C23.1481 26.7206 24.0503 25.919 24.7032 24.3158C25.4629 22.5047 25.8428 19.892 25.8428 16.4777C25.8428 13.0634 25.4629 10.4507 24.7032 8.63968ZM29.404 16.4777C29.404 21.5547 28.7511 25.5331 27.4453 28.413C26.1039 31.4413 24.2877 32.9555 21.9966 32.9555C19.7056 32.9555 17.8893 31.4413 16.5479 28.413C15.2421 25.5331 14.5892 21.5547 14.5892 16.4777C14.5892 11.5196 15.2421 7.54116 16.5479 4.54251C17.8893 1.51417 19.7056 0 21.9966 0C24.2877 0 26.1039 1.51417 27.4453 4.54251C28.7511 7.54116 29.404 11.5196 29.404 16.4777Z" fill="#121418"/>
<path d="M38.5554 32.0648L34.8161 8.86235H34.6915L34.8161 11.4899V32.0648H31.5398V0.890687H36.1694L39.695 23.5142H39.784L43.3096 0.890687H47.9393V32.0648H44.6629V11.4899L44.7876 8.86235H44.6629L40.9236 32.0648H38.5554Z" fill="#121418"/>
<path d="M53.9612 7.12551V15.7206H56.917C57.8667 15.7206 58.5137 15.2901 58.8579 14.4291C59.1666 13.6572 59.3209 12.5884 59.3209 11.2227C59.3209 9.85695 59.1191 8.78813 58.7155 8.01619C58.3831 7.4224 57.8489 7.12551 57.1129 7.12551H53.9612ZM50.6849 0.890687H57.3622C58.3593 0.890687 59.1784 1.06883 59.8195 1.4251C60.4723 1.78138 61.0481 2.53846 61.5466 3.69636C62.3183 5.50742 62.7041 7.9865 62.7041 11.1336C62.7041 14.2213 62.3657 16.6856 61.6891 18.5263C61.1787 19.9217 60.5732 20.8124 59.8729 21.1984C59.1725 21.5843 58.2644 21.7773 57.1485 21.7773H53.9612V32.0648H50.6849V0.890687Z" fill="#121418"/>
<path d="M66.9632 20.3968H70.7737L68.8507 8.72874L66.9632 20.3968ZM66.1619 25.7409L65.0758 32.0648H61.657L67.2481 0.890687H70.471L76.0622 32.0648H72.6434L71.5572 25.7409H66.1619Z" fill="#121418"/>
<path d="M89.9695 0.890687V32.0648H86.7822L80.4966 11.1336V32.0648H77.2203V0.890687H80.4254L86.6932 21.8219V0.890687H89.9695Z" fill="#121418"/>
<path d="M98.2514 14.2065L101.368 0.890687H105L99.7472 20.1741V32.0648H96.4708V20.1741L91.218 0.890687H95.0998L98.2514 14.2065Z" fill="#121418"/>
</svg>
